<?xml version="1.0" encoding="UTF-8"?>
<svg xmlns="http://www.w3.org/2000/svg" xmlns:xlink="http://www.w3.org/1999/xlink" width="432pt" height="360pt" viewBox="0 0 432 360" version="1.1">
<defs>
<g>
<symbol overflow="visible" id="glyph0-0">
<path style="stroke:none;" d="M 1.5 0 L 1.5 -7.5 L 7.5 -7.5 L 7.5 0 Z M 1.6875 -0.1875 L 7.3125 -0.1875 L 7.3125 -7.3125 L 1.6875 -7.3125 Z M 1.6875 -0.1875 "/>
</symbol>
<symbol overflow="visible" id="glyph0-1">
<path style="stroke:none;" d="M 2.804688 0 L 2.804688 -7.136719 L 0.257813 -7.136719 L 0.257813 -8.589844 L 7.085938 -8.589844 L 7.085938 -7.136719 L 4.539063 -7.136719 L 4.539063 0 Z M 2.804688 0 "/>
</symbol>
<symbol overflow="visible" id="glyph0-2">
<path style="stroke:none;" d="M 0.859375 -7.066406 L 0.859375 -8.589844 L 2.507813 -8.589844 L 2.507813 -7.066406 Z M 0.859375 0 L 0.859375 -6.222656 L 2.507813 -6.222656 L 2.507813 0 Z M 0.859375 0 "/>
</symbol>
<symbol overflow="visible" id="glyph0-3">
<path style="stroke:none;" d="M 6.289063 -4.382813 L 4.664063 -4.089844 C 4.609375 -4.414063 4.484375 -4.65625 4.289063 -4.824219 C 4.09375 -4.984375 3.84375 -5.066406 3.539063 -5.070313 C 3.125 -5.066406 2.796875 -4.925781 2.554688 -4.644531 C 2.3125 -4.359375 2.191406 -3.886719 2.191406 -3.222656 C 2.191406 -2.484375 2.3125 -1.960938 2.5625 -1.660156 C 2.808594 -1.351563 3.144531 -1.199219 3.5625 -1.203125 C 3.875 -1.199219 4.128906 -1.289063 4.328125 -1.46875 C 4.527344 -1.644531 4.667969 -1.949219 4.75 -2.382813 L 6.367188 -2.109375 C 6.199219 -1.367188 5.878906 -0.804688 5.402344 -0.425781 C 4.925781 -0.046875 4.285156 0.140625 3.484375 0.140625 C 2.574219 0.140625 1.847656 -0.144531 1.308594 -0.71875 C 0.765625 -1.292969 0.496094 -2.089844 0.5 -3.105469 C 0.496094 -4.132813 0.769531 -4.929688 1.3125 -5.503906 C 1.851563 -6.074219 2.585938 -6.363281 3.515625 -6.363281 C 4.273438 -6.363281 4.875 -6.199219 5.320313 -5.871094 C 5.765625 -5.542969 6.085938 -5.046875 6.289063 -4.382813 Z M 6.289063 -4.382813 "/>
</symbol>
<symbol overflow="visible" id="glyph0-4">
<path style="stroke:none;" d="M 0.804688 0 L 0.804688 -8.589844 L 2.449219 -8.589844 L 2.449219 -4.03125 L 4.375 -6.222656 L 6.40625 -6.222656 L 4.277344 -3.949219 L 6.554688 0 L 4.78125 0 L 3.21875 -2.796875 L 2.449219 -1.992188 L 2.449219 0 Z M 0.804688 0 "/>
</symbol>
<symbol overflow="visible" id="glyph0-5">
<path style="stroke:none;" d="M 4.464844 -1.980469 L 6.105469 -1.703125 C 5.894531 -1.101563 5.558594 -0.644531 5.105469 -0.332031 C 4.644531 -0.015625 4.078125 0.140625 3.398438 0.140625 C 2.3125 0.140625 1.511719 -0.210938 0.996094 -0.921875 C 0.585938 -1.484375 0.378906 -2.199219 0.382813 -3.0625 C 0.378906 -4.089844 0.648438 -4.898438 1.191406 -5.484375 C 1.726563 -6.070313 2.410156 -6.363281 3.234375 -6.363281 C 4.160156 -6.363281 4.890625 -6.054688 5.425781 -5.445313 C 5.957031 -4.832031 6.210938 -3.898438 6.195313 -2.636719 L 2.070313 -2.636719 C 2.078125 -2.148438 2.210938 -1.765625 2.464844 -1.496094 C 2.71875 -1.222656 3.035156 -1.089844 3.414063 -1.089844 C 3.671875 -1.089844 3.890625 -1.160156 4.066406 -1.300781 C 4.238281 -1.441406 4.371094 -1.667969 4.464844 -1.980469 Z M 4.558594 -3.644531 C 4.542969 -4.121094 4.417969 -4.480469 4.1875 -4.730469 C 3.949219 -4.972656 3.664063 -5.097656 3.335938 -5.101563 C 2.972656 -5.097656 2.675781 -4.96875 2.445313 -4.710938 C 2.207031 -4.449219 2.09375 -4.09375 2.097656 -3.644531 Z M 4.558594 -3.644531 "/>
</symbol>
<symbol overflow="visible" id="glyph0-6">
<path style="stroke:none;" d="M 2.4375 0 L 0.789063 0 L 0.789063 -6.222656 L 2.320313 -6.222656 L 2.320313 -5.335938 C 2.578125 -5.753906 2.8125 -6.03125 3.023438 -6.164063 C 3.234375 -6.296875 3.472656 -6.363281 3.738281 -6.363281 C 4.113281 -6.363281 4.472656 -6.257813 4.820313 -6.054688 L 4.3125 -4.617188 C 4.035156 -4.796875 3.777344 -4.886719 3.539063 -4.886719 C 3.308594 -4.886719 3.113281 -4.820313 2.953125 -4.695313 C 2.789063 -4.566406 2.660156 -4.339844 2.574219 -4.007813 C 2.480469 -3.671875 2.4375 -2.976563 2.4375 -1.921875 Z M 2.4375 0 "/>
</symbol>
<symbol overflow="visible" id="glyph0-7">
<path style="stroke:none;" d="M 1.179688 -4.578125 L 1.179688 -6.222656 L 2.824219 -6.222656 L 2.824219 -4.578125 Z M 1.179688 0 L 1.179688 -1.648438 L 2.824219 -1.648438 L 2.824219 0 Z M 1.179688 0 "/>
</symbol>
<symbol overflow="visible" id="glyph0-8">
<path style="stroke:none;" d=""/>
</symbol>
<symbol overflow="visible" id="glyph0-9">
<path style="stroke:none;" d="M 0.433594 -2.796875 L 2.121094 -2.960938 C 2.222656 -2.390625 2.425781 -1.976563 2.738281 -1.710938 C 3.042969 -1.445313 3.464844 -1.3125 3.996094 -1.3125 C 4.554688 -1.3125 4.972656 -1.429688 5.257813 -1.667969 C 5.539063 -1.902344 5.683594 -2.179688 5.683594 -2.496094 C 5.683594 -2.699219 5.621094 -2.871094 5.503906 -3.011719 C 5.382813 -3.152344 5.175781 -3.277344 4.882813 -3.386719 C 4.675781 -3.457031 4.214844 -3.582031 3.492188 -3.761719 C 2.5625 -3.992188 1.910156 -4.273438 1.535156 -4.609375 C 1.003906 -5.082031 0.738281 -5.660156 0.742188 -6.339844 C 0.738281 -6.777344 0.863281 -7.183594 1.113281 -7.566406 C 1.363281 -7.945313 1.71875 -8.238281 2.1875 -8.4375 C 2.652344 -8.632813 3.21875 -8.730469 3.878906 -8.734375 C 4.957031 -8.730469 5.765625 -8.496094 6.3125 -8.027344 C 6.855469 -7.554688 7.144531 -6.921875 7.171875 -6.132813 L 5.4375 -6.058594 C 5.363281 -6.496094 5.203125 -6.8125 4.960938 -7.007813 C 4.714844 -7.203125 4.347656 -7.300781 3.859375 -7.300781 C 3.355469 -7.300781 2.960938 -7.195313 2.679688 -6.992188 C 2.492188 -6.851563 2.402344 -6.675781 2.402344 -6.457031 C 2.402344 -6.253906 2.488281 -6.078125 2.660156 -5.9375 C 2.878906 -5.75 3.410156 -5.558594 4.253906 -5.359375 C 5.097656 -5.160156 5.71875 -4.953125 6.125 -4.742188 C 6.527344 -4.523438 6.84375 -4.234375 7.074219 -3.867188 C 7.300781 -3.5 7.417969 -3.042969 7.417969 -2.5 C 7.417969 -2.007813 7.28125 -1.546875 7.007813 -1.121094 C 6.734375 -0.6875 6.347656 -0.367188 5.847656 -0.160156 C 5.347656 0.0507813 4.722656 0.152344 3.976563 0.152344 C 2.890625 0.152344 2.058594 -0.0976563 1.476563 -0.597656 C 0.890625 -1.097656 0.542969 -1.828125 0.433594 -2.796875 Z M 0.433594 -2.796875 "/>
</symbol>
<symbol overflow="visible" id="glyph0-10">
<path style="stroke:none;" d="M 0.921875 0 L 0.921875 -8.519531 L 2.65625 -8.519531 L 2.65625 -1.445313 L 6.96875 -1.445313 L 6.96875 0 Z M 0.921875 0 "/>
</symbol>
<symbol overflow="visible" id="glyph0-11">
<path style="stroke:none;" d="M 8.617188 0 L 6.734375 0 L 5.984375 -1.953125 L 2.546875 -1.953125 L 1.839844 0 L 0 0 L 3.34375 -8.589844 L 5.179688 -8.589844 Z M 5.425781 -3.398438 L 4.242188 -6.585938 L 3.082031 -3.398438 Z M 5.425781 -3.398438 "/>
</symbol>
<symbol overflow="visible" id="glyph1-0">
<path style="stroke:none;" d="M 1.25 0 L 1.25 -6.25 L 6.25 -6.25 L 6.25 0 Z M 1.40625 -0.15625 L 6.09375 -0.15625 L 6.09375 -6.09375 L 1.40625 -6.09375 Z M 1.40625 -0.15625 "/>
</symbol>
<symbol overflow="visible" id="glyph1-1">
<path style="stroke:none;" d="M 0.640625 0 L 0.640625 -7.15625 L 1.519531 -7.15625 L 1.519531 0 Z M 0.640625 0 "/>
</symbol>
<symbol overflow="visible" id="glyph1-2">
<path style="stroke:none;" d="M 0.332031 -2.59375 C 0.328125 -3.550781 0.59375 -4.261719 1.132813 -4.726563 C 1.574219 -5.109375 2.121094 -5.300781 2.765625 -5.304688 C 3.476563 -5.300781 4.058594 -5.066406 4.511719 -4.601563 C 4.964844 -4.132813 5.191406 -3.488281 5.191406 -2.664063 C 5.191406 -1.996094 5.089844 -1.472656 4.890625 -1.089844 C 4.6875 -0.707031 4.394531 -0.410156 4.015625 -0.199219 C 3.628906 0.0117188 3.214844 0.117188 2.765625 0.117188 C 2.039063 0.117188 1.449219 -0.113281 1.003906 -0.582031 C 0.550781 -1.042969 0.328125 -1.714844 0.332031 -2.59375 Z M 1.234375 -2.59375 C 1.230469 -1.925781 1.375 -1.429688 1.667969 -1.101563 C 1.957031 -0.769531 2.324219 -0.601563 2.765625 -0.605469 C 3.199219 -0.601563 3.558594 -0.769531 3.851563 -1.101563 C 4.140625 -1.433594 4.289063 -1.9375 4.289063 -2.621094 C 4.289063 -3.261719 4.140625 -3.75 3.851563 -4.078125 C 3.554688 -4.40625 3.195313 -4.570313 2.765625 -4.574219 C 2.324219 -4.570313 1.957031 -4.40625 1.667969 -4.082031 C 1.375 -3.75 1.230469 -3.253906 1.234375 -2.59375 Z M 1.234375 -2.59375 "/>
</symbol>
<symbol overflow="visible" id="glyph1-3">
<path style="stroke:none;" d="M 0.5 0.429688 L 1.351563 0.554688 C 1.386719 0.816406 1.484375 1.007813 1.648438 1.132813 C 1.863281 1.289063 2.164063 1.371094 2.542969 1.375 C 2.949219 1.371094 3.261719 1.289063 3.488281 1.132813 C 3.707031 0.96875 3.859375 0.742188 3.9375 0.449219 C 3.980469 0.265625 4 -0.109375 4 -0.679688 C 3.613281 -0.226563 3.132813 0 2.5625 0 C 1.84375 0 1.292969 -0.253906 0.90625 -0.769531 C 0.511719 -1.28125 0.316406 -1.898438 0.320313 -2.621094 C 0.316406 -3.113281 0.40625 -3.570313 0.589844 -3.988281 C 0.765625 -4.40625 1.023438 -4.730469 1.367188 -4.960938 C 1.703125 -5.1875 2.105469 -5.300781 2.570313 -5.304688 C 3.175781 -5.300781 3.679688 -5.054688 4.082031 -4.5625 L 4.082031 -5.1875 L 4.890625 -5.1875 L 4.890625 -0.703125 C 4.886719 0.101563 4.804688 0.671875 4.644531 1.011719 C 4.476563 1.347656 4.214844 1.613281 3.863281 1.8125 C 3.503906 2.003906 3.066406 2.101563 2.546875 2.105469 C 1.925781 2.101563 1.425781 1.964844 1.046875 1.6875 C 0.664063 1.40625 0.480469 0.984375 0.5 0.429688 Z M 1.226563 -2.6875 C 1.222656 -2.003906 1.359375 -1.507813 1.628906 -1.195313 C 1.898438 -0.882813 2.238281 -0.726563 2.648438 -0.726563 C 3.046875 -0.726563 3.382813 -0.878906 3.660156 -1.191406 C 3.929688 -1.5 4.066406 -1.988281 4.070313 -2.65625 C 4.066406 -3.289063 3.925781 -3.769531 3.648438 -4.089844 C 3.363281 -4.410156 3.023438 -4.570313 2.632813 -4.574219 C 2.238281 -4.570313 1.90625 -4.410156 1.636719 -4.097656 C 1.359375 -3.777344 1.222656 -3.308594 1.226563 -2.6875 Z M 1.226563 -2.6875 "/>
</symbol>
<symbol overflow="visible" id="glyph1-4">
<path style="stroke:none;" d=""/>
</symbol>
<symbol overflow="visible" id="glyph1-5">
<path style="stroke:none;" d="M 0.648438 0 L 0.648438 -5.1875 L 1.441406 -5.1875 L 1.441406 -4.398438 C 1.640625 -4.765625 1.824219 -5.007813 2 -5.128906 C 2.167969 -5.242188 2.355469 -5.300781 2.5625 -5.304688 C 2.855469 -5.300781 3.160156 -5.207031 3.46875 -5.019531 L 3.164063 -4.203125 C 2.949219 -4.328125 2.734375 -4.394531 2.519531 -4.394531 C 2.324219 -4.394531 2.148438 -4.335938 2 -4.21875 C 1.84375 -4.101563 1.738281 -3.941406 1.675781 -3.742188 C 1.574219 -3.425781 1.523438 -3.082031 1.527344 -2.714844 L 1.527344 0 Z M 0.648438 0 "/>
</symbol>
<symbol overflow="visible" id="glyph1-6">
<path style="stroke:none;" d="M 4.210938 -1.671875 L 5.117188 -1.558594 C 4.96875 -1.027344 4.703125 -0.613281 4.320313 -0.320313 C 3.929688 -0.0273438 3.4375 0.117188 2.835938 0.117188 C 2.078125 0.117188 1.476563 -0.113281 1.03125 -0.582031 C 0.585938 -1.046875 0.363281 -1.703125 0.367188 -2.546875 C 0.363281 -3.417969 0.585938 -4.097656 1.039063 -4.582031 C 1.484375 -5.0625 2.070313 -5.300781 2.789063 -5.304688 C 3.480469 -5.300781 4.046875 -5.066406 4.488281 -4.59375 C 4.925781 -4.121094 5.144531 -3.457031 5.148438 -2.601563 C 5.144531 -2.546875 5.140625 -2.46875 5.140625 -2.367188 L 1.273438 -2.367188 C 1.304688 -1.796875 1.46875 -1.359375 1.757813 -1.058594 C 2.046875 -0.753906 2.40625 -0.601563 2.84375 -0.605469 C 3.160156 -0.601563 3.433594 -0.6875 3.664063 -0.859375 C 3.890625 -1.027344 4.074219 -1.296875 4.210938 -1.671875 Z M 1.324219 -3.089844 L 4.21875 -3.089844 C 4.179688 -3.523438 4.066406 -3.851563 3.886719 -4.070313 C 3.605469 -4.40625 3.242188 -4.574219 2.796875 -4.578125 C 2.390625 -4.574219 2.050781 -4.441406 1.777344 -4.171875 C 1.5 -3.902344 1.351563 -3.539063 1.324219 -3.089844 Z M 1.324219 -3.089844 "/>
</symbol>
<symbol overflow="visible" id="glyph1-7">
<path style="stroke:none;" d="M 2.578125 -0.785156 L 2.703125 -0.0078125 C 2.453125 0.046875 2.234375 0.0703125 2.039063 0.0703125 C 1.71875 0.0703125 1.46875 0.0195313 1.296875 -0.0820313 C 1.117188 -0.183594 0.996094 -0.316406 0.925781 -0.480469 C 0.855469 -0.644531 0.820313 -0.988281 0.820313 -1.519531 L 0.820313 -4.5 L 0.175781 -4.5 L 0.175781 -5.1875 L 0.820313 -5.1875 L 0.820313 -6.46875 L 1.695313 -6.996094 L 1.695313 -5.1875 L 2.578125 -5.1875 L 2.578125 -4.5 L 1.695313 -4.5 L 1.695313 -1.46875 C 1.691406 -1.214844 1.707031 -1.054688 1.742188 -0.984375 C 1.769531 -0.914063 1.820313 -0.855469 1.890625 -0.8125 C 1.957031 -0.769531 2.058594 -0.75 2.191406 -0.75 C 2.289063 -0.75 2.417969 -0.761719 2.578125 -0.785156 Z M 2.578125 -0.785156 "/>
</symbol>
<symbol overflow="visible" id="glyph1-8">
<path style="stroke:none;" d="M 4.058594 0 L 4.058594 -0.761719 C 3.652344 -0.175781 3.105469 0.117188 2.414063 0.117188 C 2.105469 0.117188 1.816406 0.0585938 1.554688 -0.0585938 C 1.285156 -0.175781 1.089844 -0.320313 0.964844 -0.5 C 0.835938 -0.671875 0.746094 -0.890625 0.695313 -1.152344 C 0.65625 -1.320313 0.636719 -1.59375 0.640625 -1.972656 L 0.640625 -5.1875 L 1.519531 -5.1875 L 1.519531 -2.308594 C 1.515625 -1.847656 1.535156 -1.539063 1.570313 -1.382813 C 1.625 -1.148438 1.742188 -0.964844 1.921875 -0.835938 C 2.101563 -0.703125 2.320313 -0.636719 2.585938 -0.640625 C 2.847656 -0.636719 3.097656 -0.707031 3.328125 -0.84375 C 3.558594 -0.976563 3.722656 -1.160156 3.820313 -1.394531 C 3.914063 -1.625 3.960938 -1.960938 3.964844 -2.40625 L 3.964844 -5.1875 L 4.84375 -5.1875 L 4.84375 0 Z M 4.058594 0 "/>
</symbol>
<symbol overflow="visible" id="glyph1-9">
<path style="stroke:none;" d="M 0.660156 0 L 0.660156 -5.1875 L 1.449219 -5.1875 L 1.449219 -4.449219 C 1.828125 -5.015625 2.378906 -5.300781 3.101563 -5.304688 C 3.410156 -5.300781 3.699219 -5.246094 3.960938 -5.132813 C 4.222656 -5.019531 4.417969 -4.871094 4.550781 -4.691406 C 4.679688 -4.507813 4.769531 -4.292969 4.824219 -4.042969 C 4.855469 -3.878906 4.875 -3.59375 4.875 -3.1875 L 4.875 0 L 3.992188 0 L 3.992188 -3.15625 C 3.988281 -3.511719 3.957031 -3.777344 3.890625 -3.957031 C 3.820313 -4.128906 3.699219 -4.269531 3.527344 -4.378906 C 3.351563 -4.480469 3.144531 -4.535156 2.914063 -4.539063 C 2.535156 -4.535156 2.214844 -4.417969 1.945313 -4.183594 C 1.671875 -3.945313 1.535156 -3.492188 1.539063 -2.832031 L 1.539063 0 Z M 0.660156 0 "/>
</symbol>
<symbol overflow="visible" id="glyph1-10">
<path style="stroke:none;" d="M 0.316406 -2.148438 L 0.316406 -3.03125 L 3.015625 -3.03125 L 3.015625 -2.148438 Z M 0.316406 -2.148438 "/>
</symbol>
<symbol overflow="visible" id="glyph1-11">
<path style="stroke:none;" d="M 0.414063 -3.53125 C 0.410156 -4.375 0.496094 -5.054688 0.675781 -5.574219 C 0.847656 -6.085938 1.109375 -6.484375 1.453125 -6.765625 C 1.796875 -7.042969 2.226563 -7.183594 2.75 -7.1875 C 3.128906 -7.183594 3.464844 -7.105469 3.757813 -6.953125 C 4.046875 -6.796875 4.289063 -6.574219 4.476563 -6.285156 C 4.664063 -5.992188 4.8125 -5.636719 4.921875 -5.222656 C 5.027344 -4.800781 5.078125 -4.238281 5.082031 -3.53125 C 5.078125 -2.6875 4.992188 -2.007813 4.824219 -1.496094 C 4.648438 -0.976563 4.390625 -0.578125 4.050781 -0.300781 C 3.703125 -0.0195313 3.269531 0.117188 2.75 0.121094 C 2.054688 0.117188 1.515625 -0.128906 1.125 -0.621094 C 0.648438 -1.214844 0.410156 -2.183594 0.414063 -3.53125 Z M 1.320313 -3.53125 C 1.316406 -2.351563 1.453125 -1.570313 1.730469 -1.183594 C 2.003906 -0.792969 2.34375 -0.597656 2.75 -0.601563 C 3.148438 -0.597656 3.488281 -0.792969 3.765625 -1.1875 C 4.039063 -1.574219 4.175781 -2.355469 4.179688 -3.53125 C 4.175781 -4.707031 4.039063 -5.488281 3.765625 -5.878906 C 3.488281 -6.261719 3.144531 -6.457031 2.738281 -6.460938 C 2.332031 -6.457031 2.011719 -6.285156 1.773438 -5.945313 C 1.46875 -5.507813 1.316406 -4.703125 1.320313 -3.53125 Z M 1.320313 -3.53125 "/>
</symbol>
<symbol overflow="visible" id="glyph1-12">
<path style="stroke:none;" d="M 0.90625 0 L 0.90625 -1 L 1.910156 -1 L 1.910156 0 Z M 0.90625 0 "/>
</symbol>
<symbol overflow="visible" id="glyph1-13">
<path style="stroke:none;" d="M 5.035156 -0.84375 L 5.035156 0 L 0.304688 0 C 0.296875 -0.210938 0.328125 -0.414063 0.40625 -0.609375 C 0.523438 -0.929688 0.71875 -1.246094 0.984375 -1.5625 C 1.25 -1.871094 1.632813 -2.234375 2.132813 -2.648438 C 2.910156 -3.28125 3.433594 -3.785156 3.710938 -4.160156 C 3.980469 -4.535156 4.117188 -4.886719 4.121094 -5.21875 C 4.117188 -5.566406 3.992188 -5.859375 3.746094 -6.101563 C 3.496094 -6.335938 3.171875 -6.457031 2.773438 -6.460938 C 2.347656 -6.457031 2.011719 -6.328125 1.757813 -6.078125 C 1.5 -5.820313 1.371094 -5.46875 1.371094 -5.023438 L 0.46875 -5.117188 C 0.53125 -5.789063 0.761719 -6.304688 1.167969 -6.65625 C 1.566406 -7.007813 2.109375 -7.183594 2.792969 -7.1875 C 3.476563 -7.183594 4.019531 -6.992188 4.421875 -6.617188 C 4.820313 -6.234375 5.019531 -5.761719 5.023438 -5.199219 C 5.019531 -4.910156 4.960938 -4.628906 4.847656 -4.355469 C 4.726563 -4.074219 4.535156 -3.785156 4.265625 -3.480469 C 3.992188 -3.175781 3.539063 -2.753906 2.910156 -2.222656 C 2.378906 -1.777344 2.039063 -1.476563 1.894531 -1.320313 C 1.742188 -1.160156 1.621094 -1.003906 1.523438 -0.84375 Z M 5.035156 -0.84375 "/>
</symbol>
<symbol overflow="visible" id="glyph1-14">
<path style="stroke:none;" d="M 3.726563 0 L 2.847656 0 L 2.847656 -5.601563 C 2.636719 -5.398438 2.359375 -5.195313 2.015625 -4.992188 C 1.671875 -4.789063 1.363281 -4.636719 1.089844 -4.539063 L 1.089844 -5.390625 C 1.582031 -5.621094 2.011719 -5.898438 2.378906 -6.230469 C 2.746094 -6.554688 3.003906 -6.875 3.160156 -7.1875 L 3.726563 -7.1875 Z M 3.726563 0 "/>
</symbol>
<symbol overflow="visible" id="glyph1-15">
<path style="stroke:none;" d="M 0.742188 0 L 0.742188 -7.15625 L 2.167969 -7.15625 L 3.863281 -2.089844 C 4.015625 -1.617188 4.128906 -1.265625 4.203125 -1.03125 C 4.28125 -1.289063 4.410156 -1.671875 4.585938 -2.179688 L 6.296875 -7.15625 L 7.574219 -7.15625 L 7.574219 0 L 6.660156 0 L 6.660156 -5.992188 L 4.578125 0 L 3.726563 0 L 1.65625 -6.09375 L 1.65625 0 Z M 0.742188 0 "/>
</symbol>
<symbol overflow="visible" id="glyph1-16">
<path style="stroke:none;" d="M 0.734375 0 L 0.734375 -7.15625 L 1.679688 -7.15625 L 1.679688 -0.84375 L 5.203125 -0.84375 L 5.203125 0 Z M 0.734375 0 "/>
</symbol>
<symbol overflow="visible" id="glyph1-17">
<path style="stroke:none;" d="M 0.789063 0 L 0.789063 -7.15625 L 5.96875 -7.15625 L 5.96875 -6.3125 L 1.738281 -6.3125 L 1.738281 -4.121094 L 5.699219 -4.121094 L 5.699219 -3.28125 L 1.738281 -3.28125 L 1.738281 -0.84375 L 6.132813 -0.84375 L 6.132813 0 Z M 0.789063 0 "/>
</symbol>
<symbol overflow="visible" id="glyph1-18">
<path style="stroke:none;" d="M 4.042969 -0.640625 C 3.714844 -0.359375 3.398438 -0.164063 3.101563 -0.0546875 C 2.796875 0.0625 2.476563 0.117188 2.132813 0.117188 C 1.5625 0.117188 1.125 -0.0195313 0.820313 -0.300781 C 0.511719 -0.574219 0.355469 -0.929688 0.359375 -1.367188 C 0.355469 -1.617188 0.414063 -1.851563 0.53125 -2.0625 C 0.644531 -2.273438 0.796875 -2.441406 0.988281 -2.566406 C 1.171875 -2.691406 1.382813 -2.785156 1.621094 -2.855469 C 1.789063 -2.898438 2.050781 -2.945313 2.402344 -2.988281 C 3.113281 -3.074219 3.632813 -3.171875 3.96875 -3.289063 C 3.96875 -3.40625 3.972656 -3.484375 3.976563 -3.519531 C 3.972656 -3.875 3.890625 -4.128906 3.726563 -4.277344 C 3.5 -4.472656 3.164063 -4.570313 2.726563 -4.574219 C 2.308594 -4.570313 2.003906 -4.496094 1.808594 -4.355469 C 1.609375 -4.207031 1.464844 -3.953125 1.371094 -3.589844 L 0.511719 -3.707031 C 0.585938 -4.070313 0.714844 -4.367188 0.898438 -4.597656 C 1.074219 -4.820313 1.335938 -4.996094 1.675781 -5.121094 C 2.011719 -5.242188 2.402344 -5.300781 2.851563 -5.304688 C 3.292969 -5.300781 3.652344 -5.25 3.929688 -5.148438 C 4.203125 -5.042969 4.40625 -4.910156 4.539063 -4.753906 C 4.667969 -4.589844 4.757813 -4.390625 4.8125 -4.15625 C 4.839844 -4 4.855469 -3.730469 4.859375 -3.34375 L 4.859375 -2.171875 C 4.855469 -1.351563 4.875 -0.835938 4.914063 -0.621094 C 4.949219 -0.402344 5.023438 -0.195313 5.136719 0 L 4.21875 0 C 4.125 -0.179688 4.066406 -0.390625 4.042969 -0.640625 Z M 3.96875 -2.601563 C 3.648438 -2.46875 3.171875 -2.355469 2.535156 -2.269531 C 2.171875 -2.214844 1.914063 -2.15625 1.765625 -2.09375 C 1.613281 -2.023438 1.5 -1.929688 1.417969 -1.808594 C 1.335938 -1.679688 1.292969 -1.539063 1.296875 -1.390625 C 1.292969 -1.152344 1.382813 -0.957031 1.5625 -0.804688 C 1.738281 -0.644531 2 -0.566406 2.34375 -0.570313 C 2.679688 -0.566406 2.980469 -0.640625 3.246094 -0.792969 C 3.507813 -0.9375 3.699219 -1.140625 3.828125 -1.402344 C 3.917969 -1.597656 3.964844 -1.890625 3.96875 -2.28125 Z M 3.96875 -2.601563 "/>
</symbol>
<symbol overflow="visible" id="glyph1-19">
<path style="stroke:none;" d="M 0.308594 -1.546875 L 1.175781 -1.683594 C 1.222656 -1.332031 1.359375 -1.066406 1.582031 -0.882813 C 1.804688 -0.695313 2.117188 -0.601563 2.519531 -0.605469 C 2.921875 -0.601563 3.21875 -0.683594 3.417969 -0.851563 C 3.609375 -1.011719 3.707031 -1.207031 3.710938 -1.429688 C 3.707031 -1.625 3.621094 -1.78125 3.453125 -1.898438 C 3.328125 -1.976563 3.03125 -2.074219 2.554688 -2.195313 C 1.90625 -2.355469 1.457031 -2.496094 1.210938 -2.617188 C 0.960938 -2.734375 0.773438 -2.898438 0.644531 -3.113281 C 0.515625 -3.320313 0.449219 -3.554688 0.453125 -3.808594 C 0.449219 -4.039063 0.503906 -4.25 0.613281 -4.449219 C 0.71875 -4.644531 0.863281 -4.808594 1.046875 -4.941406 C 1.179688 -5.039063 1.363281 -5.125 1.601563 -5.199219 C 1.835938 -5.265625 2.089844 -5.300781 2.363281 -5.304688 C 2.765625 -5.300781 3.125 -5.242188 3.433594 -5.128906 C 3.742188 -5.007813 3.96875 -4.851563 4.117188 -4.652344 C 4.261719 -4.449219 4.363281 -4.179688 4.417969 -3.847656 L 3.558594 -3.730469 C 3.515625 -3.996094 3.402344 -4.203125 3.21875 -4.355469 C 3.027344 -4.5 2.765625 -4.574219 2.425781 -4.578125 C 2.019531 -4.574219 1.730469 -4.507813 1.5625 -4.378906 C 1.386719 -4.242188 1.300781 -4.085938 1.304688 -3.910156 C 1.300781 -3.792969 1.335938 -3.691406 1.410156 -3.601563 C 1.480469 -3.503906 1.59375 -3.425781 1.75 -3.367188 C 1.832031 -3.332031 2.089844 -3.257813 2.523438 -3.144531 C 3.144531 -2.976563 3.578125 -2.839844 3.824219 -2.734375 C 4.070313 -2.628906 4.261719 -2.476563 4.402344 -2.273438 C 4.539063 -2.070313 4.609375 -1.820313 4.613281 -1.523438 C 4.609375 -1.230469 4.523438 -0.953125 4.355469 -0.695313 C 4.183594 -0.433594 3.9375 -0.234375 3.617188 -0.09375 C 3.289063 0.046875 2.925781 0.117188 2.523438 0.117188 C 1.847656 0.117188 1.335938 -0.0195313 0.984375 -0.300781 C 0.628906 -0.578125 0.402344 -0.996094 0.308594 -1.546875 Z M 0.308594 -1.546875 "/>
</symbol>
<symbol overflow="visible" id="glyph1-20">
<path style="stroke:none;" d="M 0.664063 -6.148438 L 0.664063 -7.15625 L 1.542969 -7.15625 L 1.542969 -6.148438 Z M 0.664063 0 L 0.664063 -5.1875 L 1.542969 -5.1875 L 1.542969 0 Z M 0.664063 0 "/>
</symbol>
<symbol overflow="visible" id="glyph1-21">
<path style="stroke:none;" d="M 0.660156 0 L 0.660156 -5.1875 L 1.445313 -5.1875 L 1.445313 -4.457031 C 1.605469 -4.710938 1.820313 -4.914063 2.09375 -5.070313 C 2.359375 -5.222656 2.667969 -5.300781 3.015625 -5.304688 C 3.398438 -5.300781 3.714844 -5.222656 3.960938 -5.0625 C 4.207031 -4.902344 4.378906 -4.679688 4.484375 -4.394531 C 4.890625 -5 5.425781 -5.300781 6.085938 -5.304688 C 6.597656 -5.300781 6.992188 -5.160156 7.269531 -4.875 C 7.546875 -4.589844 7.6875 -4.148438 7.6875 -3.558594 L 7.6875 0 L 6.8125 0 L 6.8125 -3.265625 C 6.808594 -3.613281 6.78125 -3.867188 6.726563 -4.023438 C 6.667969 -4.175781 6.5625 -4.300781 6.414063 -4.398438 C 6.261719 -4.488281 6.085938 -4.535156 5.890625 -4.539063 C 5.523438 -4.535156 5.222656 -4.414063 4.980469 -4.175781 C 4.738281 -3.929688 4.617188 -3.542969 4.617188 -3.011719 L 4.617188 0 L 3.742188 0 L 3.742188 -3.367188 C 3.738281 -3.753906 3.667969 -4.046875 3.527344 -4.246094 C 3.382813 -4.4375 3.144531 -4.535156 2.820313 -4.539063 C 2.570313 -4.535156 2.34375 -4.46875 2.136719 -4.34375 C 1.921875 -4.210938 1.769531 -4.023438 1.679688 -3.773438 C 1.582031 -3.523438 1.535156 -3.160156 1.539063 -2.691406 L 1.539063 0 Z M 0.660156 0 "/>
</symbol>
<symbol overflow="visible" id="glyph1-22">
<path style="stroke:none;" d="M 0.0742188 0 L 1.96875 -2.695313 L 0.214844 -5.1875 L 1.3125 -5.1875 L 2.109375 -3.96875 C 2.257813 -3.734375 2.375 -3.542969 2.46875 -3.390625 C 2.609375 -3.601563 2.742188 -3.792969 2.867188 -3.960938 L 3.742188 -5.1875 L 4.789063 -5.1875 L 3 -2.742188 L 4.925781 0 L 3.847656 0 L 2.78125 -1.609375 L 2.5 -2.046875 L 1.136719 0 Z M 0.0742188 0 "/>
</symbol>
<symbol overflow="visible" id="glyph2-0">
<path style="stroke:none;" d="M 0 -1.25 L -6.25 -1.25 L -6.25 -6.25 L 0 -6.25 Z M -0.15625 -1.40625 L -0.15625 -6.09375 L -6.09375 -6.09375 L -6.09375 -1.40625 Z M -0.15625 -1.40625 "/>
</symbol>
<symbol overflow="visible" id="glyph2-1">
<path style="stroke:none;" d="M 0 -0.773438 L -7.15625 -0.773438 L -7.15625 -3.238281 C -7.152344 -3.789063 -7.121094 -4.214844 -7.054688 -4.511719 C -6.960938 -4.917969 -6.789063 -5.265625 -6.542969 -5.5625 C -6.21875 -5.9375 -5.808594 -6.21875 -5.316406 -6.40625 C -4.816406 -6.589844 -4.25 -6.683594 -3.617188 -6.6875 C -3.070313 -6.683594 -2.589844 -6.621094 -2.171875 -6.496094 C -1.75 -6.367188 -1.402344 -6.203125 -1.128906 -6.007813 C -0.851563 -5.804688 -0.636719 -5.589844 -0.480469 -5.355469 C -0.320313 -5.121094 -0.199219 -4.835938 -0.121094 -4.503906 C -0.0390625 -4.167969 0 -3.785156 0 -3.355469 Z M -0.84375 -1.71875 L -0.84375 -3.246094 C -0.84375 -3.714844 -0.886719 -4.082031 -0.976563 -4.355469 C -1.0625 -4.621094 -1.1875 -4.835938 -1.347656 -5 C -1.570313 -5.21875 -1.871094 -5.394531 -2.25 -5.523438 C -2.628906 -5.644531 -3.089844 -5.707031 -3.632813 -5.710938 C -4.382813 -5.707031 -4.957031 -5.585938 -5.359375 -5.34375 C -5.757813 -5.097656 -6.027344 -4.796875 -6.167969 -4.449219 C -6.261719 -4.191406 -6.308594 -3.785156 -6.3125 -3.222656 L -6.3125 -1.71875 Z M -0.84375 -1.71875 "/>
</symbol>
<symbol overflow="visible" id="glyph2-2">
<path style="stroke:none;" d="M -1.667969 -4.210938 L -1.558594 -5.117188 C -1.027344 -4.96875 -0.613281 -4.703125 -0.320313 -4.320313 C -0.0273438 -3.929688 0.117188 -3.4375 0.117188 -2.835938 C 0.117188 -2.078125 -0.113281 -1.476563 -0.582031 -1.03125 C -1.046875 -0.585938 -1.703125 -0.363281 -2.546875 -0.367188 C -3.417969 -0.363281 -4.097656 -0.585938 -4.582031 -1.039063 C -5.0625 -1.484375 -5.300781 -2.070313 -5.304688 -2.789063 C -5.300781 -3.480469 -5.066406 -4.046875 -4.59375 -4.488281 C -4.121094 -4.925781 -3.457031 -5.144531 -2.601563 -5.148438 C -2.546875 -5.144531 -2.46875 -5.140625 -2.367188 -5.140625 L -2.367188 -1.273438 C -1.796875 -1.304688 -1.359375 -1.46875 -1.058594 -1.757813 C -0.753906 -2.046875 -0.601563 -2.40625 -0.605469 -2.84375 C -0.601563 -3.160156 -0.6875 -3.433594 -0.859375 -3.664063 C -1.027344 -3.890625 -1.296875 -4.074219 -1.667969 -4.210938 Z M -3.089844 -1.324219 L -3.089844 -4.21875 C -3.523438 -4.179688 -3.851563 -4.066406 -4.070313 -3.886719 C -4.40625 -3.605469 -4.574219 -3.242188 -4.578125 -2.796875 C -4.574219 -2.390625 -4.441406 -2.050781 -4.171875 -1.777344 C -3.902344 -1.5 -3.539063 -1.351563 -3.089844 -1.324219 Z M -3.089844 -1.324219 "/>
</symbol>
<symbol overflow="visible" id="glyph2-3">
<path style="stroke:none;" d="M 0 -0.660156 L -5.1875 -0.660156 L -5.1875 -1.449219 L -4.449219 -1.449219 C -5.015625 -1.828125 -5.300781 -2.378906 -5.304688 -3.101563 C -5.300781 -3.410156 -5.246094 -3.699219 -5.132813 -3.960938 C -5.019531 -4.222656 -4.871094 -4.417969 -4.691406 -4.550781 C -4.507813 -4.679688 -4.292969 -4.769531 -4.042969 -4.824219 C -3.878906 -4.855469 -3.59375 -4.875 -3.1875 -4.875 L 0 -4.875 L 0 -3.992188 L -3.152344 -3.992188 C -3.511719 -3.992188 -3.777344 -3.960938 -3.957031 -3.890625 C -4.128906 -3.820313 -4.269531 -3.699219 -4.378906 -3.527344 C -4.480469 -3.351563 -4.535156 -3.144531 -4.539063 -2.914063 C -4.535156 -2.539063 -4.417969 -2.21875 -4.183594 -1.945313 C -3.945313 -1.671875 -3.492188 -1.535156 -2.832031 -1.539063 L 0 -1.539063 Z M 0 -0.660156 "/>
</symbol>
<symbol overflow="visible" id="glyph2-4">
<path style="stroke:none;" d="M -1.546875 -0.308594 L -1.683594 -1.175781 C -1.332031 -1.222656 -1.066406 -1.359375 -0.882813 -1.582031 C -0.695313 -1.804688 -0.601563 -2.117188 -0.605469 -2.519531 C -0.601563 -2.921875 -0.683594 -3.21875 -0.851563 -3.417969 C -1.011719 -3.609375 -1.207031 -3.707031 -1.429688 -3.710938 C -1.625 -3.707031 -1.78125 -3.621094 -1.898438 -3.453125 C -1.976563 -3.328125 -2.074219 -3.03125 -2.195313 -2.554688 C -2.355469 -1.90625 -2.496094 -1.457031 -2.617188 -1.210938 C -2.734375 -0.960938 -2.898438 -0.773438 -3.113281 -0.644531 C -3.320313 -0.515625 -3.554688 -0.449219 -3.808594 -0.453125 C -4.039063 -0.449219 -4.25 -0.503906 -4.449219 -0.613281 C -4.644531 -0.71875 -4.808594 -0.863281 -4.941406 -1.046875 C -5.039063 -1.179688 -5.125 -1.363281 -5.199219 -1.601563 C -5.265625 -1.835938 -5.300781 -2.089844 -5.304688 -2.363281 C -5.300781 -2.765625 -5.242188 -3.125 -5.128906 -3.433594 C -5.007813 -3.742188 -4.851563 -3.96875 -4.652344 -4.117188 C -4.449219 -4.261719 -4.179688 -4.363281 -3.847656 -4.417969 L -3.730469 -3.558594 C -3.996094 -3.515625 -4.203125 -3.402344 -4.355469 -3.21875 C -4.5 -3.03125 -4.574219 -2.769531 -4.578125 -2.425781 C -4.574219 -2.019531 -4.507813 -1.730469 -4.378906 -1.5625 C -4.242188 -1.386719 -4.085938 -1.300781 -3.910156 -1.304688 C -3.792969 -1.300781 -3.691406 -1.335938 -3.601563 -1.410156 C -3.503906 -1.480469 -3.425781 -1.59375 -3.367188 -1.75 C -3.332031 -1.832031 -3.257813 -2.089844 -3.144531 -2.523438 C -2.976563 -3.144531 -2.839844 -3.578125 -2.734375 -3.824219 C -2.628906 -4.070313 -2.476563 -4.261719 -2.273438 -4.402344 C -2.070313 -4.539063 -1.820313 -4.609375 -1.523438 -4.613281 C -1.226563 -4.609375 -0.949219 -4.523438 -0.695313 -4.355469 C -0.433594 -4.183594 -0.234375 -3.9375 -0.09375 -3.617188 C 0.046875 -3.289063 0.117188 -2.925781 0.117188 -2.523438 C 0.117188 -1.847656 -0.0195313 -1.335938 -0.300781 -0.984375 C -0.578125 -0.628906 -0.996094 -0.402344 -1.546875 -0.308594 Z M -1.546875 -0.308594 "/>
</symbol>
<symbol overflow="visible" id="glyph2-5">
<path style="stroke:none;" d="M -6.148438 -0.664063 L -7.15625 -0.664063 L -7.15625 -1.542969 L -6.148438 -1.542969 Z M 0 -0.664063 L -5.1875 -0.664063 L -5.1875 -1.542969 L 0 -1.542969 Z M 0 -0.664063 "/>
</symbol>
<symbol overflow="visible" id="glyph2-6">
<path style="stroke:none;" d="M -0.785156 -2.578125 L -0.0078125 -2.703125 C 0.046875 -2.453125 0.0703125 -2.234375 0.0703125 -2.039063 C 0.0703125 -1.71875 0.0195313 -1.46875 -0.0820313 -1.296875 C -0.183594 -1.117188 -0.316406 -0.996094 -0.480469 -0.925781 C -0.644531 -0.855469 -0.988281 -0.820313 -1.519531 -0.820313 L -4.5 -0.820313 L -4.5 -0.175781 L -5.1875 -0.175781 L -5.1875 -0.820313 L -6.46875 -0.820313 L -6.996094 -1.695313 L -5.1875 -1.695313 L -5.1875 -2.578125 L -4.5 -2.578125 L -4.5 -1.695313 L -1.46875 -1.695313 C -1.214844 -1.691406 -1.054688 -1.707031 -0.984375 -1.742188 C -0.914063 -1.769531 -0.855469 -1.820313 -0.8125 -1.890625 C -0.769531 -1.957031 -0.75 -2.058594 -0.75 -2.191406 C -0.75 -2.289063 -0.761719 -2.417969 -0.785156 -2.578125 Z M -0.785156 -2.578125 "/>
</symbol>
<symbol overflow="visible" id="glyph2-7">
<path style="stroke:none;" d="M 1.996094 -0.621094 L 1.171875 -0.523438 C 1.222656 -0.710938 1.246094 -0.878906 1.25 -1.023438 C 1.246094 -1.21875 1.214844 -1.375 1.152344 -1.496094 C 1.085938 -1.609375 0.996094 -1.707031 0.878906 -1.78125 C 0.789063 -1.835938 0.570313 -1.925781 0.226563 -2.050781 C 0.175781 -2.066406 0.105469 -2.089844 0.0117188 -2.128906 L -5.1875 -0.160156 L -5.1875 -1.109375 L -2.183594 -2.1875 C -1.796875 -2.324219 -1.394531 -2.449219 -0.980469 -2.5625 C -1.378906 -2.660156 -1.773438 -2.78125 -2.164063 -2.925781 L -5.1875 -4.03125 L -5.1875 -4.914063 L 0.0898438 -2.9375 C 0.652344 -2.722656 1.046875 -2.558594 1.265625 -2.445313 C 1.554688 -2.285156 1.765625 -2.105469 1.902344 -1.90625 C 2.035156 -1.703125 2.101563 -1.464844 2.105469 -1.1875 C 2.101563 -1.015625 2.066406 -0.828125 1.996094 -0.621094 Z M 1.996094 -0.621094 "/>
</symbol>
<symbol overflow="visible" id="glyph2-8">
<path style="stroke:none;" d="M -3.53125 -0.414063 C -4.375 -0.410156 -5.054688 -0.496094 -5.574219 -0.675781 C -6.085938 -0.847656 -6.484375 -1.109375 -6.765625 -1.453125 C -7.042969 -1.796875 -7.183594 -2.226563 -7.1875 -2.75 C -7.183594 -3.128906 -7.105469 -3.464844 -6.953125 -3.757813 C -6.796875 -4.046875 -6.574219 -4.289063 -6.285156 -4.476563 C -5.992188 -4.664063 -5.636719 -4.8125 -5.222656 -4.921875 C -4.800781 -5.027344 -4.238281 -5.078125 -3.53125 -5.082031 C -2.6875 -5.078125 -2.007813 -4.992188 -1.496094 -4.824219 C -0.976563 -4.648438 -0.578125 -4.390625 -0.300781 -4.050781 C -0.0195313 -3.703125 0.117188 -3.269531 0.121094 -2.75 C 0.117188 -2.054688 -0.128906 -1.515625 -0.621094 -1.125 C -1.214844 -0.648438 -2.183594 -0.410156 -3.53125 -0.414063 Z M -3.53125 -1.320313 C -2.351563 -1.316406 -1.570313 -1.453125 -1.183594 -1.730469 C -0.792969 -2.003906 -0.597656 -2.34375 -0.601563 -2.75 C -0.597656 -3.148438 -0.792969 -3.488281 -1.1875 -3.765625 C -1.574219 -4.039063 -2.355469 -4.175781 -3.53125 -4.179688 C -4.707031 -4.175781 -5.488281 -4.039063 -5.878906 -3.765625 C -6.261719 -3.488281 -6.457031 -3.144531 -6.460938 -2.738281 C -6.457031 -2.332031 -6.285156 -2.011719 -5.945313 -1.773438 C -5.507813 -1.46875 -4.703125 -1.316406 -3.53125 -1.320313 Z M -3.53125 -1.320313 "/>
</symbol>
<symbol overflow="visible" id="glyph2-9">
<path style="stroke:none;" d="M -1.875 -0.414063 L -1.953125 -1.339844 C -1.5 -1.40625 -1.164063 -1.5625 -0.941406 -1.8125 C -0.710938 -2.058594 -0.597656 -2.359375 -0.601563 -2.714844 C -0.597656 -3.136719 -0.757813 -3.496094 -1.078125 -3.789063 C -1.398438 -4.078125 -1.820313 -4.222656 -2.347656 -4.226563 C -2.847656 -4.222656 -3.242188 -4.082031 -3.535156 -3.804688 C -3.820313 -3.519531 -3.964844 -3.152344 -3.96875 -2.699219 C -3.964844 -2.414063 -3.902344 -2.160156 -3.777344 -1.933594 C -3.648438 -1.707031 -3.480469 -1.527344 -3.277344 -1.398438 L -3.382813 -0.570313 L -7.0625 -1.265625 L -7.0625 -4.824219 L -6.21875 -4.824219 L -6.21875 -1.96875 L -4.296875 -1.582031 C -4.59375 -2.011719 -4.746094 -2.460938 -4.746094 -2.933594 C -4.746094 -3.554688 -4.527344 -4.082031 -4.09375 -4.515625 C -3.660156 -4.941406 -3.105469 -5.15625 -2.425781 -5.160156 C -1.777344 -5.15625 -1.214844 -4.96875 -0.746094 -4.59375 C -0.167969 -4.132813 0.117188 -3.503906 0.121094 -2.714844 C 0.117188 -2.058594 -0.0625 -1.527344 -0.425781 -1.121094 C -0.789063 -0.707031 -1.273438 -0.472656 -1.875 -0.414063 Z M -1.875 -0.414063 "/>
</symbol>
<symbol overflow="visible" id="glyph2-10">
<path style="stroke:none;" d="M 0 -3.726563 L 0 -2.847656 L -5.601563 -2.847656 C -5.398438 -2.636719 -5.195313 -2.359375 -4.992188 -2.015625 C -4.789063 -1.671875 -4.636719 -1.363281 -4.539063 -1.089844 L -5.390625 -1.089844 C -5.621094 -1.582031 -5.898438 -2.011719 -6.230469 -2.378906 C -6.554688 -2.746094 -6.875 -3.003906 -7.1875 -3.160156 L -7.1875 -3.726563 Z M 0 -3.726563 "/>
</symbol>
</g>
<clipPath id="clip1">
  <path d="M 49.199219 289 L 55 289 L 55 290 L 49.199219 290 Z M 49.199219 289 "/>
</clipPath>
<clipPath id="clip2">
  <path d="M 49.199219 117 L 399 117 L 399 291 L 49.199219 291 Z M 49.199219 117 "/>
</clipPath>
<clipPath id="clip3">
  <path d="M 49.199219 124 L 399 124 L 399 291 L 49.199219 291 Z M 49.199219 124 "/>
</clipPath>
<clipPath id="clip4">
  <path d="M 261 49.199219 L 406.800781 49.199219 L 406.800781 86 L 261 86 Z M 261 49.199219 "/>
</clipPath>
<clipPath id="clip5">
  <path d="M 260 49.199219 L 406.800781 49.199219 L 406.800781 86 L 260 86 Z M 260 49.199219 "/>
</clipPath>
</defs>
<g id="surface196">
<rect x="0" y="0" width="432" height="360" style="fill:rgb(100%,100%,100%);fill-opacity:1;stroke:none;"/>
<g style="fill:rgb(0%,0%,0%);fill-opacity:1;">
  <use xlink:href="#glyph0-1" x="190.992188" y="28.894531"/>
  <use xlink:href="#glyph0-2" x="198.322266" y="28.894531"/>
  <use xlink:href="#glyph0-3" x="201.65625" y="28.894531"/>
  <use xlink:href="#glyph0-4" x="208.330078" y="28.894531"/>
  <use xlink:href="#glyph0-5" x="215.003906" y="28.894531"/>
  <use xlink:href="#glyph0-6" x="221.677734" y="28.894531"/>
  <use xlink:href="#glyph0-7" x="226.347656" y="28.894531"/>
  <use xlink:href="#glyph0-8" x="230.34375" y="28.894531"/>
  <use xlink:href="#glyph0-1" x="233.677734" y="28.894531"/>
  <use xlink:href="#glyph0-9" x="241.007813" y="28.894531"/>
  <use xlink:href="#glyph0-10" x="249.011719" y="28.894531"/>
  <use xlink:href="#glyph0-11" x="256.341797" y="28.894531"/>
</g>
<g style="fill:rgb(0%,0%,0%);fill-opacity:1;">
  <use xlink:href="#glyph1-1" x="206.875" y="344.398438"/>
  <use xlink:href="#glyph1-2" x="209.09668" y="344.398438"/>
  <use xlink:href="#glyph1-3" x="214.658203" y="344.398438"/>
  <use xlink:href="#glyph1-4" x="220.219727" y="344.398438"/>
  <use xlink:href="#glyph1-5" x="222.998047" y="344.398438"/>
  <use xlink:href="#glyph1-6" x="226.328125" y="344.398438"/>
  <use xlink:href="#glyph1-7" x="231.889648" y="344.398438"/>
  <use xlink:href="#glyph1-8" x="234.667969" y="344.398438"/>
  <use xlink:href="#glyph1-5" x="240.229492" y="344.398438"/>
  <use xlink:href="#glyph1-9" x="243.55957" y="344.398438"/>
</g>
<g style="fill:rgb(0%,0%,0%);fill-opacity:1;">
  <use xlink:href="#glyph2-1" x="10.800781" y="190.671875"/>
  <use xlink:href="#glyph2-2" x="10.800781" y="183.450195"/>
  <use xlink:href="#glyph2-3" x="10.800781" y="177.888672"/>
  <use xlink:href="#glyph2-4" x="10.800781" y="172.327148"/>
  <use xlink:href="#glyph2-5" x="10.800781" y="167.327148"/>
  <use xlink:href="#glyph2-6" x="10.800781" y="165.105469"/>
  <use xlink:href="#glyph2-7" x="10.800781" y="162.327148"/>
</g>
<path style="fill:none;stroke-width:0.75;stroke-linecap:round;stroke-linejoin:round;stroke:rgb(0%,0%,0%);stroke-opacity:1;stroke-miterlimit:10;" d="M 62.445313 298.800781 L 393.554688 298.800781 "/>
<path style="fill:none;stroke-width:0.75;stroke-linecap:round;stroke-linejoin:round;stroke:rgb(0%,0%,0%);stroke-opacity:1;stroke-miterlimit:10;" d="M 62.445313 298.800781 L 62.445313 304.800781 "/>
<path style="fill:none;stroke-width:0.75;stroke-linecap:round;stroke-linejoin:round;stroke:rgb(0%,0%,0%);stroke-opacity:1;stroke-miterlimit:10;" d="M 145.222656 298.800781 L 145.222656 304.800781 "/>
<path style="fill:none;stroke-width:0.75;stroke-linecap:round;stroke-linejoin:round;stroke:rgb(0%,0%,0%);stroke-opacity:1;stroke-miterlimit:10;" d="M 228 298.800781 L 228 304.800781 "/>
<path style="fill:none;stroke-width:0.75;stroke-linecap:round;stroke-linejoin:round;stroke:rgb(0%,0%,0%);stroke-opacity:1;stroke-miterlimit:10;" d="M 310.777344 298.800781 L 310.777344 304.800781 "/>
<path style="fill:none;stroke-width:0.75;stroke-linecap:round;stroke-linejoin:round;stroke:rgb(0%,0%,0%);stroke-opacity:1;stroke-miterlimit:10;" d="M 393.554688 298.800781 L 393.554688 304.800781 "/>
<g style="fill:rgb(0%,0%,0%);fill-opacity:1;">
  <use xlink:href="#glyph1-10" x="53.828125" y="320.398438"/>
  <use xlink:href="#glyph1-11" x="57.158203" y="320.398438"/>
  <use xlink:href="#glyph1-12" x="62.719727" y="320.398438"/>
  <use xlink:href="#glyph1-13" x="65.498047" y="320.398438"/>
</g>
<g style="fill:rgb(0%,0%,0%);fill-opacity:1;">
  <use xlink:href="#glyph1-10" x="136.605469" y="320.398438"/>
  <use xlink:href="#glyph1-11" x="139.935547" y="320.398438"/>
  <use xlink:href="#glyph1-12" x="145.49707" y="320.398438"/>
  <use xlink:href="#glyph1-14" x="148.275391" y="320.398438"/>
</g>
<g style="fill:rgb(0%,0%,0%);fill-opacity:1;">
  <use xlink:href="#glyph1-11" x="221.050781" y="320.398438"/>
  <use xlink:href="#glyph1-12" x="226.612305" y="320.398438"/>
  <use xlink:href="#glyph1-11" x="229.390625" y="320.398438"/>
</g>
<g style="fill:rgb(0%,0%,0%);fill-opacity:1;">
  <use xlink:href="#glyph1-11" x="303.828125" y="320.398438"/>
  <use xlink:href="#glyph1-12" x="309.389648" y="320.398438"/>
  <use xlink:href="#glyph1-14" x="312.167969" y="320.398438"/>
</g>
<g style="fill:rgb(0%,0%,0%);fill-opacity:1;">
  <use xlink:href="#glyph1-11" x="386.605469" y="320.398438"/>
  <use xlink:href="#glyph1-12" x="392.166992" y="320.398438"/>
  <use xlink:href="#glyph1-13" x="394.945313" y="320.398438"/>
</g>
<path style="fill:none;stroke-width:0.75;stroke-linecap:round;stroke-linejoin:round;stroke:rgb(0%,0%,0%);stroke-opacity:1;stroke-miterlimit:10;" d="M 49.199219 289.554688 L 49.199219 59.601563 "/>
<path style="fill:none;stroke-width:0.75;stroke-linecap:round;stroke-linejoin:round;stroke:rgb(0%,0%,0%);stroke-opacity:1;stroke-miterlimit:10;" d="M 49.199219 289.554688 L 43.199219 289.554688 "/>
<path style="fill:none;stroke-width:0.75;stroke-linecap:round;stroke-linejoin:round;stroke:rgb(0%,0%,0%);stroke-opacity:1;stroke-miterlimit:10;" d="M 49.199219 212.90625 L 43.199219 212.90625 "/>
<path style="fill:none;stroke-width:0.75;stroke-linecap:round;stroke-linejoin:round;stroke:rgb(0%,0%,0%);stroke-opacity:1;stroke-miterlimit:10;" d="M 49.199219 136.253906 L 43.199219 136.253906 "/>
<path style="fill:none;stroke-width:0.75;stroke-linecap:round;stroke-linejoin:round;stroke:rgb(0%,0%,0%);stroke-opacity:1;stroke-miterlimit:10;" d="M 49.199219 59.601563 L 43.199219 59.601563 "/>
<g style="fill:rgb(0%,0%,0%);fill-opacity:1;">
  <use xlink:href="#glyph2-8" x="34.800781" y="292.335938"/>
</g>
<g style="fill:rgb(0%,0%,0%);fill-opacity:1;">
  <use xlink:href="#glyph2-9" x="34.800781" y="215.6875"/>
</g>
<g style="fill:rgb(0%,0%,0%);fill-opacity:1;">
  <use xlink:href="#glyph2-10" x="34.800781" y="141.816406"/>
  <use xlink:href="#glyph2-8" x="34.800781" y="136.254883"/>
</g>
<g style="fill:rgb(0%,0%,0%);fill-opacity:1;">
  <use xlink:href="#glyph2-10" x="34.800781" y="65.164063"/>
  <use xlink:href="#glyph2-9" x="34.800781" y="59.602539"/>
</g>
<g clip-path="url(#clip1)" clip-rule="nonzero">
<path style="fill:none;stroke-width:0.75;stroke-linecap:round;stroke-linejoin:round;stroke:rgb(100%,100%,100%);stroke-opacity:1;stroke-miterlimit:10;" d="M 45.890625 289.554688 L 54.167969 289.554688 Z M 45.890625 289.554688 "/>
</g>
<path style="fill-rule:nonzero;fill:rgb(73.72549%,50.196078%,74.117647%);fill-opacity:1;stroke-width:0.75;stroke-linecap:round;stroke-linejoin:round;stroke:rgb(100%,100%,100%);stroke-opacity:1;stroke-miterlimit:10;" d="M 54.167969 289.554688 L 62.445313 289.554688 L 62.445313 288.945313 L 54.167969 288.945313 Z M 54.167969 289.554688 "/>
<path style="fill:none;stroke-width:0.75;stroke-linecap:round;stroke-linejoin:round;stroke:rgb(100%,100%,100%);stroke-opacity:1;stroke-miterlimit:10;" d="M 62.445313 289.554688 L 70.722656 289.554688 Z M 62.445313 289.554688 "/>
<path style="fill-rule:nonzero;fill:rgb(73.72549%,50.196078%,74.117647%);fill-opacity:1;stroke-width:0.75;stroke-linecap:round;stroke-linejoin:round;stroke:rgb(100%,100%,100%);stroke-opacity:1;stroke-miterlimit:10;" d="M 70.722656 289.554688 L 79 289.554688 L 79 288.945313 L 70.722656 288.945313 Z M 70.722656 289.554688 "/>
<path style="fill-rule:nonzero;fill:rgb(73.72549%,50.196078%,74.117647%);fill-opacity:1;stroke-width:0.75;stroke-linecap:round;stroke-linejoin:round;stroke:rgb(100%,100%,100%);stroke-opacity:1;stroke-miterlimit:10;" d="M 79 289.554688 L 87.277344 289.554688 L 87.277344 288.945313 L 79 288.945313 Z M 79 289.554688 "/>
<path style="fill-rule:nonzero;fill:rgb(73.72549%,50.196078%,74.117647%);fill-opacity:1;stroke-width:0.75;stroke-linecap:round;stroke-linejoin:round;stroke:rgb(100%,100%,100%);stroke-opacity:1;stroke-miterlimit:10;" d="M 87.277344 289.554688 L 95.554688 289.554688 L 95.554688 288.945313 L 87.277344 288.945313 Z M 87.277344 289.554688 "/>
<path style="fill-rule:nonzero;fill:rgb(73.72549%,50.196078%,74.117647%);fill-opacity:1;stroke-width:0.75;stroke-linecap:round;stroke-linejoin:round;stroke:rgb(100%,100%,100%);stroke-opacity:1;stroke-miterlimit:10;" d="M 95.554688 289.554688 L 103.832031 289.554688 L 103.832031 288.945313 L 95.554688 288.945313 Z M 95.554688 289.554688 "/>
<path style="fill-rule:nonzero;fill:rgb(73.72549%,50.196078%,74.117647%);fill-opacity:1;stroke-width:0.75;stroke-linecap:round;stroke-linejoin:round;stroke:rgb(100%,100%,100%);stroke-opacity:1;stroke-miterlimit:10;" d="M 103.832031 289.554688 L 112.109375 289.554688 L 112.109375 287.726563 L 103.832031 287.726563 Z M 103.832031 289.554688 "/>
<path style="fill-rule:nonzero;fill:rgb(73.72549%,50.196078%,74.117647%);fill-opacity:1;stroke-width:0.75;stroke-linecap:round;stroke-linejoin:round;stroke:rgb(100%,100%,100%);stroke-opacity:1;stroke-miterlimit:10;" d="M 112.109375 289.554688 L 120.386719 289.554688 L 120.386719 287.117188 L 112.109375 287.117188 Z M 112.109375 289.554688 "/>
<path style="fill-rule:nonzero;fill:rgb(73.72549%,50.196078%,74.117647%);fill-opacity:1;stroke-width:0.75;stroke-linecap:round;stroke-linejoin:round;stroke:rgb(100%,100%,100%);stroke-opacity:1;stroke-miterlimit:10;" d="M 120.390625 289.554688 L 128.667969 289.554688 L 128.667969 285.894531 L 120.390625 285.894531 Z M 120.390625 289.554688 "/>
<path style="fill-rule:nonzero;fill:rgb(73.72549%,50.196078%,74.117647%);fill-opacity:1;stroke-width:0.75;stroke-linecap:round;stroke-linejoin:round;stroke:rgb(100%,100%,100%);stroke-opacity:1;stroke-miterlimit:10;" d="M 128.667969 289.554688 L 136.945313 289.554688 L 136.945313 288.335938 L 128.667969 288.335938 Z M 128.667969 289.554688 "/>
<path style="fill-rule:nonzero;fill:rgb(73.72549%,50.196078%,74.117647%);fill-opacity:1;stroke-width:0.75;stroke-linecap:round;stroke-linejoin:round;stroke:rgb(100%,100%,100%);stroke-opacity:1;stroke-miterlimit:10;" d="M 136.945313 289.554688 L 145.222656 289.554688 L 145.222656 287.117188 L 136.945313 287.117188 Z M 136.945313 289.554688 "/>
<path style="fill-rule:nonzero;fill:rgb(73.72549%,50.196078%,74.117647%);fill-opacity:1;stroke-width:0.75;stroke-linecap:round;stroke-linejoin:round;stroke:rgb(100%,100%,100%);stroke-opacity:1;stroke-miterlimit:10;" d="M 145.222656 289.554688 L 153.5 289.554688 L 153.5 283.457031 L 145.222656 283.457031 Z M 145.222656 289.554688 "/>
<path style="fill-rule:nonzero;fill:rgb(73.72549%,50.196078%,74.117647%);fill-opacity:1;stroke-width:0.75;stroke-linecap:round;stroke-linejoin:round;stroke:rgb(100%,100%,100%);stroke-opacity:1;stroke-miterlimit:10;" d="M 153.5 289.554688 L 161.777344 289.554688 L 161.777344 279.1875 L 153.5 279.1875 Z M 153.5 289.554688 "/>
<path style="fill-rule:nonzero;fill:rgb(73.72549%,50.196078%,74.117647%);fill-opacity:1;stroke-width:0.75;stroke-linecap:round;stroke-linejoin:round;stroke:rgb(100%,100%,100%);stroke-opacity:1;stroke-miterlimit:10;" d="M 161.777344 289.554688 L 170.054688 289.554688 L 170.054688 273.089844 L 161.777344 273.089844 Z M 161.777344 289.554688 "/>
<path style="fill-rule:nonzero;fill:rgb(73.72549%,50.196078%,74.117647%);fill-opacity:1;stroke-width:0.75;stroke-linecap:round;stroke-linejoin:round;stroke:rgb(100%,100%,100%);stroke-opacity:1;stroke-miterlimit:10;" d="M 170.054688 289.554688 L 178.332031 289.554688 L 178.332031 271.261719 L 170.054688 271.261719 Z M 170.054688 289.554688 "/>
<path style="fill-rule:nonzero;fill:rgb(73.72549%,50.196078%,74.117647%);fill-opacity:1;stroke-width:0.75;stroke-linecap:round;stroke-linejoin:round;stroke:rgb(100%,100%,100%);stroke-opacity:1;stroke-miterlimit:10;" d="M 178.332031 289.554688 L 186.609375 289.554688 L 186.609375 254.1875 L 178.332031 254.1875 Z M 178.332031 289.554688 "/>
<path style="fill-rule:nonzero;fill:rgb(73.72549%,50.196078%,74.117647%);fill-opacity:1;stroke-width:0.75;stroke-linecap:round;stroke-linejoin:round;stroke:rgb(100%,100%,100%);stroke-opacity:1;stroke-miterlimit:10;" d="M 186.609375 289.554688 L 194.886719 289.554688 L 194.886719 245.039063 L 186.609375 245.039063 Z M 186.609375 289.554688 "/>
<path style="fill-rule:nonzero;fill:rgb(73.72549%,50.196078%,74.117647%);fill-opacity:1;stroke-width:0.75;stroke-linecap:round;stroke-linejoin:round;stroke:rgb(100%,100%,100%);stroke-opacity:1;stroke-miterlimit:10;" d="M 194.890625 289.554688 L 203.167969 289.554688 L 203.167969 206.011719 L 194.890625 206.011719 Z M 194.890625 289.554688 "/>
<path style="fill-rule:nonzero;fill:rgb(73.72549%,50.196078%,74.117647%);fill-opacity:1;stroke-width:0.75;stroke-linecap:round;stroke-linejoin:round;stroke:rgb(100%,100%,100%);stroke-opacity:1;stroke-miterlimit:10;" d="M 203.167969 289.554688 L 211.445313 289.554688 L 211.445313 174.304688 L 203.167969 174.304688 Z M 203.167969 289.554688 "/>
<path style="fill-rule:nonzero;fill:rgb(73.72549%,50.196078%,74.117647%);fill-opacity:1;stroke-width:0.75;stroke-linecap:round;stroke-linejoin:round;stroke:rgb(100%,100%,100%);stroke-opacity:1;stroke-miterlimit:10;" d="M 211.445313 289.554688 L 219.722656 289.554688 L 219.722656 128.570313 L 211.445313 128.570313 Z M 211.445313 289.554688 "/>
<path style="fill-rule:nonzero;fill:rgb(73.72549%,50.196078%,74.117647%);fill-opacity:1;stroke-width:0.75;stroke-linecap:round;stroke-linejoin:round;stroke:rgb(100%,100%,100%);stroke-opacity:1;stroke-miterlimit:10;" d="M 219.722656 289.554688 L 228 289.554688 L 228 58.445313 L 219.722656 58.445313 Z M 219.722656 289.554688 "/>
<path style="fill-rule:nonzero;fill:rgb(73.72549%,50.196078%,74.117647%);fill-opacity:1;stroke-width:0.75;stroke-linecap:round;stroke-linejoin:round;stroke:rgb(100%,100%,100%);stroke-opacity:1;stroke-miterlimit:10;" d="M 228 289.554688 L 236.277344 289.554688 L 236.277344 60.273438 L 228 60.273438 Z M 228 289.554688 "/>
<path style="fill-rule:nonzero;fill:rgb(73.72549%,50.196078%,74.117647%);fill-opacity:1;stroke-width:0.75;stroke-linecap:round;stroke-linejoin:round;stroke:rgb(100%,100%,100%);stroke-opacity:1;stroke-miterlimit:10;" d="M 236.277344 289.554688 L 244.554688 289.554688 L 244.554688 103.566406 L 236.277344 103.566406 Z M 236.277344 289.554688 "/>
<path style="fill-rule:nonzero;fill:rgb(73.72549%,50.196078%,74.117647%);fill-opacity:1;stroke-width:0.75;stroke-linecap:round;stroke-linejoin:round;stroke:rgb(100%,100%,100%);stroke-opacity:1;stroke-miterlimit:10;" d="M 244.554688 289.554688 L 252.832031 289.554688 L 252.832031 162.109375 L 244.554688 162.109375 Z M 244.554688 289.554688 "/>
<path style="fill-rule:nonzero;fill:rgb(73.72549%,50.196078%,74.117647%);fill-opacity:1;stroke-width:0.75;stroke-linecap:round;stroke-linejoin:round;stroke:rgb(100%,100%,100%);stroke-opacity:1;stroke-miterlimit:10;" d="M 252.832031 289.554688 L 261.109375 289.554688 L 261.109375 201.746094 L 252.832031 201.746094 Z M 252.832031 289.554688 "/>
<path style="fill-rule:nonzero;fill:rgb(73.72549%,50.196078%,74.117647%);fill-opacity:1;stroke-width:0.75;stroke-linecap:round;stroke-linejoin:round;stroke:rgb(100%,100%,100%);stroke-opacity:1;stroke-miterlimit:10;" d="M 261.109375 289.554688 L 269.386719 289.554688 L 269.386719 231.015625 L 261.109375 231.015625 Z M 261.109375 289.554688 "/>
<path style="fill-rule:nonzero;fill:rgb(73.72549%,50.196078%,74.117647%);fill-opacity:1;stroke-width:0.75;stroke-linecap:round;stroke-linejoin:round;stroke:rgb(100%,100%,100%);stroke-opacity:1;stroke-miterlimit:10;" d="M 269.390625 289.554688 L 277.667969 289.554688 L 277.667969 256.015625 L 269.390625 256.015625 Z M 269.390625 289.554688 "/>
<path style="fill-rule:nonzero;fill:rgb(73.72549%,50.196078%,74.117647%);fill-opacity:1;stroke-width:0.75;stroke-linecap:round;stroke-linejoin:round;stroke:rgb(100%,100%,100%);stroke-opacity:1;stroke-miterlimit:10;" d="M 277.667969 289.554688 L 285.945313 289.554688 L 285.945313 270.042969 L 277.667969 270.042969 Z M 277.667969 289.554688 "/>
<path style="fill-rule:nonzero;fill:rgb(73.72549%,50.196078%,74.117647%);fill-opacity:1;stroke-width:0.75;stroke-linecap:round;stroke-linejoin:round;stroke:rgb(100%,100%,100%);stroke-opacity:1;stroke-miterlimit:10;" d="M 285.945313 289.554688 L 294.222656 289.554688 L 294.222656 268.210938 L 285.945313 268.210938 Z M 285.945313 289.554688 "/>
<path style="fill-rule:nonzero;fill:rgb(73.72549%,50.196078%,74.117647%);fill-opacity:1;stroke-width:0.75;stroke-linecap:round;stroke-linejoin:round;stroke:rgb(100%,100%,100%);stroke-opacity:1;stroke-miterlimit:10;" d="M 294.222656 289.554688 L 302.5 289.554688 L 302.5 282.847656 L 294.222656 282.847656 Z M 294.222656 289.554688 "/>
<path style="fill-rule:nonzero;fill:rgb(73.72549%,50.196078%,74.117647%);fill-opacity:1;stroke-width:0.75;stroke-linecap:round;stroke-linejoin:round;stroke:rgb(100%,100%,100%);stroke-opacity:1;stroke-miterlimit:10;" d="M 302.5 289.554688 L 310.777344 289.554688 L 310.777344 282.238281 L 302.5 282.238281 Z M 302.5 289.554688 "/>
<path style="fill-rule:nonzero;fill:rgb(73.72549%,50.196078%,74.117647%);fill-opacity:1;stroke-width:0.75;stroke-linecap:round;stroke-linejoin:round;stroke:rgb(100%,100%,100%);stroke-opacity:1;stroke-miterlimit:10;" d="M 310.777344 289.554688 L 319.054688 289.554688 L 319.054688 284.675781 L 310.777344 284.675781 Z M 310.777344 289.554688 "/>
<path style="fill-rule:nonzero;fill:rgb(73.72549%,50.196078%,74.117647%);fill-opacity:1;stroke-width:0.75;stroke-linecap:round;stroke-linejoin:round;stroke:rgb(100%,100%,100%);stroke-opacity:1;stroke-miterlimit:10;" d="M 319.054688 289.554688 L 327.332031 289.554688 L 327.332031 285.894531 L 319.054688 285.894531 Z M 319.054688 289.554688 "/>
<path style="fill-rule:nonzero;fill:rgb(73.72549%,50.196078%,74.117647%);fill-opacity:1;stroke-width:0.75;stroke-linecap:round;stroke-linejoin:round;stroke:rgb(100%,100%,100%);stroke-opacity:1;stroke-miterlimit:10;" d="M 327.332031 289.554688 L 335.609375 289.554688 L 335.609375 286.503906 L 327.332031 286.503906 Z M 327.332031 289.554688 "/>
<path style="fill-rule:nonzero;fill:rgb(73.72549%,50.196078%,74.117647%);fill-opacity:1;stroke-width:0.75;stroke-linecap:round;stroke-linejoin:round;stroke:rgb(100%,100%,100%);stroke-opacity:1;stroke-miterlimit:10;" d="M 335.609375 289.554688 L 343.886719 289.554688 L 343.886719 288.945313 L 335.609375 288.945313 Z M 335.609375 289.554688 "/>
<path style="fill-rule:nonzero;fill:rgb(73.72549%,50.196078%,74.117647%);fill-opacity:1;stroke-width:0.75;stroke-linecap:round;stroke-linejoin:round;stroke:rgb(100%,100%,100%);stroke-opacity:1;stroke-miterlimit:10;" d="M 343.890625 289.554688 L 352.167969 289.554688 L 352.167969 288.945313 L 343.890625 288.945313 Z M 343.890625 289.554688 "/>
<path style="fill-rule:nonzero;fill:rgb(73.72549%,50.196078%,74.117647%);fill-opacity:1;stroke-width:0.75;stroke-linecap:round;stroke-linejoin:round;stroke:rgb(100%,100%,100%);stroke-opacity:1;stroke-miterlimit:10;" d="M 352.167969 289.554688 L 360.445313 289.554688 L 360.445313 287.726563 L 352.167969 287.726563 Z M 352.167969 289.554688 "/>
<path style="fill-rule:nonzero;fill:rgb(73.72549%,50.196078%,74.117647%);fill-opacity:1;stroke-width:0.75;stroke-linecap:round;stroke-linejoin:round;stroke:rgb(100%,100%,100%);stroke-opacity:1;stroke-miterlimit:10;" d="M 360.445313 289.554688 L 368.722656 289.554688 L 368.722656 288.335938 L 360.445313 288.335938 Z M 360.445313 289.554688 "/>
<path style="fill-rule:nonzero;fill:rgb(73.72549%,50.196078%,74.117647%);fill-opacity:1;stroke-width:0.75;stroke-linecap:round;stroke-linejoin:round;stroke:rgb(100%,100%,100%);stroke-opacity:1;stroke-miterlimit:10;" d="M 368.722656 289.554688 L 377 289.554688 L 377 288.945313 L 368.722656 288.945313 Z M 368.722656 289.554688 "/>
<path style="fill-rule:nonzero;fill:rgb(73.72549%,50.196078%,74.117647%);fill-opacity:1;stroke-width:0.75;stroke-linecap:round;stroke-linejoin:round;stroke:rgb(100%,100%,100%);stroke-opacity:1;stroke-miterlimit:10;" d="M 377 289.554688 L 385.277344 289.554688 L 385.277344 288.945313 L 377 288.945313 Z M 377 289.554688 "/>
<path style="fill-rule:nonzero;fill:rgb(73.72549%,50.196078%,74.117647%);fill-opacity:1;stroke-width:0.75;stroke-linecap:round;stroke-linejoin:round;stroke:rgb(100%,100%,100%);stroke-opacity:1;stroke-miterlimit:10;" d="M 385.277344 289.554688 L 393.554688 289.554688 L 393.554688 288.945313 L 385.277344 288.945313 Z M 385.277344 289.554688 "/>
<path style="fill-rule:nonzero;fill:rgb(73.72549%,50.196078%,74.117647%);fill-opacity:1;stroke-width:0.75;stroke-linecap:round;stroke-linejoin:round;stroke:rgb(100%,100%,100%);stroke-opacity:1;stroke-miterlimit:10;" d="M 393.554688 289.554688 L 401.832031 289.554688 L 401.832031 288.945313 L 393.554688 288.945313 Z M 393.554688 289.554688 "/>
<g clip-path="url(#clip2)" clip-rule="nonzero">
<path style="fill:none;stroke-width:1.5;stroke-linecap:round;stroke-linejoin:round;stroke:rgb(0%,0%,0%);stroke-opacity:1;stroke-dasharray:6,6;stroke-miterlimit:10;" d="M 32.214844 289.535156 L 32.582031 289.535156 L 32.945313 289.53125 L 34.773438 289.53125 L 35.140625 289.527344 L 36.964844 289.527344 L 37.332031 289.523438 L 38.429688 289.523438 L 38.792969 289.519531 L 40.253906 289.519531 L 40.621094 289.515625 L 41.714844 289.515625 L 42.082031 289.511719 L 42.8125 289.511719 L 43.179688 289.507813 L 44.273438 289.507813 L 44.640625 289.503906 L 45.371094 289.503906 L 45.738281 289.5 L 46.46875 289.5 L 46.832031 289.496094 L 47.199219 289.496094 L 47.5625 289.492188 L 48.292969 289.492188 L 48.660156 289.488281 L 49.023438 289.488281 L 49.390625 289.484375 L 50.121094 289.484375 L 50.488281 289.480469 L 50.851563 289.480469 L 51.21875 289.476563 L 51.582031 289.476563 L 51.949219 289.472656 L 52.3125 289.472656 L 52.679688 289.46875 L 53.042969 289.46875 L 53.410156 289.464844 L 53.777344 289.464844 L 54.140625 289.460938 L 54.507813 289.460938 L 54.871094 289.457031 L 55.238281 289.453125 L 55.601563 289.453125 L 55.96875 289.449219 L 56.332031 289.449219 L 57.066406 289.441406 L 57.429688 289.441406 L 57.796875 289.4375 L 58.160156 289.433594 L 58.527344 289.433594 L 58.890625 289.429688 L 59.257813 289.425781 L 59.621094 289.421875 L 59.988281 289.421875 L 60.351563 289.417969 L 61.085938 289.410156 L 61.449219 289.40625 L 61.816406 289.40625 L 62.179688 289.402344 L 62.546875 289.398438 L 62.910156 289.394531 L 63.277344 289.390625 L 63.640625 289.386719 L 64.007813 289.382813 L 64.371094 289.378906 L 65.105469 289.371094 L 65.46875 289.367188 L 65.835938 289.363281 L 66.199219 289.359375 L 66.566406 289.355469 L 66.929688 289.351563 L 67.296875 289.347656 L 67.660156 289.34375 L 68.027344 289.339844 L 68.390625 289.332031 L 69.125 289.324219 L 69.488281 289.320313 L 69.855469 289.3125 L 70.21875 289.308594 L 70.585938 289.304688 L 70.949219 289.296875 L 71.316406 289.292969 L 71.679688 289.289063 L 72.046875 289.28125 L 72.414063 289.277344 L 72.777344 289.269531 L 73.144531 289.265625 L 73.507813 289.257813 L 73.875 289.25 L 74.238281 289.246094 L 74.605469 289.238281 L 74.96875 289.234375 L 75.335938 289.226563 L 75.699219 289.21875 L 76.066406 289.210938 L 76.433594 289.207031 L 76.796875 289.199219 L 77.164063 289.191406 L 77.527344 289.183594 L 77.894531 289.175781 L 78.257813 289.167969 L 78.625 289.160156 L 78.988281 289.152344 L 79.355469 289.144531 L 79.71875 289.136719 L 80.453125 289.121094 L 80.816406 289.113281 L 81.183594 289.101563 L 81.546875 289.09375 L 81.914063 289.085938 L 82.277344 289.074219 L 82.644531 289.066406 L 83.007813 289.058594 L 83.375 289.046875 L 83.742188 289.039063 L 84.105469 289.027344 L 84.472656 289.015625 L 84.835938 289.007813 L 85.203125 288.996094 L 85.566406 288.984375 L 85.933594 288.976563 L 86.296875 288.964844 L 86.664063 288.953125 L 87.027344 288.941406 L 87.761719 288.917969 L 88.125 288.90625 L 88.492188 288.894531 L 88.855469 288.882813 L 89.222656 288.871094 L 89.585938 288.855469 L 89.953125 288.84375 L 90.316406 288.832031 L 90.683594 288.816406 L 91.046875 288.804688 L 91.414063 288.789063 L 91.78125 288.777344 L 92.144531 288.761719 L 92.511719 288.746094 L 92.875 288.734375 L 93.242188 288.71875 L 93.605469 288.703125 L 93.972656 288.6875 L 94.335938 288.671875 L 95.070313 288.640625 L 95.433594 288.625 L 95.800781 288.605469 L 96.164063 288.589844 L 96.53125 288.574219 L 96.894531 288.554688 L 97.261719 288.539063 L 97.625 288.519531 L 97.992188 288.503906 L 98.355469 288.484375 L 99.089844 288.445313 L 99.453125 288.429688 L 99.820313 288.410156 L 100.183594 288.390625 L 100.550781 288.371094 L 100.914063 288.347656 L 101.28125 288.328125 L 101.644531 288.308594 L 102.011719 288.285156 L 102.375 288.265625 L 102.742188 288.242188 L 103.109375 288.222656 L 103.472656 288.199219 L 103.839844 288.175781 L 104.203125 288.152344 L 104.570313 288.132813 L 104.933594 288.109375 L 105.300781 288.082031 L 105.664063 288.058594 L 106.398438 288.011719 L 106.761719 287.984375 L 107.128906 287.960938 L 107.492188 287.933594 L 107.859375 287.90625 L 108.222656 287.882813 L 108.589844 287.855469 L 108.953125 287.828125 L 109.320313 287.800781 L 109.683594 287.773438 L 110.050781 287.746094 L 110.417969 287.714844 L 110.78125 287.6875 L 111.148438 287.65625 L 111.511719 287.628906 L 111.878906 287.597656 L 112.242188 287.566406 L 112.609375 287.539063 L 112.972656 287.507813 L 113.339844 287.476563 L 113.703125 287.441406 L 114.4375 287.378906 L 114.800781 287.34375 L 115.167969 287.3125 L 115.53125 287.277344 L 115.898438 287.242188 L 116.261719 287.210938 L 116.628906 287.175781 L 116.992188 287.140625 L 117.359375 287.101563 L 117.722656 287.066406 L 118.089844 287.03125 L 118.457031 286.992188 L 118.820313 286.957031 L 119.1875 286.917969 L 119.550781 286.878906 L 119.917969 286.839844 L 120.28125 286.800781 L 120.648438 286.761719 L 121.011719 286.722656 L 121.378906 286.683594 L 121.746094 286.640625 L 122.109375 286.601563 L 122.476563 286.558594 L 122.839844 286.515625 L 123.207031 286.472656 L 123.570313 286.429688 L 123.9375 286.386719 L 124.300781 286.34375 L 124.667969 286.296875 L 125.03125 286.253906 L 125.398438 286.207031 L 125.765625 286.164063 L 126.128906 286.117188 L 126.496094 286.070313 L 126.859375 286.023438 L 127.226563 285.976563 L 127.589844 285.925781 L 127.957031 285.878906 L 128.320313 285.828125 L 128.6875 285.78125 L 129.050781 285.730469 L 129.785156 285.628906 L 130.148438 285.578125 L 130.515625 285.523438 L 130.878906 285.472656 L 131.246094 285.417969 L 131.609375 285.367188 L 131.976563 285.3125 L 132.339844 285.257813 L 133.074219 285.148438 L 133.4375 285.089844 L 133.804688 285.035156 L 134.167969 284.976563 L 134.535156 284.921875 L 134.898438 284.863281 L 135.265625 284.804688 L 135.628906 284.746094 L 135.996094 284.6875 L 136.359375 284.625 L 136.726563 284.566406 L 137.09375 284.503906 L 137.457031 284.441406 L 137.824219 284.382813 L 138.1875 284.320313 L 138.554688 284.253906 L 138.917969 284.191406 L 139.285156 284.128906 L 139.648438 284.0625 L 140.015625 284 L 140.378906 283.933594 L 141.113281 283.800781 L 141.476563 283.730469 L 141.84375 283.664063 L 142.207031 283.59375 L 142.574219 283.527344 L 142.9375 283.457031 L 143.304688 283.386719 L 143.667969 283.316406 L 144.035156 283.246094 L 144.402344 283.171875 L 144.765625 283.101563 L 145.132813 283.027344 L 145.496094 282.953125 L 145.863281 282.878906 L 146.226563 282.804688 L 146.59375 282.726563 L 146.957031 282.652344 L 147.324219 282.574219 L 147.6875 282.496094 L 148.421875 282.339844 L 148.785156 282.257813 L 149.152344 282.179688 L 149.515625 282.097656 L 149.882813 282.015625 L 150.246094 281.933594 L 150.613281 281.847656 L 150.976563 281.765625 L 151.34375 281.679688 L 151.707031 281.59375 L 152.074219 281.507813 L 152.441406 281.417969 L 152.804688 281.328125 L 153.171875 281.238281 L 153.535156 281.148438 L 153.902344 281.058594 L 154.265625 280.964844 L 154.632813 280.871094 L 154.996094 280.773438 L 155.363281 280.679688 L 155.730469 280.582031 L 156.09375 280.484375 L 156.460938 280.382813 L 156.824219 280.28125 L 157.191406 280.179688 L 157.554688 280.074219 L 157.921875 279.96875 L 158.285156 279.863281 L 158.652344 279.753906 L 159.015625 279.644531 L 159.75 279.417969 L 160.113281 279.300781 L 160.480469 279.183594 L 160.84375 279.0625 L 161.210938 278.941406 L 161.574219 278.816406 L 161.941406 278.691406 L 162.304688 278.5625 L 162.671875 278.429688 L 163.035156 278.296875 L 163.769531 278.023438 L 164.132813 277.878906 L 164.5 277.734375 L 164.863281 277.585938 L 165.230469 277.433594 L 165.59375 277.28125 L 165.960938 277.121094 L 166.324219 276.960938 L 166.691406 276.792969 L 167.054688 276.625 L 167.421875 276.449219 L 167.789063 276.269531 L 168.152344 276.089844 L 168.519531 275.902344 L 168.882813 275.710938 L 169.25 275.511719 L 169.613281 275.308594 L 169.980469 275.101563 L 170.34375 274.890625 L 171.078125 274.445313 L 171.441406 274.214844 L 171.808594 273.976563 L 172.171875 273.730469 L 172.539063 273.480469 L 172.902344 273.222656 L 173.269531 272.957031 L 173.632813 272.683594 L 174 272.402344 L 174.363281 272.113281 L 174.730469 271.816406 L 175.097656 271.507813 L 175.460938 271.191406 L 175.828125 270.867188 L 176.191406 270.535156 L 176.558594 270.191406 L 176.921875 269.835938 L 177.289063 269.472656 L 177.652344 269.09375 L 178.019531 268.707031 L 178.382813 268.3125 L 178.75 267.902344 L 179.117188 267.480469 L 179.480469 267.046875 L 179.847656 266.601563 L 180.210938 266.140625 L 180.578125 265.667969 L 180.941406 265.179688 L 181.308594 264.679688 L 181.671875 264.167969 L 182.039063 263.636719 L 182.40625 263.09375 L 182.769531 262.535156 L 183.136719 261.957031 L 183.5 261.367188 L 183.867188 260.761719 L 184.230469 260.136719 L 184.597656 259.496094 L 184.960938 258.835938 L 185.328125 258.160156 L 185.691406 257.46875 L 186.058594 256.757813 L 186.425781 256.027344 L 186.789063 255.277344 L 187.15625 254.511719 L 187.519531 253.722656 L 187.886719 252.917969 L 188.25 252.09375 L 188.617188 251.246094 L 188.980469 250.378906 L 189.347656 249.492188 L 189.710938 248.585938 L 190.078125 247.65625 L 190.445313 246.707031 L 190.808594 245.738281 L 191.175781 244.746094 L 191.539063 243.734375 L 191.90625 242.699219 L 192.269531 241.644531 L 192.636719 240.566406 L 193 239.46875 L 193.367188 238.347656 L 193.734375 237.203125 L 194.097656 236.039063 L 194.464844 234.855469 L 194.828125 233.644531 L 195.195313 232.417969 L 195.558594 231.167969 L 195.925781 229.894531 L 196.289063 228.601563 L 196.65625 227.289063 L 197.019531 225.953125 L 197.386719 224.601563 L 197.753906 223.226563 L 198.117188 221.832031 L 198.484375 220.417969 L 198.847656 218.984375 L 199.214844 217.53125 L 199.578125 216.0625 L 199.945313 214.574219 L 200.308594 213.066406 L 200.675781 211.542969 L 201.039063 210.003906 L 201.40625 208.453125 L 201.773438 206.882813 L 202.136719 205.296875 L 202.503906 203.699219 L 202.867188 202.089844 L 203.234375 200.464844 L 203.597656 198.828125 L 203.964844 197.183594 L 204.328125 195.527344 L 204.695313 193.863281 L 205.0625 192.1875 L 205.425781 190.507813 L 205.792969 188.820313 L 206.15625 187.125 L 206.523438 185.429688 L 206.886719 183.726563 L 207.253906 182.023438 L 207.617188 180.320313 L 207.984375 178.613281 L 208.347656 176.910156 L 209.082031 173.503906 L 209.445313 171.808594 L 209.8125 170.121094 L 210.175781 168.4375 L 210.542969 166.757813 L 210.90625 165.09375 L 211.273438 163.433594 L 211.636719 161.789063 L 212.003906 160.15625 L 212.367188 158.535156 L 212.734375 156.933594 L 213.101563 155.34375 L 213.464844 153.773438 L 213.832031 152.222656 L 214.195313 150.691406 L 214.5625 149.183594 L 214.925781 147.695313 L 215.292969 146.234375 L 215.65625 144.796875 L 216.023438 143.382813 L 216.386719 142 L 216.753906 140.644531 L 217.121094 139.320313 L 217.484375 138.027344 L 217.851563 136.765625 L 218.214844 135.539063 L 218.582031 134.347656 L 218.945313 133.1875 L 219.3125 132.066406 L 219.675781 130.984375 L 220.042969 129.941406 L 220.410156 128.9375 L 220.773438 127.972656 L 221.140625 127.050781 L 221.503906 126.167969 L 221.871094 125.332031 L 222.234375 124.539063 L 222.601563 123.792969 L 222.964844 123.089844 L 223.332031 122.433594 L 223.695313 121.824219 L 224.0625 121.265625 L 224.429688 120.75 L 224.792969 120.285156 L 225.160156 119.867188 L 225.523438 119.503906 L 225.890625 119.183594 L 226.253906 118.917969 L 226.621094 118.703125 L 226.984375 118.535156 L 227.351563 118.417969 L 227.714844 118.355469 L 228.082031 118.339844 L 228.449219 118.378906 L 228.8125 118.464844 L 229.179688 118.601563 L 229.542969 118.792969 L 229.910156 119.03125 L 230.273438 119.320313 L 230.640625 119.660156 L 231.003906 120.050781 L 231.371094 120.488281 L 231.738281 120.976563 L 232.101563 121.511719 L 232.46875 122.09375 L 232.832031 122.722656 L 233.199219 123.402344 L 233.5625 124.125 L 233.929688 124.890625 L 234.292969 125.703125 L 234.660156 126.558594 L 235.023438 127.460938 L 235.390625 128.398438 L 235.757813 129.382813 L 236.121094 130.40625 L 236.488281 131.46875 L 236.851563 132.566406 L 237.21875 133.703125 L 237.582031 134.878906 L 237.949219 136.085938 L 238.3125 137.328125 L 238.679688 138.605469 L 239.042969 139.914063 L 239.410156 141.253906 L 239.777344 142.621094 L 240.140625 144.015625 L 240.507813 145.4375 L 240.871094 146.886719 L 241.238281 148.363281 L 241.601563 149.859375 L 241.96875 151.378906 L 242.332031 152.917969 L 242.699219 154.480469 L 243.066406 156.058594 L 243.429688 157.652344 L 243.796875 159.261719 L 244.160156 160.890625 L 244.527344 162.527344 L 244.890625 164.179688 L 245.257813 165.839844 L 245.621094 167.511719 L 245.988281 169.191406 L 246.351563 170.878906 L 246.71875 172.570313 L 247.085938 174.269531 L 247.449219 175.972656 L 247.816406 177.675781 L 248.179688 179.378906 L 248.546875 181.085938 L 248.910156 182.789063 L 249.277344 184.492188 L 249.640625 186.191406 L 250.007813 187.886719 L 250.371094 189.578125 L 250.738281 191.265625 L 251.105469 192.941406 L 251.46875 194.613281 L 251.835938 196.273438 L 252.199219 197.925781 L 252.566406 199.566406 L 252.929688 201.195313 L 253.296875 202.8125 L 253.660156 204.417969 L 254.027344 206.011719 L 254.394531 207.589844 L 254.757813 209.152344 L 255.125 210.699219 L 255.488281 212.230469 L 255.855469 213.746094 L 256.21875 215.242188 L 256.585938 216.722656 L 256.949219 218.1875 L 257.316406 219.628906 L 257.679688 221.054688 L 258.046875 222.460938 L 258.414063 223.847656 L 258.777344 225.210938 L 259.144531 226.558594 L 259.507813 227.882813 L 259.875 229.1875 L 260.238281 230.46875 L 260.605469 231.730469 L 260.96875 232.972656 L 261.335938 234.191406 L 261.699219 235.390625 L 262.066406 236.566406 L 262.433594 237.71875 L 262.796875 238.851563 L 263.164063 239.964844 L 263.527344 241.054688 L 263.894531 242.121094 L 264.257813 243.167969 L 264.625 244.191406 L 264.988281 245.195313 L 265.355469 246.175781 L 265.71875 247.136719 L 266.085938 248.078125 L 266.453125 248.996094 L 266.816406 249.894531 L 267.183594 250.773438 L 267.546875 251.628906 L 267.914063 252.464844 L 268.277344 253.28125 L 268.644531 254.082031 L 269.007813 254.859375 L 269.375 255.617188 L 269.742188 256.359375 L 270.105469 257.078125 L 270.472656 257.78125 L 270.835938 258.46875 L 271.203125 259.136719 L 271.566406 259.785156 L 271.933594 260.417969 L 272.296875 261.035156 L 272.664063 261.636719 L 273.027344 262.21875 L 273.394531 262.785156 L 273.761719 263.339844 L 274.125 263.878906 L 274.492188 264.398438 L 274.855469 264.90625 L 275.222656 265.402344 L 275.585938 265.882813 L 275.953125 266.347656 L 276.316406 266.800781 L 276.683594 267.242188 L 277.046875 267.671875 L 277.414063 268.085938 L 277.78125 268.492188 L 278.144531 268.882813 L 278.511719 269.265625 L 278.875 269.636719 L 279.242188 269.996094 L 279.605469 270.34375 L 279.972656 270.683594 L 280.335938 271.015625 L 280.703125 271.335938 L 281.070313 271.648438 L 281.433594 271.949219 L 281.800781 272.242188 L 282.164063 272.53125 L 282.53125 272.808594 L 282.894531 273.078125 L 283.261719 273.339844 L 283.625 273.59375 L 283.992188 273.84375 L 284.355469 274.082031 L 284.722656 274.320313 L 285.089844 274.546875 L 285.453125 274.769531 L 285.820313 274.984375 L 286.183594 275.195313 L 286.550781 275.402344 L 286.914063 275.601563 L 287.28125 275.796875 L 287.644531 275.984375 L 288.011719 276.171875 L 288.375 276.351563 L 288.742188 276.527344 L 289.109375 276.699219 L 289.472656 276.867188 L 289.839844 277.03125 L 290.203125 277.191406 L 290.570313 277.351563 L 290.933594 277.503906 L 291.300781 277.652344 L 291.664063 277.800781 L 292.03125 277.945313 L 292.398438 278.085938 L 292.761719 278.222656 L 293.128906 278.359375 L 293.492188 278.492188 L 293.859375 278.621094 L 294.222656 278.75 L 294.589844 278.875 L 294.953125 278.996094 L 295.320313 279.117188 L 295.683594 279.234375 L 296.417969 279.46875 L 296.78125 279.582031 L 297.148438 279.691406 L 297.511719 279.800781 L 297.878906 279.910156 L 298.242188 280.015625 L 298.609375 280.121094 L 298.972656 280.226563 L 299.339844 280.328125 L 299.703125 280.429688 L 300.4375 280.625 L 300.800781 280.722656 L 301.167969 280.816406 L 301.53125 280.914063 L 301.898438 281.007813 L 302.261719 281.097656 L 302.628906 281.191406 L 302.992188 281.28125 L 303.359375 281.371094 L 303.726563 281.457031 L 304.089844 281.546875 L 304.457031 281.632813 L 304.820313 281.71875 L 305.1875 281.800781 L 305.550781 281.886719 L 305.917969 281.96875 L 306.28125 282.050781 L 306.648438 282.132813 L 307.011719 282.214844 L 307.378906 282.296875 L 307.746094 282.375 L 308.109375 282.453125 L 308.476563 282.53125 L 308.839844 282.609375 L 309.207031 282.6875 L 309.570313 282.761719 L 309.9375 282.835938 L 310.300781 282.910156 L 310.667969 282.984375 L 311.03125 283.058594 L 311.398438 283.132813 L 311.765625 283.203125 L 312.128906 283.277344 L 312.496094 283.347656 L 312.859375 283.417969 L 313.226563 283.488281 L 313.589844 283.558594 L 313.957031 283.625 L 314.320313 283.695313 L 314.6875 283.761719 L 315.050781 283.828125 L 315.785156 283.960938 L 316.148438 284.027344 L 316.515625 284.09375 L 316.878906 284.15625 L 317.246094 284.222656 L 317.609375 284.285156 L 317.976563 284.347656 L 318.339844 284.410156 L 318.707031 284.472656 L 319.074219 284.53125 L 319.4375 284.59375 L 319.804688 284.652344 L 320.167969 284.714844 L 320.535156 284.773438 L 320.898438 284.832031 L 321.265625 284.890625 L 321.628906 284.945313 L 321.996094 285.003906 L 322.359375 285.058594 L 322.726563 285.117188 L 323.09375 285.171875 L 323.457031 285.226563 L 323.824219 285.28125 L 324.1875 285.335938 L 324.554688 285.390625 L 324.917969 285.441406 L 325.285156 285.496094 L 325.648438 285.546875 L 326.015625 285.601563 L 326.378906 285.652344 L 326.746094 285.703125 L 327.113281 285.75 L 327.476563 285.800781 L 327.84375 285.851563 L 328.207031 285.898438 L 328.574219 285.949219 L 328.9375 285.996094 L 329.304688 286.042969 L 329.667969 286.089844 L 330.402344 286.183594 L 330.765625 286.230469 L 331.132813 286.273438 L 331.496094 286.320313 L 331.863281 286.363281 L 332.226563 286.40625 L 332.59375 286.449219 L 332.957031 286.492188 L 333.324219 286.535156 L 333.6875 286.578125 L 334.054688 286.617188 L 334.421875 286.660156 L 334.785156 286.699219 L 335.152344 286.742188 L 335.515625 286.78125 L 335.882813 286.820313 L 336.246094 286.859375 L 336.613281 286.898438 L 336.976563 286.933594 L 337.34375 286.972656 L 337.707031 287.011719 L 338.441406 287.082031 L 338.804688 287.121094 L 339.171875 287.15625 L 339.535156 287.191406 L 339.902344 287.226563 L 340.265625 287.257813 L 340.632813 287.292969 L 340.996094 287.328125 L 341.363281 287.359375 L 341.730469 287.394531 L 342.09375 287.425781 L 342.460938 287.457031 L 342.824219 287.488281 L 343.191406 287.519531 L 343.554688 287.550781 L 343.921875 287.582031 L 344.285156 287.613281 L 344.652344 287.640625 L 345.015625 287.671875 L 345.382813 287.699219 L 345.75 287.730469 L 346.113281 287.757813 L 346.480469 287.785156 L 346.84375 287.8125 L 347.210938 287.839844 L 347.574219 287.867188 L 347.941406 287.894531 L 348.304688 287.921875 L 348.671875 287.945313 L 349.035156 287.972656 L 349.402344 287.996094 L 349.769531 288.023438 L 350.132813 288.046875 L 350.5 288.070313 L 350.863281 288.09375 L 351.230469 288.117188 L 351.59375 288.140625 L 351.960938 288.164063 L 352.324219 288.1875 L 352.691406 288.210938 L 353.058594 288.230469 L 353.421875 288.253906 L 353.789063 288.273438 L 354.152344 288.296875 L 354.519531 288.316406 L 354.882813 288.335938 L 355.25 288.359375 L 355.613281 288.378906 L 355.980469 288.398438 L 356.34375 288.417969 L 357.078125 288.457031 L 357.441406 288.472656 L 357.808594 288.492188 L 358.171875 288.511719 L 358.539063 288.527344 L 358.902344 288.546875 L 359.269531 288.5625 L 359.632813 288.582031 L 360 288.597656 L 360.363281 288.613281 L 360.730469 288.632813 L 361.097656 288.648438 L 361.460938 288.664063 L 361.828125 288.679688 L 362.191406 288.695313 L 362.558594 288.710938 L 362.921875 288.722656 L 363.289063 288.738281 L 363.652344 288.753906 L 364.019531 288.769531 L 364.382813 288.78125 L 364.75 288.796875 L 365.117188 288.808594 L 365.480469 288.824219 L 365.847656 288.835938 L 366.210938 288.847656 L 366.578125 288.863281 L 366.941406 288.875 L 367.308594 288.886719 L 367.671875 288.898438 L 368.40625 288.921875 L 368.769531 288.933594 L 369.136719 288.945313 L 369.5 288.957031 L 369.867188 288.96875 L 370.230469 288.980469 L 370.597656 288.992188 L 370.960938 289 L 371.328125 289.011719 L 371.691406 289.023438 L 372.058594 289.03125 L 372.425781 289.042969 L 372.789063 289.050781 L 373.15625 289.0625 L 373.519531 289.070313 L 373.886719 289.078125 L 374.25 289.089844 L 374.617188 289.097656 L 374.980469 289.105469 L 375.347656 289.117188 L 375.710938 289.125 L 376.445313 289.140625 L 376.808594 289.148438 L 377.175781 289.15625 L 377.539063 289.164063 L 377.90625 289.171875 L 378.269531 289.179688 L 378.636719 289.1875 L 379 289.195313 L 379.367188 289.203125 L 379.734375 289.207031 L 380.097656 289.214844 L 380.464844 289.222656 L 380.828125 289.230469 L 381.195313 289.234375 L 381.558594 289.242188 L 381.925781 289.25 L 382.289063 289.253906 L 382.65625 289.261719 L 383.019531 289.265625 L 383.386719 289.273438 L 383.753906 289.277344 L 384.117188 289.285156 L 384.484375 289.289063 L 384.847656 289.296875 L 385.214844 289.300781 L 385.578125 289.304688 L 385.945313 289.3125 L 386.308594 289.316406 L 386.675781 289.320313 L 387.039063 289.324219 L 387.40625 289.332031 L 387.773438 289.335938 L 388.136719 289.339844 L 388.503906 289.34375 L 388.867188 289.347656 L 389.234375 289.351563 L 389.597656 289.359375 L 389.964844 289.363281 L 390.328125 289.367188 L 391.0625 289.375 L 391.425781 289.378906 L 391.792969 289.382813 L 392.15625 289.386719 L 392.523438 289.390625 L 392.886719 289.394531 L 393.253906 289.394531 L 393.617188 289.398438 L 393.984375 289.402344 L 394.347656 289.40625 L 395.082031 289.414063 L 395.445313 289.414063 L 395.8125 289.417969 L 396.175781 289.421875 L 396.542969 289.425781 L 396.90625 289.429688 L 397.273438 289.429688 "/>
</g>
<g clip-path="url(#clip3)" clip-rule="nonzero">
<path style="fill:none;stroke-width:1.5;stroke-linecap:round;stroke-linejoin:round;stroke:rgb(0%,0%,0%);stroke-opacity:1;stroke-dasharray:1.5,4.5;stroke-miterlimit:10;" d="M 32.214844 289.554688 L 84.472656 289.554688 L 84.835938 289.550781 L 90.316406 289.550781 L 90.683594 289.546875 L 93.605469 289.546875 L 93.972656 289.542969 L 95.800781 289.542969 L 96.164063 289.539063 L 97.625 289.539063 L 97.992188 289.535156 L 98.722656 289.535156 L 99.089844 289.53125 L 100.183594 289.53125 L 100.550781 289.527344 L 100.914063 289.527344 L 101.28125 289.523438 L 102.011719 289.523438 L 102.375 289.519531 L 102.742188 289.519531 L 103.109375 289.515625 L 103.472656 289.515625 L 103.839844 289.511719 L 104.203125 289.511719 L 104.570313 289.507813 L 104.933594 289.507813 L 105.300781 289.503906 L 105.664063 289.5 L 106.03125 289.5 L 106.398438 289.496094 L 106.761719 289.492188 L 107.128906 289.492188 L 107.492188 289.488281 L 107.859375 289.484375 L 108.222656 289.480469 L 108.589844 289.476563 L 108.953125 289.472656 L 109.320313 289.46875 L 109.683594 289.464844 L 110.417969 289.457031 L 110.78125 289.453125 L 111.148438 289.449219 L 111.511719 289.441406 L 111.878906 289.4375 L 112.242188 289.429688 L 112.609375 289.425781 L 112.972656 289.421875 L 113.339844 289.414063 L 113.703125 289.40625 L 114.070313 289.402344 L 114.4375 289.394531 L 114.800781 289.386719 L 115.167969 289.378906 L 115.53125 289.371094 L 115.898438 289.363281 L 116.261719 289.355469 L 116.628906 289.34375 L 116.992188 289.335938 L 117.359375 289.328125 L 117.722656 289.316406 L 118.457031 289.292969 L 118.820313 289.285156 L 119.1875 289.273438 L 119.550781 289.257813 L 119.917969 289.246094 L 120.28125 289.234375 L 120.648438 289.21875 L 121.011719 289.207031 L 121.746094 289.175781 L 122.109375 289.160156 L 122.476563 289.140625 L 122.839844 289.125 L 123.207031 289.105469 L 123.570313 289.089844 L 123.9375 289.070313 L 124.300781 289.050781 L 124.667969 289.027344 L 125.03125 289.007813 L 125.765625 288.960938 L 126.128906 288.9375 L 126.496094 288.914063 L 126.859375 288.886719 L 127.226563 288.859375 L 127.589844 288.832031 L 127.957031 288.804688 L 128.320313 288.773438 L 128.6875 288.742188 L 129.050781 288.710938 L 129.417969 288.675781 L 129.785156 288.644531 L 130.148438 288.609375 L 130.515625 288.570313 L 130.878906 288.535156 L 131.246094 288.492188 L 131.609375 288.453125 L 131.976563 288.410156 L 132.339844 288.367188 L 132.707031 288.324219 L 133.074219 288.277344 L 133.4375 288.226563 L 133.804688 288.179688 L 134.167969 288.128906 L 134.535156 288.074219 L 134.898438 288.019531 L 135.265625 287.964844 L 135.628906 287.90625 L 135.996094 287.84375 L 136.359375 287.78125 L 136.726563 287.71875 L 137.09375 287.652344 L 137.457031 287.582031 L 137.824219 287.511719 L 138.1875 287.4375 L 138.554688 287.363281 L 138.917969 287.285156 L 139.285156 287.207031 L 139.648438 287.125 L 140.015625 287.039063 L 140.378906 286.953125 L 140.746094 286.863281 L 141.113281 286.769531 L 141.476563 286.671875 L 141.84375 286.574219 L 142.207031 286.472656 L 142.574219 286.367188 L 142.9375 286.261719 L 143.304688 286.148438 L 143.667969 286.035156 L 144.035156 285.917969 L 144.402344 285.796875 L 144.765625 285.671875 L 145.132813 285.546875 L 145.496094 285.414063 L 145.863281 285.277344 L 146.226563 285.140625 L 146.59375 284.996094 L 146.957031 284.851563 L 147.324219 284.699219 L 147.6875 284.542969 L 148.054688 284.386719 L 148.421875 284.222656 L 148.785156 284.054688 L 149.152344 283.882813 L 149.515625 283.707031 L 149.882813 283.523438 L 150.246094 283.335938 L 150.613281 283.148438 L 150.976563 282.949219 L 151.34375 282.75 L 151.707031 282.542969 L 152.074219 282.332031 L 152.441406 282.113281 L 152.804688 281.894531 L 153.171875 281.664063 L 153.535156 281.433594 L 153.902344 281.191406 L 154.265625 280.949219 L 154.632813 280.695313 L 154.996094 280.441406 L 155.363281 280.175781 L 155.730469 279.90625 L 156.09375 279.632813 L 156.460938 279.351563 L 156.824219 279.0625 L 157.191406 278.765625 L 157.554688 278.464844 L 157.921875 278.15625 L 158.285156 277.839844 L 158.652344 277.519531 L 159.015625 277.1875 L 159.382813 276.851563 L 159.75 276.507813 L 160.113281 276.152344 L 160.480469 275.792969 L 160.84375 275.425781 L 161.210938 275.050781 L 161.574219 274.667969 L 161.941406 274.277344 L 162.304688 273.878906 L 162.671875 273.472656 L 163.035156 273.058594 L 163.402344 272.632813 L 163.769531 272.203125 L 164.132813 271.761719 L 164.5 271.3125 L 164.863281 270.855469 L 165.230469 270.386719 L 165.59375 269.914063 L 165.960938 269.429688 L 166.324219 268.933594 L 166.691406 268.433594 L 167.054688 267.921875 L 167.421875 267.398438 L 167.789063 266.867188 L 168.152344 266.328125 L 168.519531 265.777344 L 168.882813 265.21875 L 169.25 264.652344 L 169.613281 264.074219 L 169.980469 263.484375 L 170.34375 262.886719 L 170.710938 262.277344 L 171.078125 261.660156 L 171.441406 261.035156 L 171.808594 260.394531 L 172.171875 259.746094 L 172.539063 259.089844 L 172.902344 258.421875 L 173.269531 257.742188 L 173.632813 257.054688 L 174 256.355469 L 174.363281 255.648438 L 174.730469 254.925781 L 175.097656 254.199219 L 175.460938 253.457031 L 175.828125 252.707031 L 176.191406 251.949219 L 176.558594 251.175781 L 176.921875 250.394531 L 177.289063 249.605469 L 177.652344 248.800781 L 178.019531 247.992188 L 178.382813 247.167969 L 178.75 246.335938 L 179.117188 245.492188 L 179.480469 244.640625 L 179.847656 243.777344 L 180.210938 242.90625 L 180.578125 242.023438 L 180.941406 241.132813 L 181.308594 240.230469 L 181.671875 239.316406 L 182.039063 238.394531 L 182.40625 237.464844 L 182.769531 236.523438 L 183.136719 235.574219 L 183.5 234.613281 L 183.867188 233.644531 L 184.230469 232.667969 L 184.597656 231.679688 L 184.960938 230.683594 L 185.328125 229.679688 L 185.691406 228.667969 L 186.058594 227.648438 L 186.425781 226.617188 L 186.789063 225.578125 L 187.15625 224.535156 L 187.519531 223.480469 L 187.886719 222.417969 L 188.25 221.351563 L 188.617188 220.277344 L 188.980469 219.191406 L 189.347656 218.101563 L 189.710938 217.007813 L 190.078125 215.902344 L 190.445313 214.792969 L 190.808594 213.679688 L 191.175781 212.558594 L 191.539063 211.433594 L 191.90625 210.300781 L 192.269531 209.164063 L 192.636719 208.019531 L 193 206.875 L 193.734375 204.570313 L 194.097656 203.410156 L 194.464844 202.25 L 194.828125 201.082031 L 195.195313 199.914063 L 195.558594 198.742188 L 195.925781 197.570313 L 196.289063 196.394531 L 196.65625 195.21875 L 197.019531 194.039063 L 197.753906 191.679688 L 198.117188 190.5 L 198.484375 189.316406 L 198.847656 188.136719 L 199.214844 186.957031 L 199.578125 185.777344 L 199.945313 184.597656 L 200.308594 183.421875 L 200.675781 182.246094 L 201.039063 181.074219 L 201.40625 179.902344 L 201.773438 178.734375 L 202.136719 177.570313 L 202.503906 176.410156 L 202.867188 175.253906 L 203.234375 174.101563 L 203.597656 172.957031 L 203.964844 171.8125 L 204.328125 170.675781 L 204.695313 169.546875 L 205.0625 168.421875 L 205.425781 167.304688 L 205.792969 166.195313 L 206.15625 165.09375 L 206.523438 163.996094 L 206.886719 162.910156 L 207.253906 161.832031 L 207.617188 160.761719 L 207.984375 159.699219 L 208.347656 158.648438 L 208.714844 157.609375 L 209.082031 156.578125 L 209.445313 155.558594 L 209.8125 154.550781 L 210.175781 153.554688 L 210.542969 152.570313 L 210.90625 151.597656 L 211.273438 150.636719 L 211.636719 149.691406 L 212.003906 148.757813 L 212.367188 147.835938 L 212.734375 146.933594 L 213.101563 146.039063 L 213.464844 145.164063 L 213.832031 144.300781 L 214.195313 143.457031 L 214.5625 142.625 L 214.925781 141.8125 L 215.292969 141.011719 L 215.65625 140.230469 L 216.023438 139.464844 L 216.386719 138.71875 L 216.753906 137.988281 L 217.121094 137.277344 L 217.484375 136.585938 L 217.851563 135.910156 L 218.214844 135.253906 L 218.582031 134.617188 L 218.945313 133.996094 L 219.3125 133.398438 L 219.675781 132.820313 L 220.042969 132.261719 L 220.410156 131.722656 L 220.773438 131.203125 L 221.140625 130.707031 L 221.503906 130.230469 L 221.871094 129.773438 L 222.234375 129.339844 L 222.601563 128.925781 L 222.964844 128.535156 L 223.332031 128.164063 L 223.695313 127.816406 L 224.0625 127.488281 L 224.429688 127.1875 L 224.792969 126.902344 L 225.160156 126.644531 L 225.523438 126.410156 L 225.890625 126.195313 L 226.253906 126.003906 L 226.621094 125.835938 L 226.984375 125.6875 L 227.351563 125.566406 L 227.714844 125.464844 L 228.082031 125.390625 L 228.449219 125.335938 L 228.8125 125.304688 L 229.179688 125.296875 L 229.542969 125.3125 L 229.910156 125.351563 L 230.273438 125.414063 L 230.640625 125.5 L 231.003906 125.605469 L 231.371094 125.738281 L 231.738281 125.890625 L 232.101563 126.066406 L 232.46875 126.265625 L 232.832031 126.488281 L 233.199219 126.734375 L 233.5625 127 L 233.929688 127.289063 L 234.292969 127.601563 L 234.660156 127.933594 L 235.023438 128.289063 L 235.390625 128.667969 L 235.757813 129.066406 L 236.121094 129.488281 L 236.488281 129.929688 L 236.851563 130.394531 L 237.21875 130.878906 L 237.582031 131.382813 L 237.949219 131.90625 L 238.3125 132.453125 L 238.679688 133.019531 L 239.042969 133.605469 L 239.410156 134.210938 L 239.777344 134.835938 L 240.140625 135.480469 L 240.507813 136.144531 L 240.871094 136.824219 L 241.238281 137.523438 L 241.601563 138.242188 L 241.96875 138.976563 L 242.332031 139.730469 L 242.699219 140.5 L 243.066406 141.289063 L 243.429688 142.09375 L 243.796875 142.914063 L 244.160156 143.75 L 244.527344 144.601563 L 244.890625 145.46875 L 245.257813 146.351563 L 245.621094 147.246094 L 245.988281 148.15625 L 246.351563 149.082031 L 246.71875 150.019531 L 247.085938 150.972656 L 247.449219 151.9375 L 247.816406 152.914063 L 248.179688 153.902344 L 248.546875 154.902344 L 248.910156 155.914063 L 249.277344 156.9375 L 249.640625 157.972656 L 250.007813 159.015625 L 250.371094 160.070313 L 250.738281 161.132813 L 251.105469 162.207031 L 251.46875 163.289063 L 251.835938 164.378906 L 252.199219 165.476563 L 252.566406 166.582031 L 252.929688 167.695313 L 253.296875 168.8125 L 253.660156 169.941406 L 254.027344 171.074219 L 254.394531 172.210938 L 254.757813 173.355469 L 255.125 174.503906 L 255.488281 175.65625 L 255.855469 176.816406 L 256.21875 177.976563 L 256.585938 179.140625 L 256.949219 180.308594 L 257.316406 181.480469 L 257.679688 182.65625 L 258.414063 185.007813 L 258.777344 186.1875 L 259.144531 187.367188 L 259.507813 188.546875 L 259.875 189.730469 L 260.238281 190.910156 L 260.605469 192.089844 L 260.96875 193.269531 L 261.335938 194.449219 L 261.699219 195.628906 L 262.433594 197.980469 L 262.796875 199.152344 L 263.164063 200.324219 L 263.527344 201.488281 L 263.894531 202.65625 L 264.257813 203.816406 L 264.625 204.972656 L 264.988281 206.125 L 265.355469 207.273438 L 265.71875 208.421875 L 266.453125 210.695313 L 266.816406 211.824219 L 267.183594 212.949219 L 267.546875 214.070313 L 267.914063 215.183594 L 268.277344 216.289063 L 268.644531 217.390625 L 269.007813 218.484375 L 269.375 219.570313 L 269.742188 220.652344 L 270.105469 221.726563 L 270.472656 222.789063 L 270.835938 223.847656 L 271.203125 224.898438 L 271.566406 225.941406 L 271.933594 226.976563 L 272.296875 228.003906 L 272.664063 229.023438 L 273.027344 230.03125 L 273.394531 231.035156 L 273.761719 232.027344 L 274.125 233.007813 L 274.492188 233.984375 L 274.855469 234.949219 L 275.222656 235.90625 L 275.585938 236.851563 L 275.953125 237.789063 L 276.316406 238.71875 L 276.683594 239.636719 L 277.046875 240.546875 L 277.414063 241.445313 L 277.78125 242.332031 L 278.144531 243.210938 L 278.511719 244.082031 L 278.875 244.941406 L 279.242188 245.789063 L 279.605469 246.628906 L 279.972656 247.457031 L 280.335938 248.273438 L 280.703125 249.082031 L 281.070313 249.882813 L 281.433594 250.667969 L 281.800781 251.445313 L 282.164063 252.214844 L 282.53125 252.972656 L 282.894531 253.71875 L 283.625 255.179688 L 283.992188 255.894531 L 284.355469 256.601563 L 284.722656 257.296875 L 285.089844 257.980469 L 285.453125 258.65625 L 285.820313 259.320313 L 286.183594 259.976563 L 286.550781 260.621094 L 286.914063 261.253906 L 287.28125 261.878906 L 287.644531 262.492188 L 288.011719 263.097656 L 288.375 263.691406 L 288.742188 264.277344 L 289.109375 264.851563 L 289.472656 265.417969 L 289.839844 265.972656 L 290.203125 266.519531 L 290.570313 267.054688 L 290.933594 267.582031 L 291.300781 268.101563 L 291.664063 268.609375 L 292.03125 269.109375 L 292.398438 269.597656 L 292.761719 270.078125 L 293.128906 270.550781 L 293.492188 271.015625 L 293.859375 271.46875 L 294.222656 271.917969 L 294.589844 272.355469 L 294.953125 272.78125 L 295.320313 273.203125 L 295.683594 273.617188 L 296.050781 274.019531 L 296.417969 274.417969 L 296.78125 274.804688 L 297.148438 275.183594 L 297.511719 275.554688 L 297.878906 275.921875 L 298.242188 276.277344 L 298.609375 276.628906 L 298.972656 276.96875 L 299.339844 277.304688 L 299.703125 277.632813 L 300.070313 277.953125 L 300.4375 278.265625 L 300.800781 278.570313 L 301.167969 278.871094 L 301.53125 279.164063 L 301.898438 279.449219 L 302.261719 279.730469 L 302.628906 280.003906 L 302.992188 280.269531 L 303.359375 280.53125 L 303.726563 280.785156 L 304.089844 281.035156 L 304.457031 281.277344 L 304.820313 281.515625 L 305.1875 281.746094 L 305.550781 281.972656 L 305.917969 282.191406 L 306.28125 282.40625 L 306.648438 282.617188 L 307.011719 282.820313 L 307.378906 283.019531 L 307.746094 283.214844 L 308.109375 283.402344 L 308.476563 283.585938 L 308.839844 283.765625 L 309.207031 283.941406 L 309.570313 284.113281 L 309.9375 284.28125 L 310.300781 284.441406 L 310.667969 284.597656 L 311.03125 284.753906 L 311.398438 284.902344 L 311.765625 285.046875 L 312.128906 285.1875 L 312.496094 285.324219 L 312.859375 285.460938 L 313.226563 285.589844 L 313.589844 285.714844 L 313.957031 285.839844 L 314.320313 285.960938 L 314.6875 286.074219 L 315.050781 286.1875 L 315.785156 286.40625 L 316.148438 286.507813 L 316.515625 286.609375 L 316.878906 286.707031 L 317.246094 286.800781 L 317.609375 286.894531 L 317.976563 286.980469 L 318.339844 287.070313 L 319.074219 287.234375 L 319.4375 287.3125 L 319.804688 287.390625 L 320.167969 287.464844 L 320.535156 287.535156 L 320.898438 287.605469 L 321.265625 287.675781 L 321.628906 287.742188 L 321.996094 287.804688 L 322.359375 287.867188 L 323.09375 287.984375 L 323.457031 288.039063 L 323.824219 288.09375 L 324.1875 288.144531 L 324.554688 288.195313 L 324.917969 288.246094 L 325.285156 288.292969 L 325.648438 288.339844 L 326.015625 288.382813 L 326.378906 288.425781 L 326.746094 288.46875 L 327.113281 288.507813 L 327.476563 288.546875 L 327.84375 288.585938 L 328.207031 288.621094 L 328.574219 288.65625 L 328.9375 288.6875 L 329.304688 288.722656 L 329.667969 288.753906 L 330.035156 288.785156 L 330.402344 288.8125 L 330.765625 288.84375 L 331.132813 288.871094 L 331.496094 288.894531 L 331.863281 288.921875 L 332.226563 288.945313 L 332.59375 288.96875 L 332.957031 288.992188 L 333.324219 289.015625 L 333.6875 289.035156 L 334.054688 289.054688 L 334.421875 289.078125 L 334.785156 289.09375 L 335.152344 289.113281 L 335.515625 289.132813 L 335.882813 289.148438 L 336.246094 289.164063 L 336.613281 289.179688 L 336.976563 289.195313 L 337.34375 289.210938 L 337.707031 289.222656 L 338.074219 289.238281 L 338.441406 289.25 L 338.804688 289.265625 L 339.171875 289.277344 L 339.535156 289.289063 L 339.902344 289.296875 L 340.265625 289.308594 L 340.632813 289.320313 L 340.996094 289.328125 L 341.363281 289.339844 L 341.730469 289.347656 L 342.09375 289.355469 L 342.460938 289.367188 L 342.824219 289.375 L 343.191406 289.382813 L 343.554688 289.390625 L 343.921875 289.394531 L 344.285156 289.402344 L 344.652344 289.410156 L 345.015625 289.414063 L 345.75 289.429688 L 346.113281 289.433594 L 346.480469 289.4375 L 346.84375 289.445313 L 347.210938 289.449219 L 347.574219 289.453125 L 347.941406 289.457031 L 348.304688 289.460938 L 348.671875 289.46875 L 349.035156 289.472656 L 349.402344 289.476563 L 349.769531 289.476563 L 350.132813 289.480469 L 350.5 289.484375 L 350.863281 289.488281 L 351.230469 289.492188 L 351.59375 289.496094 L 351.960938 289.496094 L 352.324219 289.5 L 352.691406 289.503906 L 353.058594 289.503906 L 353.421875 289.507813 L 353.789063 289.507813 L 354.152344 289.511719 L 354.519531 289.515625 L 354.882813 289.515625 L 355.25 289.519531 L 355.980469 289.519531 L 356.34375 289.523438 L 356.710938 289.523438 L 357.078125 289.527344 L 357.808594 289.527344 L 358.171875 289.53125 L 358.902344 289.53125 L 359.269531 289.535156 L 360.363281 289.535156 L 360.730469 289.539063 L 362.191406 289.539063 L 362.558594 289.542969 L 364.382813 289.542969 L 364.75 289.546875 L 367.308594 289.546875 L 367.671875 289.550781 L 373.15625 289.550781 L 373.519531 289.554688 L 397.273438 289.554688 "/>
</g>
<g clip-path="url(#clip4)" clip-rule="nonzero">
<path style=" stroke:none;fill-rule:nonzero;fill:rgb(100%,100%,100%);fill-opacity:1;" d="M 261.261719 49.199219 L 406.800781 49.199219 L 406.800781 85.199219 L 261.261719 85.199219 Z M 261.261719 49.199219 "/>
</g>
<g clip-path="url(#clip5)" clip-rule="nonzero">
<path style="fill:none;stroke-width:0.75;stroke-linecap:round;stroke-linejoin:round;stroke:rgb(0%,0%,0%);stroke-opacity:1;stroke-miterlimit:10;" d="M 261.261719 49.199219 L 406.800781 49.199219 L 406.800781 85.199219 L 261.261719 85.199219 Z M 261.261719 49.199219 "/>
</g>
<path style="fill:none;stroke-width:1.5;stroke-linecap:round;stroke-linejoin:round;stroke:rgb(73.72549%,50.196078%,74.117647%);stroke-opacity:1;stroke-dasharray:6,6;stroke-miterlimit:10;" d="M 270.261719 61.199219 L 288.261719 61.199219 "/>
<path style="fill:none;stroke-width:1.5;stroke-linecap:round;stroke-linejoin:round;stroke:rgb(73.72549%,50.196078%,74.117647%);stroke-opacity:1;stroke-dasharray:1.5,4.5;stroke-miterlimit:10;" d="M 270.261719 73.199219 L 288.261719 73.199219 "/>
<g style="fill:rgb(0%,0%,0%);fill-opacity:1;">
  <use xlink:href="#glyph1-15" x="297.261719" y="64.777344"/>
  <use xlink:href="#glyph1-16" x="305.591797" y="64.777344"/>
  <use xlink:href="#glyph1-17" x="311.15332" y="64.777344"/>
  <use xlink:href="#glyph1-4" x="317.823242" y="64.777344"/>
  <use xlink:href="#glyph1-10" x="320.601563" y="64.777344"/>
  <use xlink:href="#glyph1-4" x="323.931641" y="64.777344"/>
  <use xlink:href="#glyph1-3" x="326.709961" y="64.777344"/>
  <use xlink:href="#glyph1-18" x="332.271484" y="64.777344"/>
  <use xlink:href="#glyph1-8" x="337.833008" y="64.777344"/>
  <use xlink:href="#glyph1-19" x="343.394531" y="64.777344"/>
  <use xlink:href="#glyph1-19" x="348.394531" y="64.777344"/>
  <use xlink:href="#glyph1-20" x="353.394531" y="64.777344"/>
  <use xlink:href="#glyph1-18" x="355.616211" y="64.777344"/>
  <use xlink:href="#glyph1-9" x="361.177734" y="64.777344"/>
  <use xlink:href="#glyph1-4" x="366.739258" y="64.777344"/>
  <use xlink:href="#glyph1-21" x="369.517578" y="64.777344"/>
  <use xlink:href="#glyph1-20" x="377.847656" y="64.777344"/>
  <use xlink:href="#glyph1-22" x="380.069336" y="64.777344"/>
  <use xlink:href="#glyph1-7" x="385.069336" y="64.777344"/>
  <use xlink:href="#glyph1-8" x="387.847656" y="64.777344"/>
  <use xlink:href="#glyph1-5" x="393.40918" y="64.777344"/>
  <use xlink:href="#glyph1-6" x="396.739258" y="64.777344"/>
</g>
<g style="fill:rgb(0%,0%,0%);fill-opacity:1;">
  <use xlink:href="#glyph1-15" x="297.261719" y="76.777344"/>
  <use xlink:href="#glyph1-16" x="305.591797" y="76.777344"/>
  <use xlink:href="#glyph1-17" x="311.15332" y="76.777344"/>
  <use xlink:href="#glyph1-4" x="317.823242" y="76.777344"/>
  <use xlink:href="#glyph1-10" x="320.601563" y="76.777344"/>
  <use xlink:href="#glyph1-4" x="323.931641" y="76.777344"/>
  <use xlink:href="#glyph1-9" x="326.709961" y="76.777344"/>
  <use xlink:href="#glyph1-2" x="332.271484" y="76.777344"/>
  <use xlink:href="#glyph1-5" x="337.833008" y="76.777344"/>
  <use xlink:href="#glyph1-21" x="341.163086" y="76.777344"/>
  <use xlink:href="#glyph1-18" x="349.493164" y="76.777344"/>
  <use xlink:href="#glyph1-1" x="355.054688" y="76.777344"/>
</g>
</g>
</svg>
