<?xml version="1.0" encoding="UTF-8"?>
<svg xmlns="http://www.w3.org/2000/svg" xmlns:xlink="http://www.w3.org/1999/xlink" width="432pt" height="360pt" viewBox="0 0 432 360" version="1.1">
<defs>
<g>
<symbol overflow="visible" id="glyph0-0">
<path style="stroke:none;" d="M 1.5 0 L 1.5 -7.5 L 7.5 -7.5 L 7.5 0 Z M 1.6875 -0.1875 L 7.3125 -0.1875 L 7.3125 -7.3125 L 1.6875 -7.3125 Z M 1.6875 -0.1875 "/>
</symbol>
<symbol overflow="visible" id="glyph0-1">
<path style="stroke:none;" d="M 2.804688 0 L 2.804688 -7.136719 L 0.257813 -7.136719 L 0.257813 -8.589844 L 7.085938 -8.589844 L 7.085938 -7.136719 L 4.539063 -7.136719 L 4.539063 0 Z M 2.804688 0 "/>
</symbol>
<symbol overflow="visible" id="glyph0-2">
<path style="stroke:none;" d="M 0.859375 -7.066406 L 0.859375 -8.589844 L 2.507813 -8.589844 L 2.507813 -7.066406 Z M 0.859375 0 L 0.859375 -6.222656 L 2.507813 -6.222656 L 2.507813 0 Z M 0.859375 0 "/>
</symbol>
<symbol overflow="visible" id="glyph0-3">
<path style="stroke:none;" d="M 6.289063 -4.382813 L 4.664063 -4.089844 C 4.609375 -4.414063 4.484375 -4.65625 4.289063 -4.824219 C 4.09375 -4.984375 3.84375 -5.066406 3.539063 -5.070313 C 3.125 -5.066406 2.796875 -4.925781 2.554688 -4.644531 C 2.3125 -4.359375 2.191406 -3.886719 2.191406 -3.222656 C 2.191406 -2.484375 2.3125 -1.960938 2.5625 -1.660156 C 2.808594 -1.351563 3.144531 -1.199219 3.5625 -1.203125 C 3.875 -1.199219 4.128906 -1.289063 4.328125 -1.46875 C 4.527344 -1.644531 4.667969 -1.949219 4.75 -2.382813 L 6.367188 -2.109375 C 6.199219 -1.367188 5.878906 -0.804688 5.402344 -0.425781 C 4.925781 -0.046875 4.285156 0.140625 3.484375 0.140625 C 2.574219 0.140625 1.847656 -0.144531 1.308594 -0.71875 C 0.765625 -1.292969 0.496094 -2.089844 0.5 -3.105469 C 0.496094 -4.132813 0.769531 -4.929688 1.3125 -5.503906 C 1.851563 -6.074219 2.585938 -6.363281 3.515625 -6.363281 C 4.273438 -6.363281 4.875 -6.199219 5.320313 -5.871094 C 5.765625 -5.542969 6.085938 -5.046875 6.289063 -4.382813 Z M 6.289063 -4.382813 "/>
</symbol>
<symbol overflow="visible" id="glyph0-4">
<path style="stroke:none;" d="M 0.804688 0 L 0.804688 -8.589844 L 2.449219 -8.589844 L 2.449219 -4.03125 L 4.375 -6.222656 L 6.40625 -6.222656 L 4.277344 -3.949219 L 6.554688 0 L 4.78125 0 L 3.21875 -2.796875 L 2.449219 -1.992188 L 2.449219 0 Z M 0.804688 0 "/>
</symbol>
<symbol overflow="visible" id="glyph0-5">
<path style="stroke:none;" d="M 4.464844 -1.980469 L 6.105469 -1.703125 C 5.894531 -1.101563 5.558594 -0.644531 5.105469 -0.332031 C 4.644531 -0.015625 4.078125 0.140625 3.398438 0.140625 C 2.3125 0.140625 1.511719 -0.210938 0.996094 -0.921875 C 0.585938 -1.484375 0.378906 -2.199219 0.382813 -3.0625 C 0.378906 -4.089844 0.648438 -4.898438 1.191406 -5.484375 C 1.726563 -6.070313 2.410156 -6.363281 3.234375 -6.363281 C 4.160156 -6.363281 4.890625 -6.054688 5.425781 -5.445313 C 5.957031 -4.832031 6.210938 -3.898438 6.195313 -2.636719 L 2.070313 -2.636719 C 2.078125 -2.148438 2.210938 -1.765625 2.464844 -1.496094 C 2.71875 -1.222656 3.035156 -1.089844 3.414063 -1.089844 C 3.671875 -1.089844 3.890625 -1.160156 4.066406 -1.300781 C 4.238281 -1.441406 4.371094 -1.667969 4.464844 -1.980469 Z M 4.558594 -3.644531 C 4.542969 -4.121094 4.417969 -4.480469 4.1875 -4.730469 C 3.949219 -4.972656 3.664063 -5.097656 3.335938 -5.101563 C 2.972656 -5.097656 2.675781 -4.96875 2.445313 -4.710938 C 2.207031 -4.449219 2.09375 -4.09375 2.097656 -3.644531 Z M 4.558594 -3.644531 "/>
</symbol>
<symbol overflow="visible" id="glyph0-6">
<path style="stroke:none;" d="M 2.4375 0 L 0.789063 0 L 0.789063 -6.222656 L 2.320313 -6.222656 L 2.320313 -5.335938 C 2.578125 -5.753906 2.8125 -6.03125 3.023438 -6.164063 C 3.234375 -6.296875 3.472656 -6.363281 3.738281 -6.363281 C 4.113281 -6.363281 4.472656 -6.257813 4.820313 -6.054688 L 4.3125 -4.617188 C 4.035156 -4.796875 3.777344 -4.886719 3.539063 -4.886719 C 3.308594 -4.886719 3.113281 -4.820313 2.953125 -4.695313 C 2.789063 -4.566406 2.660156 -4.339844 2.574219 -4.007813 C 2.480469 -3.671875 2.4375 -2.976563 2.4375 -1.921875 Z M 2.4375 0 "/>
</symbol>
<symbol overflow="visible" id="glyph0-7">
<path style="stroke:none;" d="M 1.179688 -4.578125 L 1.179688 -6.222656 L 2.824219 -6.222656 L 2.824219 -4.578125 Z M 1.179688 0 L 1.179688 -1.648438 L 2.824219 -1.648438 L 2.824219 0 Z M 1.179688 0 "/>
</symbol>
<symbol overflow="visible" id="glyph0-8">
<path style="stroke:none;" d=""/>
</symbol>
<symbol overflow="visible" id="glyph0-9">
<path style="stroke:none;" d="M 4.867188 -3.15625 L 4.867188 -4.605469 L 8.609375 -4.605469 L 8.609375 -1.183594 C 8.242188 -0.832031 7.714844 -0.519531 7.027344 -0.253906 C 6.332031 0.015625 5.636719 0.144531 4.933594 0.148438 C 4.035156 0.144531 3.25 -0.0390625 2.582031 -0.417969 C 1.914063 -0.792969 1.414063 -1.332031 1.078125 -2.035156 C 0.742188 -2.730469 0.574219 -3.496094 0.574219 -4.324219 C 0.574219 -5.214844 0.761719 -6.007813 1.136719 -6.707031 C 1.511719 -7.398438 2.058594 -7.933594 2.78125 -8.308594 C 3.332031 -8.589844 4.019531 -8.730469 4.839844 -8.734375 C 5.902344 -8.730469 6.734375 -8.507813 7.335938 -8.0625 C 7.9375 -7.617188 8.324219 -7 8.496094 -6.210938 L 6.773438 -5.890625 C 6.652344 -6.308594 6.421875 -6.640625 6.089844 -6.886719 C 5.753906 -7.128906 5.339844 -7.253906 4.839844 -7.253906 C 4.082031 -7.253906 3.476563 -7.011719 3.03125 -6.53125 C 2.578125 -6.050781 2.355469 -5.339844 2.359375 -4.394531 C 2.355469 -3.375 2.582031 -2.609375 3.039063 -2.101563 C 3.488281 -1.589844 4.082031 -1.335938 4.820313 -1.335938 C 5.183594 -1.335938 5.546875 -1.40625 5.914063 -1.550781 C 6.273438 -1.691406 6.589844 -1.863281 6.855469 -2.070313 L 6.855469 -3.15625 Z M 4.867188 -3.15625 "/>
</symbol>
<symbol overflow="visible" id="glyph0-10">
<path style="stroke:none;" d="M 0.523438 -4.242188 C 0.519531 -5.117188 0.652344 -5.851563 0.914063 -6.445313 C 1.109375 -6.882813 1.375 -7.273438 1.710938 -7.621094 C 2.046875 -7.96875 2.417969 -8.226563 2.824219 -8.398438 C 3.355469 -8.617188 3.972656 -8.730469 4.675781 -8.734375 C 5.941406 -8.730469 6.953125 -8.339844 7.710938 -7.558594 C 8.46875 -6.773438 8.847656 -5.679688 8.851563 -4.28125 C 8.847656 -2.894531 8.472656 -1.808594 7.722656 -1.027344 C 6.96875 -0.242188 5.960938 0.144531 4.699219 0.148438 C 3.417969 0.144531 2.402344 -0.242188 1.652344 -1.019531 C 0.898438 -1.800781 0.519531 -2.875 0.523438 -4.242188 Z M 2.308594 -4.300781 C 2.308594 -3.328125 2.53125 -2.589844 2.980469 -2.089844 C 3.429688 -1.585938 4 -1.335938 4.695313 -1.335938 C 5.382813 -1.335938 5.949219 -1.582031 6.394531 -2.082031 C 6.835938 -2.574219 7.058594 -3.324219 7.0625 -4.324219 C 7.058594 -5.308594 6.84375 -6.042969 6.414063 -6.527344 C 5.980469 -7.011719 5.40625 -7.253906 4.695313 -7.253906 C 3.976563 -7.253906 3.402344 -7.007813 2.964844 -6.515625 C 2.527344 -6.023438 2.308594 -5.285156 2.308594 -4.300781 Z M 2.308594 -4.300781 "/>
</symbol>
<symbol overflow="visible" id="glyph0-11">
<path style="stroke:none;" d="M 0.921875 0 L 0.921875 -8.519531 L 2.65625 -8.519531 L 2.65625 -1.445313 L 6.96875 -1.445313 L 6.96875 0 Z M 0.921875 0 "/>
</symbol>
<symbol overflow="visible" id="glyph1-0">
<path style="stroke:none;" d="M 1.25 0 L 1.25 -6.25 L 6.25 -6.25 L 6.25 0 Z M 1.40625 -0.15625 L 6.09375 -0.15625 L 6.09375 -6.09375 L 1.40625 -6.09375 Z M 1.40625 -0.15625 "/>
</symbol>
<symbol overflow="visible" id="glyph1-1">
<path style="stroke:none;" d="M 0.640625 0 L 0.640625 -7.15625 L 1.519531 -7.15625 L 1.519531 0 Z M 0.640625 0 "/>
</symbol>
<symbol overflow="visible" id="glyph1-2">
<path style="stroke:none;" d="M 0.332031 -2.59375 C 0.328125 -3.550781 0.59375 -4.261719 1.132813 -4.726563 C 1.574219 -5.109375 2.121094 -5.300781 2.765625 -5.304688 C 3.476563 -5.300781 4.058594 -5.066406 4.511719 -4.601563 C 4.964844 -4.132813 5.191406 -3.488281 5.191406 -2.664063 C 5.191406 -1.996094 5.089844 -1.472656 4.890625 -1.089844 C 4.6875 -0.707031 4.394531 -0.410156 4.015625 -0.199219 C 3.628906 0.0117188 3.214844 0.117188 2.765625 0.117188 C 2.039063 0.117188 1.449219 -0.113281 1.003906 -0.582031 C 0.550781 -1.042969 0.328125 -1.714844 0.332031 -2.59375 Z M 1.234375 -2.59375 C 1.230469 -1.925781 1.375 -1.429688 1.667969 -1.101563 C 1.957031 -0.769531 2.324219 -0.601563 2.765625 -0.605469 C 3.199219 -0.601563 3.558594 -0.769531 3.851563 -1.101563 C 4.140625 -1.433594 4.289063 -1.9375 4.289063 -2.621094 C 4.289063 -3.261719 4.140625 -3.75 3.851563 -4.078125 C 3.554688 -4.40625 3.195313 -4.570313 2.765625 -4.574219 C 2.324219 -4.570313 1.957031 -4.40625 1.667969 -4.082031 C 1.375 -3.75 1.230469 -3.253906 1.234375 -2.59375 Z M 1.234375 -2.59375 "/>
</symbol>
<symbol overflow="visible" id="glyph1-3">
<path style="stroke:none;" d="M 0.5 0.429688 L 1.351563 0.554688 C 1.386719 0.816406 1.484375 1.007813 1.648438 1.132813 C 1.863281 1.289063 2.164063 1.371094 2.542969 1.375 C 2.949219 1.371094 3.261719 1.289063 3.488281 1.132813 C 3.707031 0.96875 3.859375 0.742188 3.9375 0.449219 C 3.980469 0.265625 4 -0.109375 4 -0.679688 C 3.613281 -0.226563 3.132813 0 2.5625 0 C 1.84375 0 1.292969 -0.253906 0.90625 -0.769531 C 0.511719 -1.28125 0.316406 -1.898438 0.320313 -2.621094 C 0.316406 -3.113281 0.40625 -3.570313 0.589844 -3.988281 C 0.765625 -4.40625 1.023438 -4.730469 1.367188 -4.960938 C 1.703125 -5.1875 2.105469 -5.300781 2.570313 -5.304688 C 3.175781 -5.300781 3.679688 -5.054688 4.082031 -4.5625 L 4.082031 -5.1875 L 4.890625 -5.1875 L 4.890625 -0.703125 C 4.886719 0.101563 4.804688 0.671875 4.644531 1.011719 C 4.476563 1.347656 4.214844 1.613281 3.863281 1.8125 C 3.503906 2.003906 3.066406 2.101563 2.546875 2.105469 C 1.925781 2.101563 1.425781 1.964844 1.046875 1.6875 C 0.664063 1.40625 0.480469 0.984375 0.5 0.429688 Z M 1.226563 -2.6875 C 1.222656 -2.003906 1.359375 -1.507813 1.628906 -1.195313 C 1.898438 -0.882813 2.238281 -0.726563 2.648438 -0.726563 C 3.046875 -0.726563 3.382813 -0.878906 3.660156 -1.191406 C 3.929688 -1.5 4.066406 -1.988281 4.070313 -2.65625 C 4.066406 -3.289063 3.925781 -3.769531 3.648438 -4.089844 C 3.363281 -4.410156 3.023438 -4.570313 2.632813 -4.574219 C 2.238281 -4.570313 1.90625 -4.410156 1.636719 -4.097656 C 1.359375 -3.777344 1.222656 -3.308594 1.226563 -2.6875 Z M 1.226563 -2.6875 "/>
</symbol>
<symbol overflow="visible" id="glyph1-4">
<path style="stroke:none;" d=""/>
</symbol>
<symbol overflow="visible" id="glyph1-5">
<path style="stroke:none;" d="M 0.648438 0 L 0.648438 -5.1875 L 1.441406 -5.1875 L 1.441406 -4.398438 C 1.640625 -4.765625 1.824219 -5.007813 2 -5.128906 C 2.167969 -5.242188 2.355469 -5.300781 2.5625 -5.304688 C 2.855469 -5.300781 3.160156 -5.207031 3.46875 -5.019531 L 3.164063 -4.203125 C 2.949219 -4.328125 2.734375 -4.394531 2.519531 -4.394531 C 2.324219 -4.394531 2.148438 -4.335938 2 -4.21875 C 1.84375 -4.101563 1.738281 -3.941406 1.675781 -3.742188 C 1.574219 -3.425781 1.523438 -3.082031 1.527344 -2.714844 L 1.527344 0 Z M 0.648438 0 "/>
</symbol>
<symbol overflow="visible" id="glyph1-6">
<path style="stroke:none;" d="M 4.210938 -1.671875 L 5.117188 -1.558594 C 4.96875 -1.027344 4.703125 -0.613281 4.320313 -0.320313 C 3.929688 -0.0273438 3.4375 0.117188 2.835938 0.117188 C 2.078125 0.117188 1.476563 -0.113281 1.03125 -0.582031 C 0.585938 -1.046875 0.363281 -1.703125 0.367188 -2.546875 C 0.363281 -3.417969 0.585938 -4.097656 1.039063 -4.582031 C 1.484375 -5.0625 2.070313 -5.300781 2.789063 -5.304688 C 3.480469 -5.300781 4.046875 -5.066406 4.488281 -4.59375 C 4.925781 -4.121094 5.144531 -3.457031 5.148438 -2.601563 C 5.144531 -2.546875 5.140625 -2.46875 5.140625 -2.367188 L 1.273438 -2.367188 C 1.304688 -1.796875 1.46875 -1.359375 1.757813 -1.058594 C 2.046875 -0.753906 2.40625 -0.601563 2.84375 -0.605469 C 3.160156 -0.601563 3.433594 -0.6875 3.664063 -0.859375 C 3.890625 -1.027344 4.074219 -1.296875 4.210938 -1.671875 Z M 1.324219 -3.089844 L 4.21875 -3.089844 C 4.179688 -3.523438 4.066406 -3.851563 3.886719 -4.070313 C 3.605469 -4.40625 3.242188 -4.574219 2.796875 -4.578125 C 2.390625 -4.574219 2.050781 -4.441406 1.777344 -4.171875 C 1.5 -3.902344 1.351563 -3.539063 1.324219 -3.089844 Z M 1.324219 -3.089844 "/>
</symbol>
<symbol overflow="visible" id="glyph1-7">
<path style="stroke:none;" d="M 2.578125 -0.785156 L 2.703125 -0.0078125 C 2.453125 0.046875 2.234375 0.0703125 2.039063 0.0703125 C 1.71875 0.0703125 1.46875 0.0195313 1.296875 -0.0820313 C 1.117188 -0.183594 0.996094 -0.316406 0.925781 -0.480469 C 0.855469 -0.644531 0.820313 -0.988281 0.820313 -1.519531 L 0.820313 -4.5 L 0.175781 -4.5 L 0.175781 -5.1875 L 0.820313 -5.1875 L 0.820313 -6.46875 L 1.695313 -6.996094 L 1.695313 -5.1875 L 2.578125 -5.1875 L 2.578125 -4.5 L 1.695313 -4.5 L 1.695313 -1.46875 C 1.691406 -1.214844 1.707031 -1.054688 1.742188 -0.984375 C 1.769531 -0.914063 1.820313 -0.855469 1.890625 -0.8125 C 1.957031 -0.769531 2.058594 -0.75 2.191406 -0.75 C 2.289063 -0.75 2.417969 -0.761719 2.578125 -0.785156 Z M 2.578125 -0.785156 "/>
</symbol>
<symbol overflow="visible" id="glyph1-8">
<path style="stroke:none;" d="M 4.058594 0 L 4.058594 -0.761719 C 3.652344 -0.175781 3.105469 0.117188 2.414063 0.117188 C 2.105469 0.117188 1.816406 0.0585938 1.554688 -0.0585938 C 1.285156 -0.175781 1.089844 -0.320313 0.964844 -0.5 C 0.835938 -0.671875 0.746094 -0.890625 0.695313 -1.152344 C 0.65625 -1.320313 0.636719 -1.59375 0.640625 -1.972656 L 0.640625 -5.1875 L 1.519531 -5.1875 L 1.519531 -2.308594 C 1.515625 -1.847656 1.535156 -1.539063 1.570313 -1.382813 C 1.625 -1.148438 1.742188 -0.964844 1.921875 -0.835938 C 2.101563 -0.703125 2.320313 -0.636719 2.585938 -0.640625 C 2.847656 -0.636719 3.097656 -0.707031 3.328125 -0.84375 C 3.558594 -0.976563 3.722656 -1.160156 3.820313 -1.394531 C 3.914063 -1.625 3.960938 -1.960938 3.964844 -2.40625 L 3.964844 -5.1875 L 4.84375 -5.1875 L 4.84375 0 Z M 4.058594 0 "/>
</symbol>
<symbol overflow="visible" id="glyph1-9">
<path style="stroke:none;" d="M 0.660156 0 L 0.660156 -5.1875 L 1.449219 -5.1875 L 1.449219 -4.449219 C 1.828125 -5.015625 2.378906 -5.300781 3.101563 -5.304688 C 3.410156 -5.300781 3.699219 -5.246094 3.960938 -5.132813 C 4.222656 -5.019531 4.417969 -4.871094 4.550781 -4.691406 C 4.679688 -4.507813 4.769531 -4.292969 4.824219 -4.042969 C 4.855469 -3.878906 4.875 -3.59375 4.875 -3.1875 L 4.875 0 L 3.992188 0 L 3.992188 -3.15625 C 3.988281 -3.511719 3.957031 -3.777344 3.890625 -3.957031 C 3.820313 -4.128906 3.699219 -4.269531 3.527344 -4.378906 C 3.351563 -4.480469 3.144531 -4.535156 2.914063 -4.539063 C 2.535156 -4.535156 2.214844 -4.417969 1.945313 -4.183594 C 1.671875 -3.945313 1.535156 -3.492188 1.539063 -2.832031 L 1.539063 0 Z M 0.660156 0 "/>
</symbol>
<symbol overflow="visible" id="glyph1-10">
<path style="stroke:none;" d="M 0.316406 -2.148438 L 0.316406 -3.03125 L 3.015625 -3.03125 L 3.015625 -2.148438 Z M 0.316406 -2.148438 "/>
</symbol>
<symbol overflow="visible" id="glyph1-11">
<path style="stroke:none;" d="M 0.414063 -3.53125 C 0.410156 -4.375 0.496094 -5.054688 0.675781 -5.574219 C 0.847656 -6.085938 1.109375 -6.484375 1.453125 -6.765625 C 1.796875 -7.042969 2.226563 -7.183594 2.75 -7.1875 C 3.128906 -7.183594 3.464844 -7.105469 3.757813 -6.953125 C 4.046875 -6.796875 4.289063 -6.574219 4.476563 -6.285156 C 4.664063 -5.992188 4.8125 -5.636719 4.921875 -5.222656 C 5.027344 -4.800781 5.078125 -4.238281 5.082031 -3.53125 C 5.078125 -2.6875 4.992188 -2.007813 4.824219 -1.496094 C 4.648438 -0.976563 4.390625 -0.578125 4.050781 -0.300781 C 3.703125 -0.0195313 3.269531 0.117188 2.75 0.121094 C 2.054688 0.117188 1.515625 -0.128906 1.125 -0.621094 C 0.648438 -1.214844 0.410156 -2.183594 0.414063 -3.53125 Z M 1.320313 -3.53125 C 1.316406 -2.351563 1.453125 -1.570313 1.730469 -1.183594 C 2.003906 -0.792969 2.34375 -0.597656 2.75 -0.601563 C 3.148438 -0.597656 3.488281 -0.792969 3.765625 -1.1875 C 4.039063 -1.574219 4.175781 -2.355469 4.179688 -3.53125 C 4.175781 -4.707031 4.039063 -5.488281 3.765625 -5.878906 C 3.488281 -6.261719 3.144531 -6.457031 2.738281 -6.460938 C 2.332031 -6.457031 2.011719 -6.285156 1.773438 -5.945313 C 1.46875 -5.507813 1.316406 -4.703125 1.320313 -3.53125 Z M 1.320313 -3.53125 "/>
</symbol>
<symbol overflow="visible" id="glyph1-12">
<path style="stroke:none;" d="M 0.90625 0 L 0.90625 -1 L 1.910156 -1 L 1.910156 0 Z M 0.90625 0 "/>
</symbol>
<symbol overflow="visible" id="glyph1-13">
<path style="stroke:none;" d="M 5.035156 -0.84375 L 5.035156 0 L 0.304688 0 C 0.296875 -0.210938 0.328125 -0.414063 0.40625 -0.609375 C 0.523438 -0.929688 0.71875 -1.246094 0.984375 -1.5625 C 1.25 -1.871094 1.632813 -2.234375 2.132813 -2.648438 C 2.910156 -3.28125 3.433594 -3.785156 3.710938 -4.160156 C 3.980469 -4.535156 4.117188 -4.886719 4.121094 -5.21875 C 4.117188 -5.566406 3.992188 -5.859375 3.746094 -6.101563 C 3.496094 -6.335938 3.171875 -6.457031 2.773438 -6.460938 C 2.347656 -6.457031 2.011719 -6.328125 1.757813 -6.078125 C 1.5 -5.820313 1.371094 -5.46875 1.371094 -5.023438 L 0.46875 -5.117188 C 0.53125 -5.789063 0.761719 -6.304688 1.167969 -6.65625 C 1.566406 -7.007813 2.109375 -7.183594 2.792969 -7.1875 C 3.476563 -7.183594 4.019531 -6.992188 4.421875 -6.617188 C 4.820313 -6.234375 5.019531 -5.761719 5.023438 -5.199219 C 5.019531 -4.910156 4.960938 -4.628906 4.847656 -4.355469 C 4.726563 -4.074219 4.535156 -3.785156 4.265625 -3.480469 C 3.992188 -3.175781 3.539063 -2.753906 2.910156 -2.222656 C 2.378906 -1.777344 2.039063 -1.476563 1.894531 -1.320313 C 1.742188 -1.160156 1.621094 -1.003906 1.523438 -0.84375 Z M 5.035156 -0.84375 "/>
</symbol>
<symbol overflow="visible" id="glyph1-14">
<path style="stroke:none;" d="M 3.726563 0 L 2.847656 0 L 2.847656 -5.601563 C 2.636719 -5.398438 2.359375 -5.195313 2.015625 -4.992188 C 1.671875 -4.789063 1.363281 -4.636719 1.089844 -4.539063 L 1.089844 -5.390625 C 1.582031 -5.621094 2.011719 -5.898438 2.378906 -6.230469 C 2.746094 -6.554688 3.003906 -6.875 3.160156 -7.1875 L 3.726563 -7.1875 Z M 3.726563 0 "/>
</symbol>
<symbol overflow="visible" id="glyph1-15">
<path style="stroke:none;" d="M 0.742188 0 L 0.742188 -7.15625 L 2.167969 -7.15625 L 3.863281 -2.089844 C 4.015625 -1.617188 4.128906 -1.265625 4.203125 -1.03125 C 4.28125 -1.289063 4.410156 -1.671875 4.585938 -2.179688 L 6.296875 -7.15625 L 7.574219 -7.15625 L 7.574219 0 L 6.660156 0 L 6.660156 -5.992188 L 4.578125 0 L 3.726563 0 L 1.65625 -6.09375 L 1.65625 0 Z M 0.742188 0 "/>
</symbol>
<symbol overflow="visible" id="glyph1-16">
<path style="stroke:none;" d="M 0.734375 0 L 0.734375 -7.15625 L 1.679688 -7.15625 L 1.679688 -0.84375 L 5.203125 -0.84375 L 5.203125 0 Z M 0.734375 0 "/>
</symbol>
<symbol overflow="visible" id="glyph1-17">
<path style="stroke:none;" d="M 0.789063 0 L 0.789063 -7.15625 L 5.96875 -7.15625 L 5.96875 -6.3125 L 1.738281 -6.3125 L 1.738281 -4.121094 L 5.699219 -4.121094 L 5.699219 -3.28125 L 1.738281 -3.28125 L 1.738281 -0.84375 L 6.132813 -0.84375 L 6.132813 0 Z M 0.789063 0 "/>
</symbol>
<symbol overflow="visible" id="glyph1-18">
<path style="stroke:none;" d="M 4.042969 -0.640625 C 3.714844 -0.359375 3.398438 -0.164063 3.101563 -0.0546875 C 2.796875 0.0625 2.476563 0.117188 2.132813 0.117188 C 1.5625 0.117188 1.125 -0.0195313 0.820313 -0.300781 C 0.511719 -0.574219 0.355469 -0.929688 0.359375 -1.367188 C 0.355469 -1.617188 0.414063 -1.851563 0.53125 -2.0625 C 0.644531 -2.273438 0.796875 -2.441406 0.988281 -2.566406 C 1.171875 -2.691406 1.382813 -2.785156 1.621094 -2.855469 C 1.789063 -2.898438 2.050781 -2.945313 2.402344 -2.988281 C 3.113281 -3.074219 3.632813 -3.171875 3.96875 -3.289063 C 3.96875 -3.40625 3.972656 -3.484375 3.976563 -3.519531 C 3.972656 -3.875 3.890625 -4.128906 3.726563 -4.277344 C 3.5 -4.472656 3.164063 -4.570313 2.726563 -4.574219 C 2.308594 -4.570313 2.003906 -4.496094 1.808594 -4.355469 C 1.609375 -4.207031 1.464844 -3.953125 1.371094 -3.589844 L 0.511719 -3.707031 C 0.585938 -4.070313 0.714844 -4.367188 0.898438 -4.597656 C 1.074219 -4.820313 1.335938 -4.996094 1.675781 -5.121094 C 2.011719 -5.242188 2.402344 -5.300781 2.851563 -5.304688 C 3.292969 -5.300781 3.652344 -5.25 3.929688 -5.148438 C 4.203125 -5.042969 4.40625 -4.910156 4.539063 -4.753906 C 4.667969 -4.589844 4.757813 -4.390625 4.8125 -4.15625 C 4.839844 -4 4.855469 -3.730469 4.859375 -3.34375 L 4.859375 -2.171875 C 4.855469 -1.351563 4.875 -0.835938 4.914063 -0.621094 C 4.949219 -0.402344 5.023438 -0.195313 5.136719 0 L 4.21875 0 C 4.125 -0.179688 4.066406 -0.390625 4.042969 -0.640625 Z M 3.96875 -2.601563 C 3.648438 -2.46875 3.171875 -2.355469 2.535156 -2.269531 C 2.171875 -2.214844 1.914063 -2.15625 1.765625 -2.09375 C 1.613281 -2.023438 1.5 -1.929688 1.417969 -1.808594 C 1.335938 -1.679688 1.292969 -1.539063 1.296875 -1.390625 C 1.292969 -1.152344 1.382813 -0.957031 1.5625 -0.804688 C 1.738281 -0.644531 2 -0.566406 2.34375 -0.570313 C 2.679688 -0.566406 2.980469 -0.640625 3.246094 -0.792969 C 3.507813 -0.9375 3.699219 -1.140625 3.828125 -1.402344 C 3.917969 -1.597656 3.964844 -1.890625 3.96875 -2.28125 Z M 3.96875 -2.601563 "/>
</symbol>
<symbol overflow="visible" id="glyph1-19">
<path style="stroke:none;" d="M 0.308594 -1.546875 L 1.175781 -1.683594 C 1.222656 -1.332031 1.359375 -1.066406 1.582031 -0.882813 C 1.804688 -0.695313 2.117188 -0.601563 2.519531 -0.605469 C 2.921875 -0.601563 3.21875 -0.683594 3.417969 -0.851563 C 3.609375 -1.011719 3.707031 -1.207031 3.710938 -1.429688 C 3.707031 -1.625 3.621094 -1.78125 3.453125 -1.898438 C 3.328125 -1.976563 3.03125 -2.074219 2.554688 -2.195313 C 1.90625 -2.355469 1.457031 -2.496094 1.210938 -2.617188 C 0.960938 -2.734375 0.773438 -2.898438 0.644531 -3.113281 C 0.515625 -3.320313 0.449219 -3.554688 0.453125 -3.808594 C 0.449219 -4.039063 0.503906 -4.25 0.613281 -4.449219 C 0.71875 -4.644531 0.863281 -4.808594 1.046875 -4.941406 C 1.179688 -5.039063 1.363281 -5.125 1.601563 -5.199219 C 1.835938 -5.265625 2.089844 -5.300781 2.363281 -5.304688 C 2.765625 -5.300781 3.125 -5.242188 3.433594 -5.128906 C 3.742188 -5.007813 3.96875 -4.851563 4.117188 -4.652344 C 4.261719 -4.449219 4.363281 -4.179688 4.417969 -3.847656 L 3.558594 -3.730469 C 3.515625 -3.996094 3.402344 -4.203125 3.21875 -4.355469 C 3.027344 -4.5 2.765625 -4.574219 2.425781 -4.578125 C 2.019531 -4.574219 1.730469 -4.507813 1.5625 -4.378906 C 1.386719 -4.242188 1.300781 -4.085938 1.304688 -3.910156 C 1.300781 -3.792969 1.335938 -3.691406 1.410156 -3.601563 C 1.480469 -3.503906 1.59375 -3.425781 1.75 -3.367188 C 1.832031 -3.332031 2.089844 -3.257813 2.523438 -3.144531 C 3.144531 -2.976563 3.578125 -2.839844 3.824219 -2.734375 C 4.070313 -2.628906 4.261719 -2.476563 4.402344 -2.273438 C 4.539063 -2.070313 4.609375 -1.820313 4.613281 -1.523438 C 4.609375 -1.230469 4.523438 -0.953125 4.355469 -0.695313 C 4.183594 -0.433594 3.9375 -0.234375 3.617188 -0.09375 C 3.289063 0.046875 2.925781 0.117188 2.523438 0.117188 C 1.847656 0.117188 1.335938 -0.0195313 0.984375 -0.300781 C 0.628906 -0.578125 0.402344 -0.996094 0.308594 -1.546875 Z M 0.308594 -1.546875 "/>
</symbol>
<symbol overflow="visible" id="glyph1-20">
<path style="stroke:none;" d="M 0.664063 -6.148438 L 0.664063 -7.15625 L 1.542969 -7.15625 L 1.542969 -6.148438 Z M 0.664063 0 L 0.664063 -5.1875 L 1.542969 -5.1875 L 1.542969 0 Z M 0.664063 0 "/>
</symbol>
<symbol overflow="visible" id="glyph1-21">
<path style="stroke:none;" d="M 0.660156 0 L 0.660156 -5.1875 L 1.445313 -5.1875 L 1.445313 -4.457031 C 1.605469 -4.710938 1.820313 -4.914063 2.09375 -5.070313 C 2.359375 -5.222656 2.667969 -5.300781 3.015625 -5.304688 C 3.398438 -5.300781 3.714844 -5.222656 3.960938 -5.0625 C 4.207031 -4.902344 4.378906 -4.679688 4.484375 -4.394531 C 4.890625 -5 5.425781 -5.300781 6.085938 -5.304688 C 6.597656 -5.300781 6.992188 -5.160156 7.269531 -4.875 C 7.546875 -4.589844 7.6875 -4.148438 7.6875 -3.558594 L 7.6875 0 L 6.8125 0 L 6.8125 -3.265625 C 6.808594 -3.613281 6.78125 -3.867188 6.726563 -4.023438 C 6.667969 -4.175781 6.5625 -4.300781 6.414063 -4.398438 C 6.261719 -4.488281 6.085938 -4.535156 5.890625 -4.539063 C 5.523438 -4.535156 5.222656 -4.414063 4.980469 -4.175781 C 4.738281 -3.929688 4.617188 -3.542969 4.617188 -3.011719 L 4.617188 0 L 3.742188 0 L 3.742188 -3.367188 C 3.738281 -3.753906 3.667969 -4.046875 3.527344 -4.246094 C 3.382813 -4.4375 3.144531 -4.535156 2.820313 -4.539063 C 2.570313 -4.535156 2.34375 -4.46875 2.136719 -4.34375 C 1.921875 -4.210938 1.769531 -4.023438 1.679688 -3.773438 C 1.582031 -3.523438 1.535156 -3.160156 1.539063 -2.691406 L 1.539063 0 Z M 0.660156 0 "/>
</symbol>
<symbol overflow="visible" id="glyph1-22">
<path style="stroke:none;" d="M 0.0742188 0 L 1.96875 -2.695313 L 0.214844 -5.1875 L 1.3125 -5.1875 L 2.109375 -3.96875 C 2.257813 -3.734375 2.375 -3.542969 2.46875 -3.390625 C 2.609375 -3.601563 2.742188 -3.792969 2.867188 -3.960938 L 3.742188 -5.1875 L 4.789063 -5.1875 L 3 -2.742188 L 4.925781 0 L 3.847656 0 L 2.78125 -1.609375 L 2.5 -2.046875 L 1.136719 0 Z M 0.0742188 0 "/>
</symbol>
<symbol overflow="visible" id="glyph2-0">
<path style="stroke:none;" d="M 0 -1.25 L -6.25 -1.25 L -6.25 -6.25 L 0 -6.25 Z M -0.15625 -1.40625 L -0.15625 -6.09375 L -6.09375 -6.09375 L -6.09375 -1.40625 Z M -0.15625 -1.40625 "/>
</symbol>
<symbol overflow="visible" id="glyph2-1">
<path style="stroke:none;" d="M 0 -0.773438 L -7.15625 -0.773438 L -7.15625 -3.238281 C -7.152344 -3.789063 -7.121094 -4.214844 -7.054688 -4.511719 C -6.960938 -4.917969 -6.789063 -5.265625 -6.542969 -5.5625 C -6.21875 -5.9375 -5.808594 -6.21875 -5.316406 -6.40625 C -4.816406 -6.589844 -4.25 -6.683594 -3.617188 -6.6875 C -3.070313 -6.683594 -2.589844 -6.621094 -2.171875 -6.496094 C -1.75 -6.367188 -1.402344 -6.203125 -1.128906 -6.007813 C -0.851563 -5.804688 -0.636719 -5.589844 -0.480469 -5.355469 C -0.320313 -5.121094 -0.199219 -4.835938 -0.121094 -4.503906 C -0.0390625 -4.167969 0 -3.785156 0 -3.355469 Z M -0.84375 -1.71875 L -0.84375 -3.246094 C -0.84375 -3.714844 -0.886719 -4.082031 -0.976563 -4.355469 C -1.0625 -4.621094 -1.1875 -4.835938 -1.347656 -5 C -1.570313 -5.21875 -1.871094 -5.394531 -2.25 -5.523438 C -2.628906 -5.644531 -3.089844 -5.707031 -3.632813 -5.710938 C -4.382813 -5.707031 -4.957031 -5.585938 -5.359375 -5.34375 C -5.757813 -5.097656 -6.027344 -4.796875 -6.167969 -4.449219 C -6.261719 -4.191406 -6.308594 -3.785156 -6.3125 -3.222656 L -6.3125 -1.71875 Z M -0.84375 -1.71875 "/>
</symbol>
<symbol overflow="visible" id="glyph2-2">
<path style="stroke:none;" d="M -1.667969 -4.210938 L -1.558594 -5.117188 C -1.027344 -4.96875 -0.613281 -4.703125 -0.320313 -4.320313 C -0.0273438 -3.929688 0.117188 -3.4375 0.117188 -2.835938 C 0.117188 -2.078125 -0.113281 -1.476563 -0.582031 -1.03125 C -1.046875 -0.585938 -1.703125 -0.363281 -2.546875 -0.367188 C -3.417969 -0.363281 -4.097656 -0.585938 -4.582031 -1.039063 C -5.0625 -1.484375 -5.300781 -2.070313 -5.304688 -2.789063 C -5.300781 -3.480469 -5.066406 -4.046875 -4.59375 -4.488281 C -4.121094 -4.925781 -3.457031 -5.144531 -2.601563 -5.148438 C -2.546875 -5.144531 -2.46875 -5.140625 -2.367188 -5.140625 L -2.367188 -1.273438 C -1.796875 -1.304688 -1.359375 -1.46875 -1.058594 -1.757813 C -0.753906 -2.046875 -0.601563 -2.40625 -0.605469 -2.84375 C -0.601563 -3.160156 -0.6875 -3.433594 -0.859375 -3.664063 C -1.027344 -3.890625 -1.296875 -4.074219 -1.667969 -4.210938 Z M -3.089844 -1.324219 L -3.089844 -4.21875 C -3.523438 -4.179688 -3.851563 -4.066406 -4.070313 -3.886719 C -4.40625 -3.605469 -4.574219 -3.242188 -4.578125 -2.796875 C -4.574219 -2.390625 -4.441406 -2.050781 -4.171875 -1.777344 C -3.902344 -1.5 -3.539063 -1.351563 -3.089844 -1.324219 Z M -3.089844 -1.324219 "/>
</symbol>
<symbol overflow="visible" id="glyph2-3">
<path style="stroke:none;" d="M 0 -0.660156 L -5.1875 -0.660156 L -5.1875 -1.449219 L -4.449219 -1.449219 C -5.015625 -1.828125 -5.300781 -2.378906 -5.304688 -3.101563 C -5.300781 -3.410156 -5.246094 -3.699219 -5.132813 -3.960938 C -5.019531 -4.222656 -4.871094 -4.417969 -4.691406 -4.550781 C -4.507813 -4.679688 -4.292969 -4.769531 -4.042969 -4.824219 C -3.878906 -4.855469 -3.59375 -4.875 -3.1875 -4.875 L 0 -4.875 L 0 -3.992188 L -3.152344 -3.992188 C -3.511719 -3.992188 -3.777344 -3.960938 -3.957031 -3.890625 C -4.128906 -3.820313 -4.269531 -3.699219 -4.378906 -3.527344 C -4.480469 -3.351563 -4.535156 -3.144531 -4.539063 -2.914063 C -4.535156 -2.539063 -4.417969 -2.21875 -4.183594 -1.945313 C -3.945313 -1.671875 -3.492188 -1.535156 -2.832031 -1.539063 L 0 -1.539063 Z M 0 -0.660156 "/>
</symbol>
<symbol overflow="visible" id="glyph2-4">
<path style="stroke:none;" d="M -1.546875 -0.308594 L -1.683594 -1.175781 C -1.332031 -1.222656 -1.066406 -1.359375 -0.882813 -1.582031 C -0.695313 -1.804688 -0.601563 -2.117188 -0.605469 -2.519531 C -0.601563 -2.921875 -0.683594 -3.21875 -0.851563 -3.417969 C -1.011719 -3.609375 -1.207031 -3.707031 -1.429688 -3.710938 C -1.625 -3.707031 -1.78125 -3.621094 -1.898438 -3.453125 C -1.976563 -3.328125 -2.074219 -3.03125 -2.195313 -2.554688 C -2.355469 -1.90625 -2.496094 -1.457031 -2.617188 -1.210938 C -2.734375 -0.960938 -2.898438 -0.773438 -3.113281 -0.644531 C -3.320313 -0.515625 -3.554688 -0.449219 -3.808594 -0.453125 C -4.039063 -0.449219 -4.25 -0.503906 -4.449219 -0.613281 C -4.644531 -0.71875 -4.808594 -0.863281 -4.941406 -1.046875 C -5.039063 -1.179688 -5.125 -1.363281 -5.199219 -1.601563 C -5.265625 -1.835938 -5.300781 -2.089844 -5.304688 -2.363281 C -5.300781 -2.765625 -5.242188 -3.125 -5.128906 -3.433594 C -5.007813 -3.742188 -4.851563 -3.96875 -4.652344 -4.117188 C -4.449219 -4.261719 -4.179688 -4.363281 -3.847656 -4.417969 L -3.730469 -3.558594 C -3.996094 -3.515625 -4.203125 -3.402344 -4.355469 -3.21875 C -4.5 -3.03125 -4.574219 -2.769531 -4.578125 -2.425781 C -4.574219 -2.019531 -4.507813 -1.730469 -4.378906 -1.5625 C -4.242188 -1.386719 -4.085938 -1.300781 -3.910156 -1.304688 C -3.792969 -1.300781 -3.691406 -1.335938 -3.601563 -1.410156 C -3.503906 -1.480469 -3.425781 -1.59375 -3.367188 -1.75 C -3.332031 -1.832031 -3.257813 -2.089844 -3.144531 -2.523438 C -2.976563 -3.144531 -2.839844 -3.578125 -2.734375 -3.824219 C -2.628906 -4.070313 -2.476563 -4.261719 -2.273438 -4.402344 C -2.070313 -4.539063 -1.820313 -4.609375 -1.523438 -4.613281 C -1.226563 -4.609375 -0.949219 -4.523438 -0.695313 -4.355469 C -0.433594 -4.183594 -0.234375 -3.9375 -0.09375 -3.617188 C 0.046875 -3.289063 0.117188 -2.925781 0.117188 -2.523438 C 0.117188 -1.847656 -0.0195313 -1.335938 -0.300781 -0.984375 C -0.578125 -0.628906 -0.996094 -0.402344 -1.546875 -0.308594 Z M -1.546875 -0.308594 "/>
</symbol>
<symbol overflow="visible" id="glyph2-5">
<path style="stroke:none;" d="M -6.148438 -0.664063 L -7.15625 -0.664063 L -7.15625 -1.542969 L -6.148438 -1.542969 Z M 0 -0.664063 L -5.1875 -0.664063 L -5.1875 -1.542969 L 0 -1.542969 Z M 0 -0.664063 "/>
</symbol>
<symbol overflow="visible" id="glyph2-6">
<path style="stroke:none;" d="M -0.785156 -2.578125 L -0.0078125 -2.703125 C 0.046875 -2.453125 0.0703125 -2.234375 0.0703125 -2.039063 C 0.0703125 -1.71875 0.0195313 -1.46875 -0.0820313 -1.296875 C -0.183594 -1.117188 -0.316406 -0.996094 -0.480469 -0.925781 C -0.644531 -0.855469 -0.988281 -0.820313 -1.519531 -0.820313 L -4.5 -0.820313 L -4.5 -0.175781 L -5.1875 -0.175781 L -5.1875 -0.820313 L -6.46875 -0.820313 L -6.996094 -1.695313 L -5.1875 -1.695313 L -5.1875 -2.578125 L -4.5 -2.578125 L -4.5 -1.695313 L -1.46875 -1.695313 C -1.214844 -1.691406 -1.054688 -1.707031 -0.984375 -1.742188 C -0.914063 -1.769531 -0.855469 -1.820313 -0.8125 -1.890625 C -0.769531 -1.957031 -0.75 -2.058594 -0.75 -2.191406 C -0.75 -2.289063 -0.761719 -2.417969 -0.785156 -2.578125 Z M -0.785156 -2.578125 "/>
</symbol>
<symbol overflow="visible" id="glyph2-7">
<path style="stroke:none;" d="M 1.996094 -0.621094 L 1.171875 -0.523438 C 1.222656 -0.710938 1.246094 -0.878906 1.25 -1.023438 C 1.246094 -1.21875 1.214844 -1.375 1.152344 -1.496094 C 1.085938 -1.609375 0.996094 -1.707031 0.878906 -1.78125 C 0.789063 -1.835938 0.570313 -1.925781 0.226563 -2.050781 C 0.175781 -2.066406 0.105469 -2.089844 0.0117188 -2.128906 L -5.1875 -0.160156 L -5.1875 -1.109375 L -2.183594 -2.1875 C -1.796875 -2.324219 -1.394531 -2.449219 -0.980469 -2.5625 C -1.378906 -2.660156 -1.773438 -2.78125 -2.164063 -2.925781 L -5.1875 -4.03125 L -5.1875 -4.914063 L 0.0898438 -2.9375 C 0.652344 -2.722656 1.046875 -2.558594 1.265625 -2.445313 C 1.554688 -2.285156 1.765625 -2.105469 1.902344 -1.90625 C 2.035156 -1.703125 2.101563 -1.464844 2.105469 -1.1875 C 2.101563 -1.015625 2.066406 -0.828125 1.996094 -0.621094 Z M 1.996094 -0.621094 "/>
</symbol>
<symbol overflow="visible" id="glyph2-8">
<path style="stroke:none;" d="M -3.53125 -0.414063 C -4.375 -0.410156 -5.054688 -0.496094 -5.574219 -0.675781 C -6.085938 -0.847656 -6.484375 -1.109375 -6.765625 -1.453125 C -7.042969 -1.796875 -7.183594 -2.226563 -7.1875 -2.75 C -7.183594 -3.128906 -7.105469 -3.464844 -6.953125 -3.757813 C -6.796875 -4.046875 -6.574219 -4.289063 -6.285156 -4.476563 C -5.992188 -4.664063 -5.636719 -4.8125 -5.222656 -4.921875 C -4.800781 -5.027344 -4.238281 -5.078125 -3.53125 -5.082031 C -2.6875 -5.078125 -2.007813 -4.992188 -1.496094 -4.824219 C -0.976563 -4.648438 -0.578125 -4.390625 -0.300781 -4.050781 C -0.0195313 -3.703125 0.117188 -3.269531 0.121094 -2.75 C 0.117188 -2.054688 -0.128906 -1.515625 -0.621094 -1.125 C -1.214844 -0.648438 -2.183594 -0.410156 -3.53125 -0.414063 Z M -3.53125 -1.320313 C -2.351563 -1.316406 -1.570313 -1.453125 -1.183594 -1.730469 C -0.792969 -2.003906 -0.597656 -2.34375 -0.601563 -2.75 C -0.597656 -3.148438 -0.792969 -3.488281 -1.1875 -3.765625 C -1.574219 -4.039063 -2.355469 -4.175781 -3.53125 -4.179688 C -4.707031 -4.175781 -5.488281 -4.039063 -5.878906 -3.765625 C -6.261719 -3.488281 -6.457031 -3.144531 -6.460938 -2.738281 C -6.457031 -2.332031 -6.285156 -2.011719 -5.945313 -1.773438 C -5.507813 -1.46875 -4.703125 -1.316406 -3.53125 -1.320313 Z M -3.53125 -1.320313 "/>
</symbol>
<symbol overflow="visible" id="glyph2-9">
<path style="stroke:none;" d="M -1.875 -0.414063 L -1.953125 -1.339844 C -1.5 -1.40625 -1.164063 -1.5625 -0.941406 -1.8125 C -0.710938 -2.058594 -0.597656 -2.359375 -0.601563 -2.714844 C -0.597656 -3.136719 -0.757813 -3.496094 -1.078125 -3.789063 C -1.398438 -4.078125 -1.820313 -4.222656 -2.347656 -4.226563 C -2.847656 -4.222656 -3.242188 -4.082031 -3.535156 -3.804688 C -3.820313 -3.519531 -3.964844 -3.152344 -3.96875 -2.699219 C -3.964844 -2.414063 -3.902344 -2.160156 -3.777344 -1.933594 C -3.648438 -1.707031 -3.480469 -1.527344 -3.277344 -1.398438 L -3.382813 -0.570313 L -7.0625 -1.265625 L -7.0625 -4.824219 L -6.21875 -4.824219 L -6.21875 -1.96875 L -4.296875 -1.582031 C -4.59375 -2.011719 -4.746094 -2.460938 -4.746094 -2.933594 C -4.746094 -3.554688 -4.527344 -4.082031 -4.09375 -4.515625 C -3.660156 -4.941406 -3.105469 -5.15625 -2.425781 -5.160156 C -1.777344 -5.15625 -1.214844 -4.96875 -0.746094 -4.59375 C -0.167969 -4.132813 0.117188 -3.503906 0.121094 -2.714844 C 0.117188 -2.058594 -0.0625 -1.527344 -0.425781 -1.121094 C -0.789063 -0.707031 -1.273438 -0.472656 -1.875 -0.414063 Z M -1.875 -0.414063 "/>
</symbol>
<symbol overflow="visible" id="glyph2-10">
<path style="stroke:none;" d="M 0 -3.726563 L 0 -2.847656 L -5.601563 -2.847656 C -5.398438 -2.636719 -5.195313 -2.359375 -4.992188 -2.015625 C -4.789063 -1.671875 -4.636719 -1.363281 -4.539063 -1.089844 L -5.390625 -1.089844 C -5.621094 -1.582031 -5.898438 -2.011719 -6.230469 -2.378906 C -6.554688 -2.746094 -6.875 -3.003906 -7.1875 -3.160156 L -7.1875 -3.726563 Z M 0 -3.726563 "/>
</symbol>
<symbol overflow="visible" id="glyph2-11">
<path style="stroke:none;" d="M -0.84375 -5.035156 L 0 -5.035156 L 0 -0.304688 C -0.210938 -0.296875 -0.414063 -0.328125 -0.609375 -0.40625 C -0.929688 -0.523438 -1.246094 -0.71875 -1.5625 -0.984375 C -1.871094 -1.25 -2.234375 -1.632813 -2.648438 -2.132813 C -3.28125 -2.910156 -3.785156 -3.433594 -4.160156 -3.710938 C -4.535156 -3.980469 -4.886719 -4.117188 -5.21875 -4.121094 C -5.566406 -4.117188 -5.859375 -3.992188 -6.101563 -3.746094 C -6.335938 -3.496094 -6.457031 -3.171875 -6.460938 -2.773438 C -6.457031 -2.347656 -6.328125 -2.011719 -6.078125 -1.757813 C -5.820313 -1.503906 -5.46875 -1.375 -5.023438 -1.371094 L -5.117188 -0.46875 C -5.789063 -0.53125 -6.304688 -0.761719 -6.65625 -1.167969 C -7.007813 -1.566406 -7.183594 -2.109375 -7.1875 -2.792969 C -7.183594 -3.476563 -6.992188 -4.019531 -6.617188 -4.421875 C -6.234375 -4.820313 -5.761719 -5.019531 -5.199219 -5.023438 C -4.910156 -5.019531 -4.628906 -4.960938 -4.355469 -4.847656 C -4.074219 -4.726563 -3.785156 -4.535156 -3.480469 -4.265625 C -3.175781 -3.992188 -2.753906 -3.539063 -2.222656 -2.910156 C -1.777344 -2.378906 -1.476563 -2.039063 -1.320313 -1.894531 C -1.160156 -1.742188 -1.003906 -1.621094 -0.84375 -1.523438 Z M -0.84375 -5.035156 "/>
</symbol>
<symbol overflow="visible" id="glyph2-12">
<path style="stroke:none;" d="M -1.890625 -0.421875 L -2.007813 -1.300781 C -1.503906 -1.398438 -1.144531 -1.566406 -0.929688 -1.8125 C -0.707031 -2.054688 -0.597656 -2.351563 -0.601563 -2.699219 C -0.597656 -3.109375 -0.742188 -3.457031 -1.03125 -3.746094 C -1.316406 -4.027344 -1.667969 -4.171875 -2.09375 -4.175781 C -2.492188 -4.171875 -2.824219 -4.039063 -3.089844 -3.777344 C -3.347656 -3.511719 -3.480469 -3.175781 -3.484375 -2.773438 C -3.480469 -2.601563 -3.449219 -2.394531 -3.390625 -2.152344 L -4.160156 -2.25 C -4.152344 -2.308594 -4.148438 -2.355469 -4.148438 -2.394531 C -4.148438 -2.765625 -4.246094 -3.101563 -4.441406 -3.402344 C -4.636719 -3.699219 -4.9375 -3.847656 -5.347656 -3.851563 C -5.664063 -3.847656 -5.929688 -3.738281 -6.144531 -3.523438 C -6.355469 -3.304688 -6.460938 -3.023438 -6.464844 -2.679688 C -6.460938 -2.335938 -6.355469 -2.050781 -6.140625 -1.824219 C -5.925781 -1.59375 -5.601563 -1.449219 -5.175781 -1.386719 L -5.332031 -0.507813 C -5.917969 -0.613281 -6.371094 -0.855469 -6.699219 -1.238281 C -7.019531 -1.617188 -7.183594 -2.09375 -7.1875 -2.660156 C -7.183594 -3.050781 -7.097656 -3.410156 -6.933594 -3.738281 C -6.761719 -4.066406 -6.535156 -4.316406 -6.25 -4.496094 C -5.957031 -4.667969 -5.648438 -4.757813 -5.328125 -4.757813 C -5.015625 -4.757813 -4.734375 -4.671875 -4.480469 -4.507813 C -4.226563 -4.335938 -4.023438 -4.089844 -3.875 -3.769531 C -3.773438 -4.191406 -3.574219 -4.523438 -3.269531 -4.757813 C -2.960938 -4.992188 -2.574219 -5.109375 -2.113281 -5.109375 C -1.484375 -5.109375 -0.953125 -4.878906 -0.523438 -4.425781 C -0.0859375 -3.964844 0.128906 -3.390625 0.128906 -2.695313 C 0.128906 -2.066406 -0.0585938 -1.542969 -0.433594 -1.128906 C -0.808594 -0.710938 -1.292969 -0.476563 -1.890625 -0.421875 Z M -1.890625 -0.421875 "/>
</symbol>
</g>
<clipPath id="clip1">
  <path d="M 261 49.199219 L 406.800781 49.199219 L 406.800781 86 L 261 86 Z M 261 49.199219 "/>
</clipPath>
<clipPath id="clip2">
  <path d="M 260 49.199219 L 406.800781 49.199219 L 406.800781 86 L 260 86 Z M 260 49.199219 "/>
</clipPath>
</defs>
<g id="surface171">
<rect x="0" y="0" width="432" height="360" style="fill:rgb(100%,100%,100%);fill-opacity:1;stroke:none;"/>
<g style="fill:rgb(0%,0%,0%);fill-opacity:1;">
  <use xlink:href="#glyph0-1" x="184.324219" y="28.894531"/>
  <use xlink:href="#glyph0-2" x="191.654297" y="28.894531"/>
  <use xlink:href="#glyph0-3" x="194.988281" y="28.894531"/>
  <use xlink:href="#glyph0-4" x="201.662109" y="28.894531"/>
  <use xlink:href="#glyph0-5" x="208.335938" y="28.894531"/>
  <use xlink:href="#glyph0-6" x="215.009766" y="28.894531"/>
  <use xlink:href="#glyph0-7" x="219.679688" y="28.894531"/>
  <use xlink:href="#glyph0-8" x="223.675781" y="28.894531"/>
  <use xlink:href="#glyph0-9" x="227.009766" y="28.894531"/>
  <use xlink:href="#glyph0-10" x="236.34375" y="28.894531"/>
  <use xlink:href="#glyph0-10" x="245.677734" y="28.894531"/>
  <use xlink:href="#glyph0-9" x="255.011719" y="28.894531"/>
  <use xlink:href="#glyph0-11" x="264.345703" y="28.894531"/>
</g>
<g style="fill:rgb(0%,0%,0%);fill-opacity:1;">
  <use xlink:href="#glyph1-1" x="206.875" y="344.398438"/>
  <use xlink:href="#glyph1-2" x="209.09668" y="344.398438"/>
  <use xlink:href="#glyph1-3" x="214.658203" y="344.398438"/>
  <use xlink:href="#glyph1-4" x="220.219727" y="344.398438"/>
  <use xlink:href="#glyph1-5" x="222.998047" y="344.398438"/>
  <use xlink:href="#glyph1-6" x="226.328125" y="344.398438"/>
  <use xlink:href="#glyph1-7" x="231.889648" y="344.398438"/>
  <use xlink:href="#glyph1-8" x="234.667969" y="344.398438"/>
  <use xlink:href="#glyph1-5" x="240.229492" y="344.398438"/>
  <use xlink:href="#glyph1-9" x="243.55957" y="344.398438"/>
</g>
<g style="fill:rgb(0%,0%,0%);fill-opacity:1;">
  <use xlink:href="#glyph2-1" x="10.800781" y="190.671875"/>
  <use xlink:href="#glyph2-2" x="10.800781" y="183.450195"/>
  <use xlink:href="#glyph2-3" x="10.800781" y="177.888672"/>
  <use xlink:href="#glyph2-4" x="10.800781" y="172.327148"/>
  <use xlink:href="#glyph2-5" x="10.800781" y="167.327148"/>
  <use xlink:href="#glyph2-6" x="10.800781" y="165.105469"/>
  <use xlink:href="#glyph2-7" x="10.800781" y="162.327148"/>
</g>
<path style="fill:none;stroke-width:0.75;stroke-linecap:round;stroke-linejoin:round;stroke:rgb(0%,0%,0%);stroke-opacity:1;stroke-miterlimit:10;" d="M 62.445313 298.800781 L 393.554688 298.800781 "/>
<path style="fill:none;stroke-width:0.75;stroke-linecap:round;stroke-linejoin:round;stroke:rgb(0%,0%,0%);stroke-opacity:1;stroke-miterlimit:10;" d="M 62.445313 298.800781 L 62.445313 304.800781 "/>
<path style="fill:none;stroke-width:0.75;stroke-linecap:round;stroke-linejoin:round;stroke:rgb(0%,0%,0%);stroke-opacity:1;stroke-miterlimit:10;" d="M 145.222656 298.800781 L 145.222656 304.800781 "/>
<path style="fill:none;stroke-width:0.75;stroke-linecap:round;stroke-linejoin:round;stroke:rgb(0%,0%,0%);stroke-opacity:1;stroke-miterlimit:10;" d="M 228 298.800781 L 228 304.800781 "/>
<path style="fill:none;stroke-width:0.75;stroke-linecap:round;stroke-linejoin:round;stroke:rgb(0%,0%,0%);stroke-opacity:1;stroke-miterlimit:10;" d="M 310.777344 298.800781 L 310.777344 304.800781 "/>
<path style="fill:none;stroke-width:0.75;stroke-linecap:round;stroke-linejoin:round;stroke:rgb(0%,0%,0%);stroke-opacity:1;stroke-miterlimit:10;" d="M 393.554688 298.800781 L 393.554688 304.800781 "/>
<g style="fill:rgb(0%,0%,0%);fill-opacity:1;">
  <use xlink:href="#glyph1-10" x="53.828125" y="320.398438"/>
  <use xlink:href="#glyph1-11" x="57.158203" y="320.398438"/>
  <use xlink:href="#glyph1-12" x="62.719727" y="320.398438"/>
  <use xlink:href="#glyph1-13" x="65.498047" y="320.398438"/>
</g>
<g style="fill:rgb(0%,0%,0%);fill-opacity:1;">
  <use xlink:href="#glyph1-10" x="136.605469" y="320.398438"/>
  <use xlink:href="#glyph1-11" x="139.935547" y="320.398438"/>
  <use xlink:href="#glyph1-12" x="145.49707" y="320.398438"/>
  <use xlink:href="#glyph1-14" x="148.275391" y="320.398438"/>
</g>
<g style="fill:rgb(0%,0%,0%);fill-opacity:1;">
  <use xlink:href="#glyph1-11" x="221.050781" y="320.398438"/>
  <use xlink:href="#glyph1-12" x="226.612305" y="320.398438"/>
  <use xlink:href="#glyph1-11" x="229.390625" y="320.398438"/>
</g>
<g style="fill:rgb(0%,0%,0%);fill-opacity:1;">
  <use xlink:href="#glyph1-11" x="303.828125" y="320.398438"/>
  <use xlink:href="#glyph1-12" x="309.389648" y="320.398438"/>
  <use xlink:href="#glyph1-14" x="312.167969" y="320.398438"/>
</g>
<g style="fill:rgb(0%,0%,0%);fill-opacity:1;">
  <use xlink:href="#glyph1-11" x="386.605469" y="320.398438"/>
  <use xlink:href="#glyph1-12" x="392.166992" y="320.398438"/>
  <use xlink:href="#glyph1-13" x="394.945313" y="320.398438"/>
</g>
<path style="fill:none;stroke-width:0.75;stroke-linecap:round;stroke-linejoin:round;stroke:rgb(0%,0%,0%);stroke-opacity:1;stroke-miterlimit:10;" d="M 49.199219 289.554688 L 49.199219 67.230469 "/>
<path style="fill:none;stroke-width:0.75;stroke-linecap:round;stroke-linejoin:round;stroke:rgb(0%,0%,0%);stroke-opacity:1;stroke-miterlimit:10;" d="M 49.199219 289.554688 L 43.199219 289.554688 "/>
<path style="fill:none;stroke-width:0.75;stroke-linecap:round;stroke-linejoin:round;stroke:rgb(0%,0%,0%);stroke-opacity:1;stroke-miterlimit:10;" d="M 49.199219 252.5 L 43.199219 252.5 "/>
<path style="fill:none;stroke-width:0.75;stroke-linecap:round;stroke-linejoin:round;stroke:rgb(0%,0%,0%);stroke-opacity:1;stroke-miterlimit:10;" d="M 49.199219 215.445313 L 43.199219 215.445313 "/>
<path style="fill:none;stroke-width:0.75;stroke-linecap:round;stroke-linejoin:round;stroke:rgb(0%,0%,0%);stroke-opacity:1;stroke-miterlimit:10;" d="M 49.199219 178.390625 L 43.199219 178.390625 "/>
<path style="fill:none;stroke-width:0.75;stroke-linecap:round;stroke-linejoin:round;stroke:rgb(0%,0%,0%);stroke-opacity:1;stroke-miterlimit:10;" d="M 49.199219 141.335938 L 43.199219 141.335938 "/>
<path style="fill:none;stroke-width:0.75;stroke-linecap:round;stroke-linejoin:round;stroke:rgb(0%,0%,0%);stroke-opacity:1;stroke-miterlimit:10;" d="M 49.199219 104.285156 L 43.199219 104.285156 "/>
<path style="fill:none;stroke-width:0.75;stroke-linecap:round;stroke-linejoin:round;stroke:rgb(0%,0%,0%);stroke-opacity:1;stroke-miterlimit:10;" d="M 49.199219 67.230469 L 43.199219 67.230469 "/>
<g style="fill:rgb(0%,0%,0%);fill-opacity:1;">
  <use xlink:href="#glyph2-8" x="34.800781" y="292.335938"/>
</g>
<g style="fill:rgb(0%,0%,0%);fill-opacity:1;">
  <use xlink:href="#glyph2-9" x="34.800781" y="255.28125"/>
</g>
<g style="fill:rgb(0%,0%,0%);fill-opacity:1;">
  <use xlink:href="#glyph2-10" x="34.800781" y="221.007813"/>
  <use xlink:href="#glyph2-8" x="34.800781" y="215.446289"/>
</g>
<g style="fill:rgb(0%,0%,0%);fill-opacity:1;">
  <use xlink:href="#glyph2-10" x="34.800781" y="183.953125"/>
  <use xlink:href="#glyph2-9" x="34.800781" y="178.391602"/>
</g>
<g style="fill:rgb(0%,0%,0%);fill-opacity:1;">
  <use xlink:href="#glyph2-11" x="34.800781" y="146.898438"/>
  <use xlink:href="#glyph2-8" x="34.800781" y="141.336914"/>
</g>
<g style="fill:rgb(0%,0%,0%);fill-opacity:1;">
  <use xlink:href="#glyph2-11" x="34.800781" y="109.847656"/>
  <use xlink:href="#glyph2-9" x="34.800781" y="104.286133"/>
</g>
<g style="fill:rgb(0%,0%,0%);fill-opacity:1;">
  <use xlink:href="#glyph2-12" x="34.800781" y="72.792969"/>
  <use xlink:href="#glyph2-8" x="34.800781" y="67.231445"/>
</g>
<path style="fill-rule:nonzero;fill:rgb(50.196078%,69.411765%,82.745098%);fill-opacity:1;stroke-width:0.75;stroke-linecap:round;stroke-linejoin:round;stroke:rgb(100%,100%,100%);stroke-opacity:1;stroke-miterlimit:10;" d="M 124.527344 289.554688 L 128.667969 289.554688 L 128.667969 288.964844 L 124.527344 288.964844 Z M 124.527344 289.554688 "/>
<path style="fill:none;stroke-width:0.75;stroke-linecap:round;stroke-linejoin:round;stroke:rgb(100%,100%,100%);stroke-opacity:1;stroke-miterlimit:10;" d="M 128.667969 289.554688 L 132.808594 289.554688 Z M 128.667969 289.554688 "/>
<path style="fill:none;stroke-width:0.75;stroke-linecap:round;stroke-linejoin:round;stroke:rgb(100%,100%,100%);stroke-opacity:1;stroke-miterlimit:10;" d="M 132.804688 289.554688 L 136.945313 289.554688 Z M 132.804688 289.554688 "/>
<path style="fill:none;stroke-width:0.75;stroke-linecap:round;stroke-linejoin:round;stroke:rgb(100%,100%,100%);stroke-opacity:1;stroke-miterlimit:10;" d="M 136.945313 289.554688 L 141.085938 289.554688 Z M 136.945313 289.554688 "/>
<path style="fill:none;stroke-width:0.75;stroke-linecap:round;stroke-linejoin:round;stroke:rgb(100%,100%,100%);stroke-opacity:1;stroke-miterlimit:10;" d="M 141.082031 289.554688 L 145.222656 289.554688 Z M 141.082031 289.554688 "/>
<path style="fill-rule:nonzero;fill:rgb(50.196078%,69.411765%,82.745098%);fill-opacity:1;stroke-width:0.75;stroke-linecap:round;stroke-linejoin:round;stroke:rgb(100%,100%,100%);stroke-opacity:1;stroke-miterlimit:10;" d="M 145.222656 289.554688 L 149.363281 289.554688 L 149.363281 288.375 L 145.222656 288.375 Z M 145.222656 289.554688 "/>
<path style="fill:none;stroke-width:0.75;stroke-linecap:round;stroke-linejoin:round;stroke:rgb(100%,100%,100%);stroke-opacity:1;stroke-miterlimit:10;" d="M 149.359375 289.554688 L 153.5 289.554688 Z M 149.359375 289.554688 "/>
<path style="fill-rule:nonzero;fill:rgb(50.196078%,69.411765%,82.745098%);fill-opacity:1;stroke-width:0.75;stroke-linecap:round;stroke-linejoin:round;stroke:rgb(100%,100%,100%);stroke-opacity:1;stroke-miterlimit:10;" d="M 153.5 289.554688 L 157.640625 289.554688 L 157.640625 288.964844 L 153.5 288.964844 Z M 153.5 289.554688 "/>
<path style="fill:none;stroke-width:0.75;stroke-linecap:round;stroke-linejoin:round;stroke:rgb(100%,100%,100%);stroke-opacity:1;stroke-miterlimit:10;" d="M 157.640625 289.554688 L 161.78125 289.554688 Z M 157.640625 289.554688 "/>
<path style="fill-rule:nonzero;fill:rgb(50.196078%,69.411765%,82.745098%);fill-opacity:1;stroke-width:0.75;stroke-linecap:round;stroke-linejoin:round;stroke:rgb(100%,100%,100%);stroke-opacity:1;stroke-miterlimit:10;" d="M 161.777344 289.554688 L 165.917969 289.554688 L 165.917969 286.605469 L 161.777344 286.605469 Z M 161.777344 289.554688 "/>
<path style="fill:none;stroke-width:0.75;stroke-linecap:round;stroke-linejoin:round;stroke:rgb(100%,100%,100%);stroke-opacity:1;stroke-miterlimit:10;" d="M 165.917969 289.554688 L 170.058594 289.554688 Z M 165.917969 289.554688 "/>
<path style="fill:none;stroke-width:0.75;stroke-linecap:round;stroke-linejoin:round;stroke:rgb(100%,100%,100%);stroke-opacity:1;stroke-miterlimit:10;" d="M 170.054688 289.554688 L 174.195313 289.554688 Z M 170.054688 289.554688 "/>
<path style="fill-rule:nonzero;fill:rgb(50.196078%,69.411765%,82.745098%);fill-opacity:1;stroke-width:0.75;stroke-linecap:round;stroke-linejoin:round;stroke:rgb(100%,100%,100%);stroke-opacity:1;stroke-miterlimit:10;" d="M 174.195313 289.554688 L 178.335938 289.554688 L 178.335938 287.785156 L 174.195313 287.785156 Z M 174.195313 289.554688 "/>
<path style="fill-rule:nonzero;fill:rgb(50.196078%,69.411765%,82.745098%);fill-opacity:1;stroke-width:0.75;stroke-linecap:round;stroke-linejoin:round;stroke:rgb(100%,100%,100%);stroke-opacity:1;stroke-miterlimit:10;" d="M 178.332031 289.554688 L 182.472656 289.554688 L 182.472656 286.015625 L 178.332031 286.015625 Z M 178.332031 289.554688 "/>
<path style="fill-rule:nonzero;fill:rgb(50.196078%,69.411765%,82.745098%);fill-opacity:1;stroke-width:0.75;stroke-linecap:round;stroke-linejoin:round;stroke:rgb(100%,100%,100%);stroke-opacity:1;stroke-miterlimit:10;" d="M 182.472656 289.554688 L 186.613281 289.554688 L 186.613281 284.839844 L 182.472656 284.839844 Z M 182.472656 289.554688 "/>
<path style="fill-rule:nonzero;fill:rgb(50.196078%,69.411765%,82.745098%);fill-opacity:1;stroke-width:0.75;stroke-linecap:round;stroke-linejoin:round;stroke:rgb(100%,100%,100%);stroke-opacity:1;stroke-miterlimit:10;" d="M 186.609375 289.554688 L 190.75 289.554688 L 190.75 279.53125 L 186.609375 279.53125 Z M 186.609375 289.554688 "/>
<path style="fill-rule:nonzero;fill:rgb(50.196078%,69.411765%,82.745098%);fill-opacity:1;stroke-width:0.75;stroke-linecap:round;stroke-linejoin:round;stroke:rgb(100%,100%,100%);stroke-opacity:1;stroke-miterlimit:10;" d="M 190.75 289.554688 L 194.890625 289.554688 L 194.890625 280.710938 L 190.75 280.710938 Z M 190.75 289.554688 "/>
<path style="fill-rule:nonzero;fill:rgb(50.196078%,69.411765%,82.745098%);fill-opacity:1;stroke-width:0.75;stroke-linecap:round;stroke-linejoin:round;stroke:rgb(100%,100%,100%);stroke-opacity:1;stroke-miterlimit:10;" d="M 194.890625 289.554688 L 199.03125 289.554688 L 199.03125 277.171875 L 194.890625 277.171875 Z M 194.890625 289.554688 "/>
<path style="fill-rule:nonzero;fill:rgb(50.196078%,69.411765%,82.745098%);fill-opacity:1;stroke-width:0.75;stroke-linecap:round;stroke-linejoin:round;stroke:rgb(100%,100%,100%);stroke-opacity:1;stroke-miterlimit:10;" d="M 199.027344 289.554688 L 203.167969 289.554688 L 203.167969 271.867188 L 199.027344 271.867188 Z M 199.027344 289.554688 "/>
<path style="fill-rule:nonzero;fill:rgb(50.196078%,69.411765%,82.745098%);fill-opacity:1;stroke-width:0.75;stroke-linecap:round;stroke-linejoin:round;stroke:rgb(100%,100%,100%);stroke-opacity:1;stroke-miterlimit:10;" d="M 203.167969 289.554688 L 207.308594 289.554688 L 207.308594 258.308594 L 203.167969 258.308594 Z M 203.167969 289.554688 "/>
<path style="fill-rule:nonzero;fill:rgb(50.196078%,69.411765%,82.745098%);fill-opacity:1;stroke-width:0.75;stroke-linecap:round;stroke-linejoin:round;stroke:rgb(100%,100%,100%);stroke-opacity:1;stroke-miterlimit:10;" d="M 207.304688 289.554688 L 211.445313 289.554688 L 211.445313 241.210938 L 207.304688 241.210938 Z M 207.304688 289.554688 "/>
<path style="fill-rule:nonzero;fill:rgb(50.196078%,69.411765%,82.745098%);fill-opacity:1;stroke-width:0.75;stroke-linecap:round;stroke-linejoin:round;stroke:rgb(100%,100%,100%);stroke-opacity:1;stroke-miterlimit:10;" d="M 211.445313 289.554688 L 215.585938 289.554688 L 215.585938 227.648438 L 211.445313 227.648438 Z M 211.445313 289.554688 "/>
<path style="fill-rule:nonzero;fill:rgb(50.196078%,69.411765%,82.745098%);fill-opacity:1;stroke-width:0.75;stroke-linecap:round;stroke-linejoin:round;stroke:rgb(100%,100%,100%);stroke-opacity:1;stroke-miterlimit:10;" d="M 215.582031 289.554688 L 219.722656 289.554688 L 219.722656 186.378906 L 215.582031 186.378906 Z M 215.582031 289.554688 "/>
<path style="fill-rule:nonzero;fill:rgb(50.196078%,69.411765%,82.745098%);fill-opacity:1;stroke-width:0.75;stroke-linecap:round;stroke-linejoin:round;stroke:rgb(100%,100%,100%);stroke-opacity:1;stroke-miterlimit:10;" d="M 219.722656 289.554688 L 223.863281 289.554688 L 223.863281 145.109375 L 219.722656 145.109375 Z M 219.722656 289.554688 "/>
<path style="fill-rule:nonzero;fill:rgb(50.196078%,69.411765%,82.745098%);fill-opacity:1;stroke-width:0.75;stroke-linecap:round;stroke-linejoin:round;stroke:rgb(100%,100%,100%);stroke-opacity:1;stroke-miterlimit:10;" d="M 223.859375 289.554688 L 228 289.554688 L 228 58.445313 L 223.859375 58.445313 Z M 223.859375 289.554688 "/>
<path style="fill-rule:nonzero;fill:rgb(50.196078%,69.411765%,82.745098%);fill-opacity:1;stroke-width:0.75;stroke-linecap:round;stroke-linejoin:round;stroke:rgb(100%,100%,100%);stroke-opacity:1;stroke-miterlimit:10;" d="M 228 289.554688 L 232.140625 289.554688 L 232.140625 63.160156 L 228 63.160156 Z M 228 289.554688 "/>
<path style="fill-rule:nonzero;fill:rgb(50.196078%,69.411765%,82.745098%);fill-opacity:1;stroke-width:0.75;stroke-linecap:round;stroke-linejoin:round;stroke:rgb(100%,100%,100%);stroke-opacity:1;stroke-miterlimit:10;" d="M 232.140625 289.554688 L 236.28125 289.554688 L 236.28125 90.871094 L 232.140625 90.871094 Z M 232.140625 289.554688 "/>
<path style="fill-rule:nonzero;fill:rgb(50.196078%,69.411765%,82.745098%);fill-opacity:1;stroke-width:0.75;stroke-linecap:round;stroke-linejoin:round;stroke:rgb(100%,100%,100%);stroke-opacity:1;stroke-miterlimit:10;" d="M 236.277344 289.554688 L 240.417969 289.554688 L 240.417969 153.953125 L 236.277344 153.953125 Z M 236.277344 289.554688 "/>
<path style="fill-rule:nonzero;fill:rgb(50.196078%,69.411765%,82.745098%);fill-opacity:1;stroke-width:0.75;stroke-linecap:round;stroke-linejoin:round;stroke:rgb(100%,100%,100%);stroke-opacity:1;stroke-miterlimit:10;" d="M 240.417969 289.554688 L 244.558594 289.554688 L 244.558594 195.222656 L 240.417969 195.222656 Z M 240.417969 289.554688 "/>
<path style="fill-rule:nonzero;fill:rgb(50.196078%,69.411765%,82.745098%);fill-opacity:1;stroke-width:0.75;stroke-linecap:round;stroke-linejoin:round;stroke:rgb(100%,100%,100%);stroke-opacity:1;stroke-miterlimit:10;" d="M 244.554688 289.554688 L 248.695313 289.554688 L 248.695313 242.390625 L 244.554688 242.390625 Z M 244.554688 289.554688 "/>
<path style="fill-rule:nonzero;fill:rgb(50.196078%,69.411765%,82.745098%);fill-opacity:1;stroke-width:0.75;stroke-linecap:round;stroke-linejoin:round;stroke:rgb(100%,100%,100%);stroke-opacity:1;stroke-miterlimit:10;" d="M 248.695313 289.554688 L 252.835938 289.554688 L 252.835938 255.949219 L 248.695313 255.949219 Z M 248.695313 289.554688 "/>
<path style="fill-rule:nonzero;fill:rgb(50.196078%,69.411765%,82.745098%);fill-opacity:1;stroke-width:0.75;stroke-linecap:round;stroke-linejoin:round;stroke:rgb(100%,100%,100%);stroke-opacity:1;stroke-miterlimit:10;" d="M 252.832031 289.554688 L 256.972656 289.554688 L 256.972656 271.277344 L 252.832031 271.277344 Z M 252.832031 289.554688 "/>
<path style="fill-rule:nonzero;fill:rgb(50.196078%,69.411765%,82.745098%);fill-opacity:1;stroke-width:0.75;stroke-linecap:round;stroke-linejoin:round;stroke:rgb(100%,100%,100%);stroke-opacity:1;stroke-miterlimit:10;" d="M 256.972656 289.554688 L 261.113281 289.554688 L 261.113281 274.816406 L 256.972656 274.816406 Z M 256.972656 289.554688 "/>
<path style="fill-rule:nonzero;fill:rgb(50.196078%,69.411765%,82.745098%);fill-opacity:1;stroke-width:0.75;stroke-linecap:round;stroke-linejoin:round;stroke:rgb(100%,100%,100%);stroke-opacity:1;stroke-miterlimit:10;" d="M 261.109375 289.554688 L 265.25 289.554688 L 265.25 279.53125 L 261.109375 279.53125 Z M 261.109375 289.554688 "/>
<path style="fill-rule:nonzero;fill:rgb(50.196078%,69.411765%,82.745098%);fill-opacity:1;stroke-width:0.75;stroke-linecap:round;stroke-linejoin:round;stroke:rgb(100%,100%,100%);stroke-opacity:1;stroke-miterlimit:10;" d="M 265.25 289.554688 L 269.390625 289.554688 L 269.390625 285.425781 L 265.25 285.425781 Z M 265.25 289.554688 "/>
<path style="fill-rule:nonzero;fill:rgb(50.196078%,69.411765%,82.745098%);fill-opacity:1;stroke-width:0.75;stroke-linecap:round;stroke-linejoin:round;stroke:rgb(100%,100%,100%);stroke-opacity:1;stroke-miterlimit:10;" d="M 269.390625 289.554688 L 273.53125 289.554688 L 273.53125 285.425781 L 269.390625 285.425781 Z M 269.390625 289.554688 "/>
<path style="fill-rule:nonzero;fill:rgb(50.196078%,69.411765%,82.745098%);fill-opacity:1;stroke-width:0.75;stroke-linecap:round;stroke-linejoin:round;stroke:rgb(100%,100%,100%);stroke-opacity:1;stroke-miterlimit:10;" d="M 273.527344 289.554688 L 277.667969 289.554688 L 277.667969 287.785156 L 273.527344 287.785156 Z M 273.527344 289.554688 "/>
<path style="fill-rule:nonzero;fill:rgb(50.196078%,69.411765%,82.745098%);fill-opacity:1;stroke-width:0.75;stroke-linecap:round;stroke-linejoin:round;stroke:rgb(100%,100%,100%);stroke-opacity:1;stroke-miterlimit:10;" d="M 277.667969 289.554688 L 281.808594 289.554688 L 281.808594 288.375 L 277.667969 288.375 Z M 277.667969 289.554688 "/>
<path style="fill-rule:nonzero;fill:rgb(50.196078%,69.411765%,82.745098%);fill-opacity:1;stroke-width:0.75;stroke-linecap:round;stroke-linejoin:round;stroke:rgb(100%,100%,100%);stroke-opacity:1;stroke-miterlimit:10;" d="M 281.804688 289.554688 L 285.945313 289.554688 L 285.945313 288.964844 L 281.804688 288.964844 Z M 281.804688 289.554688 "/>
<path style="fill-rule:nonzero;fill:rgb(50.196078%,69.411765%,82.745098%);fill-opacity:1;stroke-width:0.75;stroke-linecap:round;stroke-linejoin:round;stroke:rgb(100%,100%,100%);stroke-opacity:1;stroke-miterlimit:10;" d="M 285.945313 289.554688 L 290.085938 289.554688 L 290.085938 286.605469 L 285.945313 286.605469 Z M 285.945313 289.554688 "/>
<path style="fill-rule:nonzero;fill:rgb(50.196078%,69.411765%,82.745098%);fill-opacity:1;stroke-width:0.75;stroke-linecap:round;stroke-linejoin:round;stroke:rgb(100%,100%,100%);stroke-opacity:1;stroke-miterlimit:10;" d="M 290.082031 289.554688 L 294.222656 289.554688 L 294.222656 288.964844 L 290.082031 288.964844 Z M 290.082031 289.554688 "/>
<path style="fill:none;stroke-width:0.75;stroke-linecap:round;stroke-linejoin:round;stroke:rgb(100%,100%,100%);stroke-opacity:1;stroke-miterlimit:10;" d="M 294.222656 289.554688 L 298.363281 289.554688 Z M 294.222656 289.554688 "/>
<path style="fill-rule:nonzero;fill:rgb(50.196078%,69.411765%,82.745098%);fill-opacity:1;stroke-width:0.75;stroke-linecap:round;stroke-linejoin:round;stroke:rgb(100%,100%,100%);stroke-opacity:1;stroke-miterlimit:10;" d="M 298.359375 289.554688 L 302.5 289.554688 L 302.5 287.785156 L 298.359375 287.785156 Z M 298.359375 289.554688 "/>
<path style="fill-rule:nonzero;fill:rgb(50.196078%,69.411765%,82.745098%);fill-opacity:1;stroke-width:0.75;stroke-linecap:round;stroke-linejoin:round;stroke:rgb(100%,100%,100%);stroke-opacity:1;stroke-miterlimit:10;" d="M 302.5 289.554688 L 306.640625 289.554688 L 306.640625 288.375 L 302.5 288.375 Z M 302.5 289.554688 "/>
<path style="fill-rule:nonzero;fill:rgb(50.196078%,69.411765%,82.745098%);fill-opacity:1;stroke-width:0.75;stroke-linecap:round;stroke-linejoin:round;stroke:rgb(100%,100%,100%);stroke-opacity:1;stroke-miterlimit:10;" d="M 306.640625 289.554688 L 310.78125 289.554688 L 310.78125 288.964844 L 306.640625 288.964844 Z M 306.640625 289.554688 "/>
<path style="fill:none;stroke-width:1.5;stroke-linecap:round;stroke-linejoin:round;stroke:rgb(0%,0%,0%);stroke-opacity:1;stroke-dasharray:6,6;stroke-miterlimit:10;" d="M 125.617188 289.546875 L 126.898438 289.546875 L 127.082031 289.542969 L 128.914063 289.542969 L 129.097656 289.539063 L 130.5625 289.539063 L 130.746094 289.535156 L 131.84375 289.535156 L 132.027344 289.53125 L 133.125 289.53125 L 133.308594 289.527344 L 134.042969 289.527344 L 134.226563 289.523438 L 134.957031 289.523438 L 135.140625 289.519531 L 135.691406 289.519531 L 135.871094 289.515625 L 136.421875 289.515625 L 136.605469 289.511719 L 136.972656 289.511719 L 137.15625 289.507813 L 137.703125 289.507813 L 137.886719 289.503906 L 138.253906 289.503906 L 138.4375 289.5 L 138.804688 289.5 L 138.988281 289.496094 L 139.167969 289.496094 L 139.351563 289.492188 L 139.71875 289.492188 L 139.902344 289.488281 L 140.085938 289.488281 L 140.269531 289.484375 L 140.636719 289.484375 L 140.816406 289.480469 L 141 289.480469 L 141.183594 289.476563 L 141.367188 289.476563 L 141.550781 289.472656 L 141.734375 289.472656 L 141.917969 289.46875 L 142.101563 289.46875 L 142.28125 289.464844 L 142.464844 289.464844 L 142.832031 289.457031 L 143.015625 289.457031 L 143.199219 289.453125 L 143.382813 289.453125 L 143.75 289.445313 L 143.929688 289.445313 L 144.296875 289.4375 L 144.480469 289.4375 L 144.847656 289.429688 L 145.03125 289.429688 L 145.398438 289.421875 L 145.578125 289.417969 L 145.761719 289.417969 L 147.046875 289.390625 L 147.226563 289.390625 L 148.328125 289.367188 L 148.511719 289.359375 L 148.695313 289.355469 L 148.875 289.351563 L 149.609375 289.335938 L 149.792969 289.328125 L 150.160156 289.320313 L 150.339844 289.316406 L 150.523438 289.308594 L 150.707031 289.304688 L 150.890625 289.296875 L 151.257813 289.289063 L 151.441406 289.28125 L 151.625 289.277344 L 151.808594 289.269531 L 151.988281 289.265625 L 152.355469 289.25 L 152.539063 289.246094 L 152.722656 289.238281 L 152.90625 289.234375 L 153.457031 289.210938 L 153.636719 289.203125 L 153.820313 289.199219 L 155.105469 289.144531 L 155.285156 289.136719 L 155.46875 289.128906 L 155.652344 289.117188 L 156.019531 289.101563 L 156.203125 289.089844 L 156.570313 289.074219 L 156.75 289.0625 L 156.933594 289.054688 L 157.117188 289.042969 L 157.300781 289.035156 L 157.484375 289.023438 L 157.667969 289.015625 L 158.21875 288.980469 L 158.398438 288.96875 L 158.582031 288.960938 L 159.316406 288.914063 L 159.5 288.898438 L 159.867188 288.875 L 160.046875 288.863281 L 160.230469 288.851563 L 160.414063 288.835938 L 160.597656 288.824219 L 160.78125 288.808594 L 160.964844 288.796875 L 161.332031 288.765625 L 161.515625 288.753906 L 161.695313 288.738281 L 163.164063 288.613281 L 163.34375 288.59375 L 163.527344 288.578125 L 163.710938 288.558594 L 163.894531 288.542969 L 164.078125 288.523438 L 164.261719 288.507813 L 164.628906 288.46875 L 164.808594 288.449219 L 165.910156 288.332031 L 166.09375 288.308594 L 166.277344 288.289063 L 166.457031 288.265625 L 166.640625 288.246094 L 167.007813 288.199219 L 167.191406 288.179688 L 167.742188 288.109375 L 167.925781 288.082031 L 168.105469 288.058594 L 168.472656 288.011719 L 168.839844 287.957031 L 169.023438 287.933594 L 169.574219 287.851563 L 169.753906 287.824219 L 170.304688 287.742188 L 170.488281 287.710938 L 170.671875 287.683594 L 170.855469 287.652344 L 171.039063 287.625 L 171.21875 287.59375 L 172.136719 287.4375 L 172.320313 287.402344 L 172.503906 287.371094 L 172.6875 287.335938 L 172.867188 287.304688 L 173.96875 287.09375 L 174.152344 287.054688 L 174.335938 287.019531 L 174.515625 286.980469 L 174.699219 286.941406 L 174.882813 286.90625 L 175.433594 286.789063 L 175.617188 286.746094 L 175.800781 286.707031 L 175.984375 286.664063 L 176.164063 286.625 L 177.449219 286.324219 L 177.632813 286.277344 L 177.8125 286.230469 L 177.996094 286.1875 L 178.546875 286.046875 L 178.730469 285.996094 L 179.097656 285.902344 L 179.277344 285.851563 L 179.644531 285.75 L 179.828125 285.703125 L 180.011719 285.648438 L 180.378906 285.546875 L 180.5625 285.492188 L 180.746094 285.441406 L 180.925781 285.386719 L 181.84375 285.113281 L 182.027344 285.054688 L 182.210938 285 L 182.394531 284.941406 L 182.574219 284.882813 L 183.125 284.707031 L 183.308594 284.644531 L 183.492188 284.585938 L 183.859375 284.460938 L 184.042969 284.402344 L 184.222656 284.339844 L 184.40625 284.273438 L 184.773438 284.148438 L 185.140625 284.015625 L 185.324219 283.953125 L 185.507813 283.886719 L 185.691406 283.816406 L 185.871094 283.75 L 186.054688 283.683594 L 186.421875 283.542969 L 186.605469 283.476563 L 186.789063 283.40625 L 186.972656 283.332031 L 187.15625 283.261719 L 187.335938 283.191406 L 187.703125 283.042969 L 187.886719 282.972656 L 188.070313 282.894531 L 188.4375 282.746094 L 188.621094 282.667969 L 188.804688 282.59375 L 188.984375 282.515625 L 189.167969 282.4375 L 189.351563 282.355469 L 189.535156 282.277344 L 190.453125 281.867188 L 190.632813 281.78125 L 191.183594 281.523438 L 191.367188 281.433594 L 191.550781 281.347656 L 191.734375 281.253906 L 192.101563 281.074219 L 192.28125 280.980469 L 192.464844 280.886719 L 193.199219 280.496094 L 193.566406 280.292969 L 193.746094 280.191406 L 193.929688 280.085938 L 194.113281 279.976563 L 194.296875 279.871094 L 194.480469 279.761719 L 194.847656 279.535156 L 195.214844 279.300781 L 195.394531 279.183594 L 195.578125 279.058594 L 195.761719 278.9375 L 196.128906 278.679688 L 196.496094 278.414063 L 196.679688 278.277344 L 196.863281 278.136719 L 197.042969 277.992188 L 197.226563 277.847656 L 197.410156 277.699219 L 197.777344 277.386719 L 197.960938 277.226563 L 198.144531 277.0625 L 198.328125 276.894531 L 198.511719 276.722656 L 198.691406 276.542969 L 198.875 276.363281 L 199.058594 276.175781 L 199.242188 275.984375 L 199.425781 275.785156 L 199.609375 275.582031 L 199.792969 275.375 L 199.976563 275.160156 L 200.160156 274.941406 L 200.339844 274.714844 L 200.523438 274.480469 L 200.707031 274.242188 L 200.890625 273.996094 L 201.074219 273.742188 L 201.257813 273.480469 L 201.441406 273.210938 L 201.625 272.933594 L 201.804688 272.644531 L 201.988281 272.351563 L 202.171875 272.046875 L 202.355469 271.734375 L 202.539063 271.410156 L 202.722656 271.078125 L 202.90625 270.734375 L 203.089844 270.382813 L 203.273438 270.015625 L 203.453125 269.640625 L 203.636719 269.253906 L 203.820313 268.855469 L 204.003906 268.441406 L 204.1875 268.015625 L 204.371094 267.578125 L 204.554688 267.128906 L 204.738281 266.664063 L 204.921875 266.183594 L 205.101563 265.691406 L 205.285156 265.183594 L 205.46875 264.660156 L 205.652344 264.121094 L 205.835938 263.566406 L 206.019531 262.996094 L 206.203125 262.410156 L 206.386719 261.804688 L 206.570313 261.179688 L 206.75 260.539063 L 206.933594 259.882813 L 207.117188 259.207031 L 207.300781 258.511719 L 207.484375 257.796875 L 207.667969 257.0625 L 207.851563 256.308594 L 208.035156 255.53125 L 208.214844 254.738281 L 208.398438 253.921875 L 208.582031 253.085938 L 208.765625 252.230469 L 208.949219 251.347656 L 209.132813 250.449219 L 209.316406 249.523438 L 209.5 248.578125 L 209.683594 247.613281 L 209.863281 246.621094 L 210.046875 245.609375 L 210.230469 244.570313 L 210.414063 243.511719 L 210.597656 242.429688 L 210.78125 241.324219 L 210.964844 240.195313 L 211.148438 239.039063 L 211.332031 237.863281 L 211.511719 236.664063 L 211.695313 235.441406 L 211.878906 234.195313 L 212.0625 232.925781 L 212.246094 231.632813 L 212.429688 230.320313 L 212.613281 228.980469 L 212.796875 227.621094 L 212.980469 226.238281 L 213.160156 224.832031 L 213.34375 223.40625 L 213.527344 221.957031 L 213.710938 220.488281 L 213.894531 218.996094 L 214.078125 217.488281 L 214.261719 215.957031 L 214.445313 214.410156 L 214.628906 212.84375 L 214.808594 211.257813 L 214.992188 209.652344 L 215.175781 208.035156 L 215.359375 206.398438 L 215.542969 204.746094 L 215.726563 203.082031 L 215.910156 201.402344 L 216.09375 199.707031 L 216.273438 198.003906 L 216.457031 196.289063 L 216.640625 194.5625 L 216.824219 192.824219 L 217.007813 191.082031 L 217.375 187.574219 L 217.742188 184.042969 L 217.921875 182.273438 L 218.105469 180.5 L 218.289063 178.730469 L 218.472656 176.957031 L 218.65625 175.1875 L 218.839844 173.421875 L 219.023438 171.660156 L 219.207031 169.902344 L 219.390625 168.15625 L 219.570313 166.414063 L 219.753906 164.683594 L 219.9375 162.964844 L 220.121094 161.257813 L 220.304688 159.5625 L 220.488281 157.886719 L 220.671875 156.222656 L 220.855469 154.582031 L 221.039063 152.957031 L 221.21875 151.355469 L 221.402344 149.773438 L 221.585938 148.21875 L 221.769531 146.6875 L 221.953125 145.183594 L 222.136719 143.707031 L 222.320313 142.257813 L 222.503906 140.839844 L 222.683594 139.457031 L 222.867188 138.105469 L 223.050781 136.785156 L 223.234375 135.503906 L 223.417969 134.261719 L 223.601563 133.054688 L 223.785156 131.886719 L 223.96875 130.761719 L 224.152344 129.675781 L 224.332031 128.632813 L 224.515625 127.636719 L 224.699219 126.679688 L 224.882813 125.773438 L 225.066406 124.914063 L 225.25 124.097656 L 225.433594 123.335938 L 225.617188 122.617188 L 225.800781 121.953125 L 225.980469 121.335938 L 226.164063 120.773438 L 226.347656 120.261719 L 226.53125 119.800781 L 226.714844 119.394531 L 226.898438 119.039063 L 227.082031 118.738281 L 227.265625 118.492188 L 227.449219 118.300781 L 227.628906 118.164063 L 227.8125 118.082031 L 227.996094 118.054688 L 228.179688 118.078125 L 228.363281 118.160156 L 228.546875 118.296875 L 228.730469 118.484375 L 228.914063 118.730469 L 229.097656 119.027344 L 229.277344 119.378906 L 229.460938 119.785156 L 229.644531 120.242188 L 229.828125 120.753906 L 230.011719 121.316406 L 230.195313 121.929688 L 230.378906 122.59375 L 230.5625 123.308594 L 230.742188 124.070313 L 230.925781 124.882813 L 231.109375 125.742188 L 231.292969 126.648438 L 231.476563 127.601563 L 231.660156 128.597656 L 231.84375 129.636719 L 232.027344 130.722656 L 232.210938 131.847656 L 232.390625 133.011719 L 232.574219 134.21875 L 232.757813 135.460938 L 232.941406 136.742188 L 233.125 138.058594 L 233.308594 139.40625 L 233.492188 140.792969 L 233.675781 142.207031 L 233.859375 143.65625 L 234.039063 145.128906 L 234.222656 146.632813 L 234.40625 148.164063 L 234.589844 149.71875 L 234.773438 151.300781 L 234.957031 152.902344 L 235.140625 154.523438 L 235.324219 156.167969 L 235.507813 157.828125 L 235.6875 159.503906 L 235.871094 161.195313 L 236.054688 162.902344 L 236.238281 164.621094 L 236.421875 166.351563 L 236.605469 168.09375 L 236.789063 169.84375 L 236.972656 171.597656 L 237.152344 173.359375 L 237.335938 175.125 L 237.519531 176.894531 L 237.886719 180.441406 L 238.4375 185.75 L 238.621094 187.511719 L 238.800781 189.269531 L 238.984375 191.019531 L 239.167969 192.765625 L 239.351563 194.5 L 239.535156 196.226563 L 239.71875 197.945313 L 239.902344 199.648438 L 240.085938 201.34375 L 240.269531 203.023438 L 240.449219 204.6875 L 240.632813 206.339844 L 240.816406 207.976563 L 241 209.597656 L 241.183594 211.199219 L 241.367188 212.789063 L 241.550781 214.355469 L 241.734375 215.90625 L 241.917969 217.433594 L 242.097656 218.945313 L 242.28125 220.4375 L 242.464844 221.90625 L 242.648438 223.355469 L 242.832031 224.78125 L 243.015625 226.1875 L 243.199219 227.570313 L 243.382813 228.933594 L 243.566406 230.273438 L 243.746094 231.589844 L 243.929688 232.882813 L 244.113281 234.152344 L 244.296875 235.398438 L 244.480469 236.621094 L 244.664063 237.824219 L 244.847656 239 L 245.03125 240.152344 L 245.210938 241.285156 L 245.394531 242.390625 L 245.578125 243.472656 L 245.761719 244.535156 L 245.945313 245.570313 L 246.128906 246.585938 L 246.3125 247.578125 L 246.496094 248.546875 L 246.679688 249.492188 L 246.859375 250.417969 L 247.042969 251.320313 L 247.226563 252.199219 L 247.410156 253.058594 L 247.59375 253.894531 L 247.777344 254.710938 L 247.960938 255.503906 L 248.144531 256.28125 L 248.328125 257.035156 L 248.507813 257.769531 L 248.691406 258.484375 L 248.875 259.183594 L 249.058594 259.859375 L 249.242188 260.519531 L 249.425781 261.160156 L 249.609375 261.78125 L 249.792969 262.386719 L 249.976563 262.976563 L 250.15625 263.546875 L 250.339844 264.101563 L 250.523438 264.640625 L 250.707031 265.167969 L 250.890625 265.675781 L 251.074219 266.167969 L 251.257813 266.648438 L 251.441406 267.113281 L 251.621094 267.5625 L 251.804688 268.003906 L 251.988281 268.425781 L 252.171875 268.839844 L 252.355469 269.238281 L 252.539063 269.628906 L 252.722656 270.003906 L 252.90625 270.367188 L 253.089844 270.722656 L 253.269531 271.066406 L 253.453125 271.398438 L 253.636719 271.722656 L 253.820313 272.035156 L 254.003906 272.339844 L 254.1875 272.636719 L 254.371094 272.921875 L 254.554688 273.199219 L 254.738281 273.46875 L 254.917969 273.730469 L 255.101563 273.988281 L 255.285156 274.234375 L 255.46875 274.472656 L 255.652344 274.707031 L 255.835938 274.933594 L 256.019531 275.152344 L 256.203125 275.367188 L 256.386719 275.578125 L 256.566406 275.777344 L 256.75 275.976563 L 256.933594 276.167969 L 257.117188 276.355469 L 257.300781 276.539063 L 257.484375 276.714844 L 257.851563 277.058594 L 258.035156 277.222656 L 258.214844 277.382813 L 258.398438 277.539063 L 258.765625 277.84375 L 259.132813 278.132813 L 259.316406 278.273438 L 259.5 278.410156 L 259.679688 278.542969 L 259.863281 278.675781 L 260.046875 278.804688 L 260.597656 279.179688 L 261.148438 279.53125 L 261.328125 279.644531 L 261.511719 279.757813 L 261.695313 279.867188 L 261.878906 279.972656 L 262.0625 280.082031 L 262.246094 280.1875 L 262.796875 280.492188 L 262.976563 280.589844 L 263.160156 280.691406 L 263.34375 280.785156 L 263.527344 280.882813 L 263.894531 281.070313 L 264.078125 281.160156 L 264.261719 281.253906 L 264.445313 281.34375 L 264.625 281.433594 L 264.992188 281.605469 L 265.175781 281.695313 L 265.359375 281.777344 L 265.542969 281.863281 L 265.726563 281.945313 L 265.910156 282.03125 L 266.089844 282.113281 L 266.273438 282.195313 L 266.457031 282.273438 L 266.640625 282.355469 L 267.375 282.667969 L 267.558594 282.742188 L 267.738281 282.820313 L 268.472656 283.117188 L 268.65625 283.1875 L 268.839844 283.261719 L 269.207031 283.402344 L 269.386719 283.472656 L 269.753906 283.613281 L 269.9375 283.679688 L 270.121094 283.75 L 270.855469 284.015625 L 271.035156 284.078125 L 271.402344 284.210938 L 272.320313 284.523438 L 272.503906 284.582031 L 272.683594 284.644531 L 273.050781 284.761719 L 273.234375 284.824219 L 273.417969 284.882813 L 273.601563 284.9375 L 273.96875 285.054688 L 274.148438 285.109375 L 274.332031 285.167969 L 275.066406 285.386719 L 275.25 285.4375 L 275.433594 285.492188 L 275.617188 285.542969 L 275.796875 285.597656 L 276.714844 285.851563 L 276.898438 285.898438 L 277.082031 285.949219 L 277.265625 285.996094 L 277.445313 286.042969 L 278.363281 286.277344 L 278.546875 286.320313 L 278.730469 286.367188 L 278.914063 286.410156 L 279.09375 286.453125 L 279.644531 286.582031 L 279.828125 286.621094 L 280.195313 286.707031 L 280.378906 286.746094 L 280.558594 286.785156 L 281.476563 286.980469 L 281.660156 287.015625 L 281.84375 287.054688 L 282.027344 287.089844 L 282.207031 287.128906 L 282.941406 287.269531 L 283.125 287.300781 L 283.492188 287.371094 L 283.675781 287.402344 L 283.855469 287.433594 L 284.039063 287.46875 L 284.773438 287.59375 L 284.957031 287.621094 L 285.324219 287.683594 L 285.503906 287.710938 L 285.6875 287.738281 L 285.871094 287.769531 L 286.972656 287.933594 L 287.152344 287.957031 L 287.335938 287.984375 L 287.519531 288.007813 L 287.703125 288.035156 L 288.253906 288.105469 L 288.4375 288.132813 L 288.617188 288.152344 L 289.351563 288.246094 L 289.535156 288.265625 L 289.71875 288.289063 L 289.902344 288.308594 L 290.085938 288.332031 L 290.265625 288.351563 L 291.734375 288.507813 L 291.914063 288.523438 L 292.097656 288.542969 L 292.28125 288.558594 L 292.464844 288.578125 L 292.832031 288.609375 L 293.015625 288.628906 L 293.382813 288.660156 L 293.5625 288.675781 L 294.480469 288.753906 L 294.664063 288.765625 L 294.847656 288.78125 L 295.027344 288.796875 L 295.210938 288.808594 L 295.394531 288.824219 L 295.761719 288.847656 L 295.945313 288.863281 L 296.496094 288.898438 L 296.675781 288.914063 L 297.226563 288.949219 L 297.410156 288.957031 L 298.144531 289.003906 L 298.324219 289.011719 L 298.691406 289.035156 L 298.875 289.042969 L 299.058594 289.054688 L 299.242188 289.0625 L 299.425781 289.074219 L 299.792969 289.089844 L 299.972656 289.101563 L 300.523438 289.125 L 300.707031 289.136719 L 301.441406 289.167969 L 301.621094 289.175781 L 302.171875 289.199219 L 302.355469 289.203125 L 302.90625 289.226563 L 303.085938 289.230469 L 303.453125 289.246094 L 303.636719 289.25 L 304.003906 289.265625 L 304.1875 289.269531 L 304.371094 289.277344 L 304.554688 289.28125 L 304.734375 289.289063 L 305.101563 289.296875 L 305.285156 289.304688 L 305.652344 289.3125 L 305.835938 289.320313 L 306.203125 289.328125 L 306.382813 289.335938 L 307.667969 289.363281 L 307.851563 289.371094 L 308.03125 289.375 L 308.582031 289.386719 "/>
<path style="fill:none;stroke-width:1.5;stroke-linecap:round;stroke-linejoin:round;stroke:rgb(0%,0%,0%);stroke-opacity:1;stroke-dasharray:1.5,4.5;stroke-miterlimit:10;" d="M 125.617188 289.554688 L 158.21875 289.554688 L 158.398438 289.550781 L 161.148438 289.550781 L 161.332031 289.546875 L 162.613281 289.546875 L 162.796875 289.542969 L 163.710938 289.542969 L 163.894531 289.539063 L 164.445313 289.539063 L 164.628906 289.535156 L 165.175781 289.535156 L 165.359375 289.53125 L 165.726563 289.53125 L 165.910156 289.527344 L 166.277344 289.527344 L 166.457031 289.523438 L 166.824219 289.523438 L 167.007813 289.519531 L 167.191406 289.519531 L 167.375 289.515625 L 167.558594 289.515625 L 167.925781 289.507813 L 168.105469 289.507813 L 168.289063 289.503906 L 168.472656 289.503906 L 169.023438 289.492188 L 169.207031 289.492188 L 169.574219 289.484375 L 169.753906 289.480469 L 171.039063 289.453125 L 171.21875 289.445313 L 171.585938 289.4375 L 171.769531 289.429688 L 171.953125 289.425781 L 172.136719 289.417969 L 172.320313 289.414063 L 172.6875 289.398438 L 172.867188 289.390625 L 173.785156 289.351563 L 173.96875 289.339844 L 174.152344 289.332031 L 174.335938 289.320313 L 174.515625 289.308594 L 174.699219 289.300781 L 175.066406 289.277344 L 175.25 289.261719 L 175.617188 289.238281 L 175.984375 289.207031 L 176.164063 289.191406 L 176.714844 289.144531 L 176.898438 289.125 L 177.082031 289.109375 L 177.449219 289.070313 L 177.632813 289.046875 L 177.8125 289.027344 L 178.546875 288.933594 L 179.097656 288.851563 L 179.277344 288.824219 L 180.011719 288.699219 L 180.378906 288.628906 L 180.746094 288.550781 L 180.925781 288.511719 L 181.109375 288.472656 L 181.476563 288.386719 L 181.84375 288.292969 L 182.394531 288.140625 L 182.574219 288.085938 L 182.757813 288.03125 L 183.125 287.914063 L 183.492188 287.789063 L 183.675781 287.722656 L 183.859375 287.652344 L 184.042969 287.585938 L 184.222656 287.511719 L 184.40625 287.4375 L 184.773438 287.28125 L 184.957031 287.195313 L 185.140625 287.113281 L 185.507813 286.933594 L 185.691406 286.839844 L 185.871094 286.746094 L 186.238281 286.542969 L 186.421875 286.4375 L 186.789063 286.21875 L 187.15625 285.984375 L 187.335938 285.863281 L 187.519531 285.738281 L 187.703125 285.609375 L 188.070313 285.335938 L 188.253906 285.195313 L 188.4375 285.050781 L 188.621094 284.902344 L 188.804688 284.75 L 188.984375 284.589844 L 189.167969 284.429688 L 189.535156 284.09375 L 189.71875 283.917969 L 190.085938 283.550781 L 190.269531 283.359375 L 190.453125 283.164063 L 190.632813 282.964844 L 190.816406 282.757813 L 191 282.546875 L 191.183594 282.328125 L 191.367188 282.105469 L 191.550781 281.878906 L 191.734375 281.644531 L 191.917969 281.402344 L 192.101563 281.15625 L 192.28125 280.90625 L 192.648438 280.382813 L 192.832031 280.109375 L 193.015625 279.832031 L 193.199219 279.546875 L 193.382813 279.257813 L 193.566406 278.957031 L 193.746094 278.652344 L 193.929688 278.339844 L 194.113281 278.019531 L 194.296875 277.691406 L 194.480469 277.359375 L 194.664063 277.015625 L 194.847656 276.667969 L 195.03125 276.308594 L 195.214844 275.941406 L 195.394531 275.570313 L 195.578125 275.1875 L 195.761719 274.796875 L 195.945313 274.398438 L 196.128906 273.992188 L 196.3125 273.578125 L 196.496094 273.152344 L 196.679688 272.722656 L 196.863281 272.28125 L 197.042969 271.828125 L 197.226563 271.371094 L 197.410156 270.902344 L 197.59375 270.425781 L 197.777344 269.9375 L 197.960938 269.441406 L 198.144531 268.933594 L 198.328125 268.417969 L 198.511719 267.894531 L 198.691406 267.359375 L 198.875 266.8125 L 199.058594 266.257813 L 199.242188 265.695313 L 199.425781 265.121094 L 199.609375 264.535156 L 199.792969 263.9375 L 199.976563 263.332031 L 200.160156 262.71875 L 200.339844 262.089844 L 200.523438 261.453125 L 200.707031 260.808594 L 200.890625 260.148438 L 201.074219 259.480469 L 201.257813 258.804688 L 201.441406 258.113281 L 201.625 257.414063 L 201.804688 256.703125 L 201.988281 255.980469 L 202.171875 255.25 L 202.355469 254.503906 L 202.539063 253.75 L 202.722656 252.988281 L 202.90625 252.210938 L 203.089844 251.425781 L 203.273438 250.628906 L 203.453125 249.820313 L 203.636719 249 L 203.820313 248.171875 L 204.003906 247.332031 L 204.1875 246.480469 L 204.371094 245.621094 L 204.554688 244.75 L 204.738281 243.867188 L 204.921875 242.972656 L 205.101563 242.070313 L 205.285156 241.15625 L 205.46875 240.234375 L 205.652344 239.300781 L 205.835938 238.355469 L 206.019531 237.402344 L 206.203125 236.4375 L 206.386719 235.464844 L 206.570313 234.480469 L 206.75 233.488281 L 206.933594 232.484375 L 207.117188 231.472656 L 207.300781 230.453125 L 207.484375 229.425781 L 207.667969 228.386719 L 207.851563 227.339844 L 208.035156 226.28125 L 208.214844 225.21875 L 208.398438 224.144531 L 208.582031 223.066406 L 208.765625 221.976563 L 208.949219 220.882813 L 209.132813 219.777344 L 209.316406 218.667969 L 209.5 217.550781 L 209.683594 216.425781 L 209.863281 215.296875 L 210.046875 214.160156 L 210.230469 213.015625 L 210.414063 211.867188 L 210.78125 209.554688 L 211.148438 207.21875 L 211.332031 206.046875 L 211.511719 204.867188 L 211.878906 202.5 L 212.0625 201.3125 L 212.246094 200.121094 L 212.613281 197.730469 L 212.980469 195.332031 L 213.160156 194.128906 L 214.078125 188.113281 L 214.261719 186.914063 L 214.445313 185.710938 L 214.628906 184.511719 L 214.808594 183.316406 L 215.175781 180.925781 L 215.542969 178.550781 L 215.910156 176.191406 L 216.09375 175.019531 L 216.273438 173.851563 L 216.457031 172.6875 L 216.640625 171.53125 L 216.824219 170.382813 L 217.007813 169.238281 L 217.191406 168.101563 L 217.375 166.972656 L 217.558594 165.851563 L 217.742188 164.738281 L 217.921875 163.632813 L 218.105469 162.539063 L 218.289063 161.453125 L 218.472656 160.375 L 218.65625 159.308594 L 218.839844 158.253906 L 219.023438 157.210938 L 219.207031 156.179688 L 219.390625 155.15625 L 219.570313 154.148438 L 219.753906 153.15625 L 219.9375 152.171875 L 220.121094 151.203125 L 220.304688 150.246094 L 220.488281 149.308594 L 220.671875 148.378906 L 220.855469 147.46875 L 221.039063 146.574219 L 221.21875 145.691406 L 221.402344 144.828125 L 221.585938 143.980469 L 221.769531 143.148438 L 221.953125 142.335938 L 222.136719 141.539063 L 222.320313 140.761719 L 222.503906 140 L 222.683594 139.257813 L 222.867188 138.535156 L 223.050781 137.832031 L 223.234375 137.144531 L 223.417969 136.480469 L 223.601563 135.835938 L 223.785156 135.210938 L 223.96875 134.605469 L 224.152344 134.023438 L 224.332031 133.457031 L 224.515625 132.917969 L 224.699219 132.394531 L 224.882813 131.898438 L 225.066406 131.421875 L 225.25 130.964844 L 225.433594 130.535156 L 225.617188 130.125 L 225.800781 129.738281 L 225.980469 129.371094 L 226.164063 129.03125 L 226.347656 128.714844 L 226.53125 128.417969 L 226.714844 128.148438 L 226.898438 127.898438 L 227.082031 127.675781 L 227.265625 127.472656 L 227.449219 127.296875 L 227.628906 127.144531 L 227.8125 127.015625 L 227.996094 126.910156 L 228.179688 126.832031 L 228.363281 126.773438 L 228.546875 126.742188 L 228.730469 126.734375 L 228.914063 126.75 L 229.097656 126.789063 L 229.277344 126.855469 L 229.460938 126.941406 L 229.644531 127.054688 L 229.828125 127.191406 L 230.011719 127.351563 L 230.195313 127.535156 L 230.378906 127.746094 L 230.5625 127.976563 L 230.742188 128.234375 L 230.925781 128.511719 L 231.109375 128.8125 L 231.292969 129.140625 L 231.476563 129.488281 L 231.660156 129.859375 L 231.84375 130.253906 L 232.027344 130.671875 L 232.210938 131.113281 L 232.390625 131.574219 L 232.574219 132.058594 L 232.757813 132.5625 L 232.941406 133.089844 L 233.125 133.640625 L 233.308594 134.210938 L 233.492188 134.800781 L 233.675781 135.410156 L 233.859375 136.042969 L 234.039063 136.695313 L 234.222656 137.367188 L 234.40625 138.058594 L 234.589844 138.769531 L 234.773438 139.5 L 234.957031 140.246094 L 235.140625 141.011719 L 235.324219 141.796875 L 235.507813 142.601563 L 235.6875 143.417969 L 235.871094 144.253906 L 236.054688 145.109375 L 236.238281 145.976563 L 236.421875 146.863281 L 236.605469 147.765625 L 236.789063 148.679688 L 236.972656 149.613281 L 237.152344 150.558594 L 237.335938 151.515625 L 237.519531 152.492188 L 237.703125 153.476563 L 237.886719 154.476563 L 238.070313 155.488281 L 238.253906 156.515625 L 238.4375 157.550781 L 238.621094 158.597656 L 238.800781 159.65625 L 238.984375 160.726563 L 239.167969 161.804688 L 239.351563 162.894531 L 239.535156 163.992188 L 239.71875 165.097656 L 239.902344 166.214844 L 240.085938 167.339844 L 240.269531 168.472656 L 240.449219 169.609375 L 240.632813 170.757813 L 240.816406 171.910156 L 241 173.066406 L 241.183594 174.230469 L 241.367188 175.402344 L 241.734375 177.753906 L 241.917969 178.9375 L 242.097656 180.125 L 242.464844 182.507813 L 242.648438 183.703125 L 243.015625 186.101563 L 243.566406 189.710938 L 243.746094 190.914063 L 244.113281 193.320313 L 244.296875 194.519531 L 244.480469 195.722656 L 244.847656 198.121094 L 245.03125 199.316406 L 245.210938 200.507813 L 245.394531 201.699219 L 245.578125 202.886719 L 245.761719 204.070313 L 246.128906 206.429688 L 246.3125 207.601563 L 246.496094 208.769531 L 246.679688 209.929688 L 246.859375 211.089844 L 247.042969 212.242188 L 247.226563 213.390625 L 247.410156 214.53125 L 247.59375 215.664063 L 247.777344 216.792969 L 247.960938 217.914063 L 248.144531 219.03125 L 248.328125 220.136719 L 248.507813 221.238281 L 248.691406 222.332031 L 248.875 223.417969 L 249.058594 224.496094 L 249.242188 225.566406 L 249.425781 226.628906 L 249.609375 227.679688 L 249.792969 228.726563 L 249.976563 229.761719 L 250.15625 230.789063 L 250.339844 231.804688 L 250.523438 232.8125 L 250.707031 233.8125 L 250.890625 234.800781 L 251.074219 235.78125 L 251.257813 236.753906 L 251.441406 237.714844 L 251.621094 238.664063 L 251.804688 239.605469 L 251.988281 240.535156 L 252.171875 241.457031 L 252.355469 242.367188 L 252.539063 243.265625 L 252.722656 244.15625 L 252.90625 245.035156 L 253.089844 245.902344 L 253.269531 246.761719 L 253.453125 247.609375 L 253.636719 248.445313 L 253.820313 249.269531 L 254.003906 250.085938 L 254.1875 250.890625 L 254.371094 251.683594 L 254.554688 252.464844 L 254.738281 253.238281 L 254.917969 254 L 255.101563 254.75 L 255.285156 255.488281 L 255.46875 256.21875 L 255.652344 256.9375 L 255.835938 257.644531 L 256.019531 258.339844 L 256.203125 259.027344 L 256.386719 259.699219 L 256.566406 260.367188 L 256.75 261.019531 L 256.933594 261.664063 L 257.117188 262.296875 L 257.300781 262.917969 L 257.484375 263.53125 L 257.667969 264.132813 L 257.851563 264.726563 L 258.035156 265.308594 L 258.214844 265.878906 L 258.398438 266.441406 L 258.582031 266.992188 L 258.765625 267.535156 L 258.949219 268.066406 L 259.132813 268.589844 L 259.316406 269.101563 L 259.5 269.601563 L 259.679688 270.097656 L 259.863281 270.582031 L 260.046875 271.054688 L 260.230469 271.519531 L 260.414063 271.976563 L 260.597656 272.425781 L 260.78125 272.863281 L 260.964844 273.292969 L 261.148438 273.714844 L 261.328125 274.125 L 261.511719 274.53125 L 261.695313 274.925781 L 261.878906 275.3125 L 262.0625 275.691406 L 262.246094 276.0625 L 262.429688 276.425781 L 262.613281 276.78125 L 262.796875 277.128906 L 262.976563 277.46875 L 263.160156 277.800781 L 263.34375 278.125 L 263.527344 278.441406 L 263.710938 278.753906 L 263.894531 279.054688 L 264.078125 279.351563 L 264.261719 279.640625 L 264.445313 279.921875 L 264.625 280.199219 L 264.808594 280.46875 L 264.992188 280.730469 L 265.175781 280.988281 L 265.359375 281.238281 L 265.542969 281.480469 L 265.726563 281.71875 L 265.910156 281.953125 L 266.089844 282.179688 L 266.273438 282.398438 L 266.457031 282.613281 L 266.640625 282.824219 L 266.824219 283.027344 L 267.007813 283.226563 L 267.191406 283.421875 L 267.558594 283.796875 L 267.738281 283.972656 L 267.921875 284.148438 L 268.289063 284.484375 L 268.472656 284.644531 L 268.65625 284.800781 L 268.839844 284.953125 L 269.207031 285.242188 L 269.386719 285.382813 L 269.570313 285.519531 L 269.9375 285.777344 L 270.121094 285.902344 L 270.304688 286.023438 L 270.488281 286.140625 L 270.855469 286.367188 L 271.035156 286.472656 L 271.21875 286.578125 L 271.402344 286.679688 L 271.585938 286.777344 L 271.953125 286.964844 L 272.136719 287.054688 L 272.320313 287.140625 L 272.503906 287.222656 L 272.683594 287.304688 L 273.050781 287.460938 L 273.234375 287.535156 L 273.601563 287.675781 L 273.96875 287.808594 L 274.148438 287.871094 L 274.332031 287.933594 L 274.699219 288.050781 L 274.882813 288.105469 L 275.066406 288.15625 L 275.25 288.210938 L 275.433594 288.257813 L 275.617188 288.308594 L 275.796875 288.355469 L 276.53125 288.527344 L 276.714844 288.566406 L 276.898438 288.601563 L 277.082031 288.640625 L 277.265625 288.675781 L 277.445313 288.707031 L 277.628906 288.742188 L 277.996094 288.804688 L 278.179688 288.832031 L 278.363281 288.863281 L 278.546875 288.890625 L 278.730469 288.914063 L 278.914063 288.941406 L 279.09375 288.964844 L 279.644531 289.035156 L 280.378906 289.113281 L 280.558594 289.132813 L 280.742188 289.148438 L 280.925781 289.167969 L 281.476563 289.214844 L 281.660156 289.226563 L 281.84375 289.242188 L 282.027344 289.253906 L 282.207031 289.265625 L 282.390625 289.28125 L 282.574219 289.292969 L 282.757813 289.300781 L 283.308594 289.335938 L 283.675781 289.351563 L 283.855469 289.363281 L 284.773438 289.402344 L 284.957031 289.40625 L 285.324219 289.421875 L 285.503906 289.425781 L 285.6875 289.433594 L 285.871094 289.4375 L 286.054688 289.445313 L 286.789063 289.460938 L 286.972656 289.46875 L 287.152344 289.472656 L 287.519531 289.480469 L 287.703125 289.480469 L 288.4375 289.496094 L 288.617188 289.496094 L 288.984375 289.503906 L 289.167969 289.503906 L 289.535156 289.511719 L 289.71875 289.511719 L 289.902344 289.515625 L 290.085938 289.515625 L 290.265625 289.519531 L 290.449219 289.519531 L 290.632813 289.523438 L 291 289.523438 L 291.183594 289.527344 L 291.367188 289.527344 L 291.550781 289.53125 L 291.914063 289.53125 L 292.097656 289.535156 L 292.648438 289.535156 L 292.832031 289.539063 L 293.5625 289.539063 L 293.746094 289.542969 L 294.664063 289.542969 L 294.847656 289.546875 L 296.128906 289.546875 L 296.3125 289.550781 L 299.058594 289.550781 L 299.242188 289.554688 L 308.582031 289.554688 "/>
<g clip-path="url(#clip1)" clip-rule="nonzero">
<path style=" stroke:none;fill-rule:nonzero;fill:rgb(100%,100%,100%);fill-opacity:1;" d="M 261.261719 49.199219 L 406.800781 49.199219 L 406.800781 85.199219 L 261.261719 85.199219 Z M 261.261719 49.199219 "/>
</g>
<g clip-path="url(#clip2)" clip-rule="nonzero">
<path style="fill:none;stroke-width:0.75;stroke-linecap:round;stroke-linejoin:round;stroke:rgb(0%,0%,0%);stroke-opacity:1;stroke-miterlimit:10;" d="M 261.261719 49.199219 L 406.800781 49.199219 L 406.800781 85.199219 L 261.261719 85.199219 Z M 261.261719 49.199219 "/>
</g>
<path style="fill:none;stroke-width:1.5;stroke-linecap:round;stroke-linejoin:round;stroke:rgb(50.196078%,69.411765%,82.745098%);stroke-opacity:1;stroke-dasharray:6,6;stroke-miterlimit:10;" d="M 270.261719 61.199219 L 288.261719 61.199219 "/>
<path style="fill:none;stroke-width:1.5;stroke-linecap:round;stroke-linejoin:round;stroke:rgb(50.196078%,69.411765%,82.745098%);stroke-opacity:1;stroke-dasharray:1.5,4.5;stroke-miterlimit:10;" d="M 270.261719 73.199219 L 288.261719 73.199219 "/>
<g style="fill:rgb(0%,0%,0%);fill-opacity:1;">
  <use xlink:href="#glyph1-15" x="297.261719" y="64.777344"/>
  <use xlink:href="#glyph1-16" x="305.591797" y="64.777344"/>
  <use xlink:href="#glyph1-17" x="311.15332" y="64.777344"/>
  <use xlink:href="#glyph1-4" x="317.823242" y="64.777344"/>
  <use xlink:href="#glyph1-10" x="320.601563" y="64.777344"/>
  <use xlink:href="#glyph1-4" x="323.931641" y="64.777344"/>
  <use xlink:href="#glyph1-3" x="326.709961" y="64.777344"/>
  <use xlink:href="#glyph1-18" x="332.271484" y="64.777344"/>
  <use xlink:href="#glyph1-8" x="337.833008" y="64.777344"/>
  <use xlink:href="#glyph1-19" x="343.394531" y="64.777344"/>
  <use xlink:href="#glyph1-19" x="348.394531" y="64.777344"/>
  <use xlink:href="#glyph1-20" x="353.394531" y="64.777344"/>
  <use xlink:href="#glyph1-18" x="355.616211" y="64.777344"/>
  <use xlink:href="#glyph1-9" x="361.177734" y="64.777344"/>
  <use xlink:href="#glyph1-4" x="366.739258" y="64.777344"/>
  <use xlink:href="#glyph1-21" x="369.517578" y="64.777344"/>
  <use xlink:href="#glyph1-20" x="377.847656" y="64.777344"/>
  <use xlink:href="#glyph1-22" x="380.069336" y="64.777344"/>
  <use xlink:href="#glyph1-7" x="385.069336" y="64.777344"/>
  <use xlink:href="#glyph1-8" x="387.847656" y="64.777344"/>
  <use xlink:href="#glyph1-5" x="393.40918" y="64.777344"/>
  <use xlink:href="#glyph1-6" x="396.739258" y="64.777344"/>
</g>
<g style="fill:rgb(0%,0%,0%);fill-opacity:1;">
  <use xlink:href="#glyph1-15" x="297.261719" y="76.777344"/>
  <use xlink:href="#glyph1-16" x="305.591797" y="76.777344"/>
  <use xlink:href="#glyph1-17" x="311.15332" y="76.777344"/>
  <use xlink:href="#glyph1-4" x="317.823242" y="76.777344"/>
  <use xlink:href="#glyph1-10" x="320.601563" y="76.777344"/>
  <use xlink:href="#glyph1-4" x="323.931641" y="76.777344"/>
  <use xlink:href="#glyph1-9" x="326.709961" y="76.777344"/>
  <use xlink:href="#glyph1-2" x="332.271484" y="76.777344"/>
  <use xlink:href="#glyph1-5" x="337.833008" y="76.777344"/>
  <use xlink:href="#glyph1-21" x="341.163086" y="76.777344"/>
  <use xlink:href="#glyph1-18" x="349.493164" y="76.777344"/>
  <use xlink:href="#glyph1-1" x="355.054688" y="76.777344"/>
</g>
</g>
</svg>
